<svg id="svg" version="1.1" xmlns="http://www.w3.org/2000/svg" xmlns:xlink="http://www.w3.org/1999/xlink" width="400" height="403.1558185404339" viewBox="0, 0, 400,403.1558185404339"><g id="svgg"><path id="path0" d="M111.363 4.996 C 110.034 7.809,108.215 12.977,107.320 16.480 C 98.709 50.205,83.799 76.840,54.049 111.637 C 39.545 128.602,30.438 140.778,23.858 152.003 C 18.241 161.584,17.287 163.719,15.287 171.180 C 14.651 173.554,13.666 176.039,13.098 176.703 C 10.559 179.668,4.903 198.945,1.915 214.812 C -2.069 235.972,-0.008 281.073,5.431 291.733 C 6.349 293.533,7.101 296.076,7.101 297.384 C 7.101 298.692,8.166 302.443,9.467 305.720 C 10.769 308.997,11.834 312.121,11.834 312.662 C 11.834 313.203,12.988 315.417,14.398 317.583 C 15.809 319.749,18.353 323.824,20.052 326.638 C 27.112 338.331,42.220 354.781,49.108 358.273 C 50.954 359.209,52.643 360.244,52.860 360.573 C 53.077 360.902,55.431 362.276,58.091 363.626 C 60.751 364.976,63.353 366.593,63.874 367.221 C 64.395 367.848,66.123 368.782,67.716 369.296 C 69.308 369.811,74.517 372.088,79.290 374.358 C 91.640 380.230,107.129 384.338,125.444 386.599 C 136.091 387.913,136.087 387.912,137.285 390.152 C 138.515 392.449,147.424 399.930,151.243 401.872 C 153.477 403.008,158.399 403.156,193.999 403.156 L 234.230 403.156 235.458 401.402 C 238.059 397.689,235.751 387.181,232.165 386.409 C 231.397 386.243,216.915 386.265,199.982 386.456 L 169.194 386.803 164.873 384.774 C 162.497 383.659,159.569 382.505,158.368 382.211 C 155.299 381.459,150.839 375.923,149.515 371.224 C 147.528 364.173,147.959 283.480,150.012 277.992 C 154.116 267.022,159.986 264.672,183.037 264.769 C 192.801 264.810,204.162 264.810,208.284 264.769 C 212.406 264.728,248.974 264.713,289.546 264.736 L 363.314 264.778 367.052 266.594 C 378.761 272.281,379.535 275.660,379.891 322.628 C 380.278 373.806,379.356 377.930,366.131 384.132 L 361.736 386.193 329.783 386.599 C 312.209 386.822,297.196 387.309,296.421 387.681 C 292.979 389.331,291.435 397.840,293.930 401.402 L 295.159 403.156 334.759 403.148 L 374.359 403.141 378.698 400.657 C 388.700 394.932,396.487 383.614,397.638 373.127 C 397.978 370.034,398.648 367.111,399.128 366.631 C 400.260 365.500,400.341 347.625,399.211 348.323 C 398.691 348.645,398.422 339.800,398.422 322.381 C 398.422 305.612,398.710 295.773,399.211 295.464 C 400.449 294.699,400.224 278.470,398.962 277.405 C 398.391 276.923,397.315 274.512,396.572 272.048 C 393.731 262.628,386.364 254.262,376.134 248.840 L 370.414 245.809 354.635 245.289 C 345.957 245.003,332.821 244.953,325.444 245.177 C 318.067 245.401,305.108 245.322,296.647 245.002 L 281.262 244.419 281.412 219.842 C 281.524 201.465,281.294 194.172,280.499 190.927 C 275.924 172.267,273.475 163.944,270.261 156.143 C 268.221 151.192,266.351 146.252,266.106 145.168 C 265.457 142.296,252.980 124.614,247.195 118.365 C 241.338 112.039,236.898 109.660,230.975 109.675 C 222.956 109.696,222.241 110.565,221.235 121.499 C 218.608 150.075,187.303 160.838,176.613 136.840 C 173.309 129.423,173.831 108.719,177.500 101.642 C 181.035 94.824,184.887 72.105,183.065 68.826 C 182.647 68.072,181.768 64.709,181.113 61.353 C 177.996 45.386,169.577 29.298,158.543 18.225 C 143.093 2.719,138.878 0.502,124.148 0.138 L 113.780 -0.119 111.363 4.996 M137.905 25.049 C 140.859 27.978,144.633 32.061,146.290 34.122 C 147.947 36.183,149.798 37.870,150.404 37.870 C 151.009 37.870,152.007 39.024,152.621 40.434 C 163.448 65.311,165.205 75.293,161.339 89.950 C 153.831 118.410,153.143 131.937,158.531 145.176 C 171.927 178.096,218.743 177.681,235.233 144.496 L 238.115 138.697 240.951 142.908 C 242.511 145.224,243.787 147.453,243.787 147.861 C 243.787 148.269,245.010 150.404,246.506 152.605 C 257.211 168.365,263.891 205.973,261.545 237.268 L 260.997 244.576 235.443 244.576 L 209.889 244.576 207.969 240.828 C 201.096 227.411,190.788 217.598,176.726 211.088 C 150.968 199.164,149.507 198.346,145.425 193.575 C 136.327 182.941,133.943 175.972,132.914 157.002 C 132.012 140.363,125.787 137.355,107.098 144.528 C 104.963 145.347,100.197 150.959,100.197 152.654 C 100.197 153.129,98.579 155.100,96.601 157.035 C 94.623 158.969,91.822 162.327,90.375 164.497 C 88.928 166.667,85.664 170.603,83.123 173.244 C 77.986 178.581,71.890 188.833,71.351 193.040 C 71.159 194.543,70.641 196.447,70.200 197.271 C 60.854 214.733,55.192 263.867,61.067 276.529 C 61.671 277.830,63.295 282.268,64.676 286.391 C 70.956 305.134,85.667 324.547,96.928 328.950 C 98.702 329.643,100.613 330.839,101.173 331.606 C 102.669 333.651,111.835 336.725,120.571 338.110 C 130.667 339.711,132.008 342.092,130.100 355.038 C 129.621 358.288,129.048 362.505,128.826 364.409 L 128.423 367.872 122.003 367.372 C 84.312 364.439,45.566 337.802,31.374 305.066 C 29.648 301.087,27.578 296.410,26.773 294.675 C 21.994 284.365,18.805 264.907,18.951 246.943 C 19.323 201.297,34.777 162.366,64.235 132.866 C 76.801 120.281,78.783 117.952,79.737 114.649 C 80.290 112.736,82.962 108.527,86.096 104.633 C 98.952 88.659,110.092 68.434,118.742 45.365 C 121.841 37.100,125.419 26.054,125.434 24.706 C 125.509 17.723,130.657 17.864,137.905 25.049 M115.647 174.050 C 116.261 174.532,117.312 178.076,117.984 181.928 C 118.778 186.486,119.743 189.503,120.746 190.571 C 121.594 191.474,122.288 192.647,122.288 193.179 C 122.288 194.847,125.204 199.919,127.272 201.849 C 128.362 202.866,130.260 205.291,131.490 207.237 C 132.962 209.566,135.345 211.746,138.461 213.615 C 141.065 215.177,144.147 217.236,145.310 218.190 C 146.473 219.144,151.443 221.619,156.355 223.691 C 171.242 229.970,174.639 232.041,182.446 239.601 C 188.983 245.931,188.809 246.154,177.318 246.154 C 158.137 246.154,148.835 249.069,138.964 258.174 C 129.326 267.063,128.429 270.879,128.786 301.507 C 129.022 321.784,129.285 320.897,123.437 319.588 C 79.929 309.851,64.518 241.924,94.876 193.694 C 101.687 182.873,113.803 169.141,114.268 171.715 C 114.413 172.518,115.034 173.569,115.647 174.050 M175.410 285.910 C 172.781 288.171,172.146 296.487,172.061 329.783 C 171.990 357.130,173.574 361.879,182.505 361.103 C 187.937 360.631,188.877 359.355,189.169 352.057 C 189.597 341.353,189.562 341.387,194.555 346.801 C 196.929 349.374,200.714 353.343,202.967 355.621 L 207.063 359.763 212.705 359.763 C 218.579 359.763,219.451 359.336,220.491 355.947 C 221.875 351.438,219.411 347.456,206.528 333.382 C 205.044 331.760,204.659 329.783,205.827 329.783 C 207.957 329.783,215.533 321.192,216.261 317.950 C 219.252 304.638,209.233 302.169,197.588 313.350 L 191.056 319.620 190.748 305.569 C 190.337 286.783,189.094 284.024,181.045 284.024 C 178.553 284.024,176.998 284.544,175.410 285.910 M349.457 285.824 C 346.490 288.136,346.106 293.121,346.572 323.312 C 347.151 360.851,346.989 360.276,357.077 360.474 C 364.464 360.618,364.103 362.548,364.103 322.927 L 364.103 288.622 361.889 286.717 C 359.397 284.573,351.766 284.025,349.457 285.824 M243.514 307.775 C 231.146 310.682,223.290 329.890,227.988 345.736 C 233.336 363.774,271.400 368.451,271.400 351.070 C 271.400 344.153,268.063 342.420,258.053 344.136 C 251.072 345.333,248.430 344.348,246.184 339.707 C 242.266 331.613,247.090 322.525,254.629 323.798 C 268.170 326.085,271.400 324.751,271.400 316.873 C 271.400 308.443,258.533 304.245,243.514 307.775 M297.876 308.029 C 294.238 308.676,292.119 309.471,291.565 310.397 C 291.106 311.164,288.871 313.792,286.599 316.238 C 278.367 325.099,278.059 334.153,285.439 350.394 C 289.363 359.029,291.524 360.181,303.586 360.059 C 308.981 360.004,313.621 359.623,313.897 359.212 C 314.971 357.612,317.398 357.367,318.881 358.710 C 319.806 359.547,322.133 360.189,324.990 360.395 C 332.663 360.950,332.897 360.450,333.136 342.998 C 333.630 306.926,333.252 305.831,321.324 308.774 C 318.469 309.479,315.743 309.763,315.266 309.406 C 312.068 307.014,306.196 306.549,297.876 308.029 M311.774 325.628 C 315.623 328.792,315.695 328.964,315.320 334.122 C 314.547 344.743,305.956 349.193,300.669 341.710 C 293.871 332.089,303.198 318.581,311.774 325.628 " stroke="none" fill="#000000" fill-rule="evenodd"></path></g></svg>