<svg id="svg" version="1.1" xmlns="http://www.w3.org/2000/svg" xmlns:xlink="http://www.w3.org/1999/xlink" width="400" height="281.5850815850816" viewBox="0, 0, 400,281.5850815850816"><g id="svgg"><path id="path0" d="M298.635 22.396 C 298.117 22.625,297.293 22.793,296.804 22.769 C 296.315 22.745,295.345 22.866,294.648 23.037 C 293.951 23.209,292.113 23.619,290.563 23.947 C 289.014 24.276,287.041 24.727,286.179 24.949 C 285.316 25.171,284.302 25.351,283.925 25.351 C 283.548 25.350,282.669 25.530,281.972 25.750 C 281.275 25.970,279.944 26.298,279.014 26.479 C 278.085 26.660,276.500 26.980,275.493 27.191 C 274.486 27.402,272.965 27.718,272.113 27.893 C 271.261 28.069,269.918 28.393,269.130 28.613 C 268.342 28.834,267.368 29.014,266.965 29.014 C 266.563 29.014,265.877 29.150,265.441 29.316 C 265.005 29.482,263.761 29.791,262.676 30.002 C 261.592 30.214,259.720 30.579,258.516 30.813 C 257.313 31.048,256.197 31.322,256.036 31.421 C 255.875 31.521,255.084 31.706,254.280 31.833 C 253.475 31.959,251.613 32.338,250.141 32.674 C 248.669 33.010,246.577 33.454,245.493 33.661 C 244.408 33.868,243.164 34.175,242.728 34.343 C 242.292 34.511,241.606 34.648,241.204 34.648 C 240.801 34.648,239.827 34.828,239.039 35.049 C 238.251 35.269,236.908 35.591,236.056 35.763 C 235.204 35.936,233.683 36.253,232.676 36.468 C 231.669 36.683,229.894 37.053,228.732 37.290 C 227.570 37.527,226.113 37.846,225.493 37.998 C 224.873 38.150,223.352 38.484,222.113 38.740 C 220.873 38.996,218.841 39.448,217.597 39.744 C 216.352 40.040,215.096 40.282,214.804 40.282 C 214.513 40.282,213.630 40.461,212.842 40.681 C 212.053 40.901,210.458 41.279,209.296 41.522 C 208.134 41.764,206.549 42.102,205.775 42.271 C 205.000 42.441,203.732 42.707,202.958 42.863 C 202.183 43.020,200.852 43.316,200.000 43.521 C 199.148 43.727,197.754 44.035,196.901 44.207 C 196.049 44.379,194.465 44.712,193.380 44.946 C 192.296 45.180,190.521 45.550,189.437 45.768 C 188.352 45.986,186.958 46.290,186.338 46.445 C 185.718 46.599,184.197 46.934,182.958 47.190 C 181.718 47.445,180.197 47.781,179.577 47.937 C 178.958 48.092,177.563 48.393,176.479 48.606 C 174.342 49.025,171.589 49.618,169.577 50.093 C 167.608 50.557,162.528 51.626,159.406 52.232 C 158.383 52.431,157.396 52.685,157.214 52.798 C 157.031 52.911,156.031 53.123,154.990 53.270 C 153.950 53.417,152.718 53.649,152.254 53.785 C 150.797 54.211,147.238 55.022,145.915 55.230 C 145.218 55.339,143.444 55.708,141.972 56.050 C 139.409 56.645,137.772 56.997,133.592 57.855 C 132.546 58.069,131.120 58.381,130.423 58.547 C 128.379 59.033,123.671 60.046,120.423 60.697 C 119.338 60.915,117.944 61.220,117.324 61.374 C 116.704 61.529,115.183 61.864,113.944 62.119 C 112.704 62.375,111.183 62.711,110.563 62.866 C 109.944 63.022,108.549 63.320,107.465 63.530 C 106.380 63.740,104.289 64.181,102.817 64.511 C 101.345 64.841,99.285 65.292,98.239 65.513 C 97.194 65.735,95.482 66.104,94.437 66.335 C 93.391 66.565,91.545 66.943,90.334 67.174 C 89.124 67.405,88.023 67.663,87.887 67.746 C 87.752 67.830,86.651 68.088,85.440 68.321 C 81.846 69.010,79.145 69.546,76.901 70.015 C 75.739 70.258,73.862 70.637,72.729 70.857 C 71.596 71.076,70.560 71.323,70.428 71.405 C 70.296 71.487,69.195 71.740,67.981 71.967 C 66.768 72.194,64.887 72.581,63.803 72.827 C 61.709 73.301,59.246 73.822,56.479 74.376 C 55.549 74.562,54.194 74.889,53.468 75.103 C 52.742 75.318,51.922 75.493,51.646 75.493 C 51.371 75.493,50.127 75.735,48.882 76.031 C 47.638 76.327,45.606 76.778,44.366 77.034 C 43.127 77.290,41.606 77.626,40.986 77.781 C 40.366 77.935,38.972 78.237,37.887 78.452 C 36.803 78.667,35.028 79.035,33.944 79.270 C 32.859 79.505,31.275 79.839,30.423 80.012 C 29.570 80.184,28.228 80.506,27.440 80.726 C 26.652 80.946,25.678 81.127,25.275 81.127 C 24.873 81.127,24.187 81.264,23.751 81.431 C 23.315 81.599,22.007 81.917,20.845 82.138 C 18.368 82.610,15.585 83.193,13.803 83.614 C 13.106 83.778,11.268 84.183,9.718 84.513 C 3.378 85.865,1.535 86.741,2.913 87.749 C 3.195 87.955,3.380 88.483,3.380 89.081 C 3.380 89.626,3.553 90.215,3.764 90.390 C 4.013 90.597,4.199 91.606,4.293 93.264 C 4.373 94.669,4.581 95.961,4.755 96.135 C 4.928 96.309,5.070 96.870,5.070 97.383 C 5.070 97.967,5.281 98.496,5.634 98.798 C 6.093 99.191,6.197 99.629,6.197 101.169 C 6.197 102.376,6.334 103.195,6.576 103.437 C 6.807 103.668,7.015 104.784,7.110 106.301 C 7.195 107.668,7.405 108.926,7.576 109.097 C 7.747 109.268,7.887 109.799,7.887 110.275 C 7.887 110.752,8.061 111.392,8.273 111.698 C 8.485 112.003,8.750 113.365,8.862 114.724 C 8.974 116.083,9.223 117.352,9.416 117.545 C 9.609 117.737,9.846 118.842,9.943 120.000 C 10.040 121.158,10.251 122.149,10.412 122.203 C 10.573 122.257,10.704 122.781,10.704 123.369 C 10.704 123.957,10.875 124.580,11.085 124.754 C 11.325 124.953,11.532 126.028,11.648 127.676 C 11.776 129.498,11.958 130.376,12.254 130.594 C 12.486 130.766,12.676 131.284,12.676 131.745 C 12.676 133.057,12.609 133.059,19.155 131.546 C 20.627 131.206,22.465 130.818,23.239 130.684 C 24.014 130.550,25.408 130.256,26.338 130.030 C 27.268 129.804,29.042 129.407,30.282 129.147 C 31.521 128.887,33.042 128.553,33.662 128.405 C 34.282 128.257,35.739 127.941,36.901 127.703 C 41.599 126.741,42.725 126.503,43.803 126.244 C 44.423 126.095,45.944 125.759,47.183 125.498 C 48.423 125.236,49.944 124.895,50.563 124.739 C 51.183 124.584,52.577 124.287,53.662 124.080 C 54.746 123.873,56.141 123.578,56.761 123.425 C 57.380 123.272,58.901 122.933,60.141 122.671 C 61.380 122.410,62.901 122.071,63.521 121.918 C 64.141 121.765,65.535 121.464,66.620 121.248 C 69.669 120.643,72.423 120.062,73.662 119.765 C 74.282 119.616,75.739 119.293,76.901 119.047 C 78.063 118.801,79.648 118.461,80.423 118.291 C 81.197 118.121,82.655 117.814,83.662 117.608 C 84.669 117.402,86.697 116.958,88.169 116.621 C 89.641 116.283,91.732 115.842,92.817 115.641 C 93.901 115.439,95.137 115.113,95.563 114.916 L 96.338 114.557 96.343 108.194 C 96.349 99.912,96.718 97.484,98.570 93.521 C 100.441 89.517,104.583 86.239,109.718 84.696 L 111.690 84.104 176.197 83.953 C 226.788 83.835,240.856 83.727,241.408 83.453 C 241.796 83.260,242.810 82.978,243.662 82.826 C 247.154 82.202,249.627 81.693,249.859 81.549 C 249.994 81.466,251.096 81.208,252.306 80.977 C 253.517 80.746,255.394 80.363,256.479 80.126 C 259.195 79.532,261.798 78.983,263.803 78.582 C 264.732 78.396,266.087 78.069,266.813 77.854 C 267.540 77.640,268.346 77.465,268.606 77.465 C 268.866 77.465,270.173 77.212,271.511 76.904 C 272.849 76.595,274.894 76.140,276.056 75.892 C 278.417 75.388,280.570 74.913,283.572 74.233 C 284.685 73.981,286.206 73.664,286.952 73.528 C 287.699 73.393,288.817 73.158,289.437 73.008 C 290.056 72.857,291.514 72.538,292.676 72.300 C 293.838 72.061,295.423 71.721,296.197 71.545 C 297.746 71.193,300.348 70.651,302.958 70.136 C 303.887 69.953,305.284 69.562,306.062 69.268 C 306.839 68.973,307.980 68.731,308.597 68.729 C 310.805 68.721,310.986 68.574,310.986 66.790 C 310.986 65.902,310.816 64.950,310.601 64.640 C 310.390 64.335,310.128 63.365,310.020 62.485 C 309.912 61.604,309.638 60.731,309.412 60.543 C 309.053 60.245,309.064 60.130,309.496 59.652 C 309.967 59.132,309.967 59.086,309.503 58.746 C 309.199 58.524,309.014 58.013,309.014 57.398 C 309.014 56.853,308.843 56.265,308.633 56.091 C 308.392 55.891,308.193 54.856,308.090 53.268 C 308.001 51.889,307.799 50.526,307.643 50.240 C 307.486 49.953,307.285 49.370,307.195 48.944 C 307.105 48.518,306.844 48.169,306.614 48.169 C 306.279 48.169,306.197 47.704,306.197 45.795 C 306.197 44.060,306.083 43.307,305.775 42.998 C 305.501 42.725,305.352 42.028,305.352 41.026 C 305.352 39.957,305.207 39.332,304.884 39.009 C 304.488 38.613,304.477 38.502,304.813 38.293 C 305.138 38.091,305.147 37.941,304.859 37.477 C 304.665 37.165,304.507 36.664,304.507 36.365 C 304.507 35.522,304.204 34.930,303.773 34.930 C 303.469 34.930,303.380 34.399,303.380 32.570 C 303.380 30.816,303.272 30.120,302.958 29.859 C 302.693 29.639,302.535 29.019,302.535 28.197 C 302.535 27.456,302.341 26.609,302.088 26.248 C 301.729 25.735,301.710 25.527,301.990 25.190 C 302.252 24.874,302.261 24.615,302.026 24.145 C 301.854 23.802,301.677 23.204,301.631 22.817 C 301.530 21.947,300.105 21.747,298.635 22.396 M325.352 232.294 C 323.092 232.725,319.345 234.494,317.465 236.015 C 314.894 238.096,312.896 240.573,311.853 242.974 C 311.520 243.740,311.116 244.602,310.954 244.890 C 309.576 247.350,309.665 254.902,311.114 258.436 C 313.251 263.647,319.612 269.859,322.812 269.859 C 323.063 269.859,323.388 269.968,323.535 270.101 C 324.853 271.293,332.126 271.175,335.915 269.901 C 338.365 269.077,342.577 266.479,341.463 266.479 C 341.060 266.479,339.415 264.867,338.590 263.662 C 338.218 263.120,337.821 262.610,337.707 262.529 C 337.593 262.449,337.366 262.069,337.201 261.684 C 337.037 261.300,336.794 260.796,336.662 260.563 C 336.086 259.555,335.515 258.096,335.338 257.183 C 335.232 256.641,335.002 256.019,334.827 255.802 C 334.268 255.111,334.410 247.642,335.001 246.620 C 335.270 246.155,335.490 245.442,335.491 245.034 C 335.492 244.627,335.683 244.137,335.915 243.944 C 336.148 243.751,336.338 243.422,336.338 243.214 C 336.338 242.180,339.752 237.459,340.986 236.786 C 341.296 236.617,341.605 236.444,341.673 236.402 C 341.895 236.264,338.220 233.888,337.042 233.408 C 334.576 232.402,328.044 231.779,325.352 232.294 M36.150 240.415 C 36.150 240.638,36.319 240.886,36.526 240.965 C 36.732 241.044,36.901 241.002,36.901 240.871 C 36.901 240.740,36.732 240.492,36.526 240.321 C 36.242 240.085,36.150 240.109,36.150 240.415 M106.084 280.519 C 105.986 280.677,106.044 280.891,106.211 280.995 C 106.644 281.262,106.924 280.896,106.562 280.534 C 106.360 280.332,106.202 280.327,106.084 280.519 " stroke="none" fill="#2b2b2b" fill-rule="evenodd"></path><path id="path1" d="M268.310 2.504 C 267.761 2.624,267.586 2.764,267.810 2.906 C 268.000 3.026,268.507 2.933,268.937 2.700 C 269.770 2.248,269.654 2.212,268.310 2.504 M258.988 4.549 C 258.740 4.950,259.315 5.011,259.825 4.638 C 260.323 4.274,260.319 4.258,259.730 4.302 C 259.390 4.328,259.056 4.439,258.988 4.549 M293.996 5.608 C 294.073 5.903,294.391 6.212,294.702 6.293 C 295.013 6.374,295.193 6.562,295.102 6.710 C 295.011 6.857,295.188 7.044,295.496 7.125 C 296.245 7.321,296.219 7.261,295.042 6.085 C 293.871 4.913,293.807 4.884,293.996 5.608 M251.056 6.384 C 250.863 6.462,250.704 6.642,250.704 6.784 C 250.704 7.193,251.445 7.084,251.831 6.620 C 252.201 6.174,251.844 6.066,251.056 6.384 M232.950 10.243 C 233.084 10.379,233.542 10.361,233.989 10.203 C 234.778 9.923,234.775 9.920,233.749 9.960 C 233.168 9.982,232.815 10.107,232.950 10.243 M297.667 10.791 C 297.736 11.149,298.035 11.594,298.332 11.780 C 298.974 12.180,299.053 11.769,298.451 11.167 C 298.218 10.935,298.028 10.609,298.028 10.443 C 298.028 10.277,297.919 10.141,297.786 10.141 C 297.652 10.141,297.599 10.434,297.667 10.791 M224.601 12.308 C 224.601 12.519,224.730 12.649,224.888 12.596 C 225.338 12.446,225.412 11.925,224.984 11.925 C 224.773 11.925,224.601 12.097,224.601 12.308 M219.837 12.996 C 219.610 13.358,220.725 13.405,221.395 13.062 C 222.058 12.722,222.043 12.710,221.018 12.763 C 220.431 12.792,219.899 12.898,219.837 12.996 M216.338 13.803 C 215.996 14.024,216.037 14.077,216.549 14.080 C 216.898 14.083,217.183 13.958,217.183 13.803 C 217.183 13.450,216.884 13.450,216.338 13.803 M299.838 17.942 C 299.877 18.205,300.087 18.468,300.306 18.527 C 300.617 18.611,300.612 18.569,300.282 18.336 C 299.971 18.116,299.957 18.036,300.228 18.032 C 300.431 18.030,300.518 17.901,300.423 17.746 C 300.143 17.294,299.762 17.422,299.838 17.942 M189.962 19.498 C 189.796 19.767,190.325 19.740,191.268 19.432 C 191.909 19.222,191.888 19.205,191.035 19.240 C 190.520 19.261,190.037 19.377,189.962 19.498 M180.895 21.489 C 180.665 21.766,180.756 21.865,181.283 21.909 C 181.731 21.946,181.972 21.819,181.972 21.546 C 181.972 21.031,181.304 20.996,180.895 21.489 M298.251 21.588 C 297.895 21.944,297.306 22.038,295.673 22.000 C 294.016 21.962,293.325 22.076,292.487 22.525 C 291.837 22.874,290.887 23.099,290.066 23.099 C 289.125 23.099,288.666 23.227,288.553 23.521 C 288.429 23.843,287.903 23.944,286.338 23.944 C 284.774 23.944,284.247 24.044,284.123 24.366 C 284.003 24.680,283.503 24.789,282.175 24.789 C 281.041 24.789,280.190 24.940,279.843 25.202 C 279.542 25.430,278.704 25.620,277.981 25.625 C 276.395 25.636,275.775 25.845,275.775 26.368 C 275.775 26.671,275.258 26.761,273.512 26.761 C 271.761 26.761,271.213 26.856,271.088 27.183 C 270.968 27.496,270.472 27.606,269.179 27.606 C 268.079 27.606,267.229 27.759,266.885 28.019 C 266.570 28.257,265.710 28.437,264.859 28.442 C 263.764 28.448,263.234 28.597,262.817 29.014 C 262.360 29.471,261.878 29.577,260.273 29.577 C 258.772 29.577,258.253 29.680,258.130 30.000 C 258.010 30.313,257.512 30.423,256.202 30.423 C 255.038 30.423,254.324 30.556,254.110 30.814 C 253.909 31.056,253.032 31.248,251.806 31.317 C 250.493 31.391,249.742 31.564,249.577 31.831 C 249.412 32.099,248.657 32.271,247.319 32.347 C 245.951 32.424,245.261 32.585,245.160 32.850 C 245.054 33.126,244.481 33.239,243.200 33.239 C 241.852 33.239,241.349 33.347,241.229 33.662 C 241.106 33.980,240.593 34.085,239.145 34.085 C 237.740 34.085,237.099 34.209,236.762 34.546 C 236.458 34.850,235.626 35.056,234.323 35.149 C 233.023 35.242,232.296 35.421,232.199 35.673 C 232.097 35.941,231.508 36.056,230.243 36.056 C 228.894 36.056,228.392 36.164,228.271 36.479 C 228.150 36.794,227.649 36.901,226.307 36.901 C 225.043 36.901,224.191 37.070,223.454 37.465 C 222.835 37.796,221.865 38.028,221.095 38.028 C 220.276 38.028,219.656 38.186,219.437 38.451 C 219.188 38.750,218.530 38.873,217.179 38.873 C 215.743 38.873,215.231 38.978,215.109 39.296 C 214.989 39.610,214.489 39.718,213.161 39.718 C 212.027 39.718,211.176 39.869,210.828 40.132 C 210.514 40.370,209.654 40.549,208.803 40.554 C 207.708 40.561,207.178 40.710,206.761 41.127 C 206.304 41.583,205.822 41.690,204.217 41.690 C 202.716 41.690,202.197 41.793,202.074 42.113 C 201.954 42.425,201.458 42.535,200.165 42.535 C 199.065 42.535,198.215 42.688,197.871 42.949 C 197.563 43.181,196.704 43.366,195.908 43.371 C 195.059 43.377,194.225 43.567,193.826 43.847 C 193.421 44.130,192.430 44.353,191.298 44.414 C 190.075 44.480,189.329 44.658,189.124 44.933 C 188.907 45.224,188.286 45.352,187.102 45.352 C 185.958 45.352,185.253 45.492,184.970 45.775 C 184.705 46.039,184.013 46.197,183.118 46.197 C 182.226 46.197,181.292 46.409,180.637 46.761 C 179.942 47.133,179.048 47.324,177.996 47.324 C 176.927 47.324,176.292 47.462,176.056 47.746 C 175.817 48.035,175.177 48.169,174.041 48.169 C 172.821 48.169,172.333 48.282,172.215 48.592 C 172.092 48.910,171.579 49.014,170.131 49.014 C 168.726 49.014,168.085 49.138,167.748 49.476 C 167.445 49.778,166.616 49.985,165.337 50.077 C 164.186 50.159,163.256 50.374,163.067 50.601 C 162.863 50.847,162.147 50.986,161.083 50.986 C 159.864 50.986,159.376 51.099,159.257 51.408 C 159.136 51.723,158.635 51.831,157.293 51.831 C 156.029 51.831,155.177 51.999,154.440 52.394 C 153.768 52.755,152.850 52.958,151.897 52.958 C 150.830 52.958,150.359 53.078,150.243 53.380 C 150.121 53.698,149.608 53.803,148.169 53.803 C 146.730 53.803,146.217 53.907,146.095 54.225 C 145.975 54.539,145.475 54.648,144.147 54.648 C 143.013 54.648,142.162 54.799,141.814 55.061 C 141.500 55.300,140.640 55.479,139.789 55.484 C 138.694 55.491,138.164 55.639,137.746 56.056 C 137.290 56.513,136.808 56.620,135.202 56.620 C 133.702 56.620,133.182 56.722,133.060 57.042 C 132.938 57.360,132.426 57.465,130.990 57.465 C 129.639 57.465,128.981 57.588,128.732 57.887 C 128.501 58.166,127.872 58.310,126.887 58.310 C 125.923 58.310,125.240 58.462,124.963 58.740 C 124.684 59.018,123.815 59.210,122.487 59.286 C 121.061 59.367,120.343 59.535,120.119 59.842 C 119.890 60.155,119.315 60.282,118.121 60.282 C 117.084 60.282,116.237 60.439,115.899 60.695 C 115.598 60.923,114.750 61.113,114.013 61.118 C 113.228 61.123,112.239 61.360,111.623 61.690 C 110.898 62.079,110.034 62.254,108.837 62.254 C 107.555 62.254,107.060 62.364,106.940 62.676 C 106.822 62.986,106.333 63.099,105.114 63.099 C 103.978 63.099,103.338 63.233,103.099 63.521 C 102.855 63.815,102.207 63.944,100.972 63.944 C 99.687 63.944,99.065 64.074,98.724 64.414 C 98.408 64.731,97.553 64.943,96.118 65.060 C 94.838 65.165,93.937 65.371,93.869 65.575 C 93.798 65.790,93.140 65.915,92.080 65.915 C 90.851 65.915,90.362 66.028,90.243 66.338 C 90.121 66.655,89.612 66.761,88.202 66.761 C 87.069 66.761,86.102 66.914,85.767 67.146 C 85.461 67.359,84.424 67.588,83.461 67.657 C 82.360 67.735,81.516 67.957,81.186 68.257 C 80.362 69.002,78.965 68.852,77.746 67.887 C 77.160 67.423,76.566 67.042,76.428 67.042 C 76.289 67.042,75.737 66.667,75.201 66.209 C 74.664 65.750,74.085 65.370,73.914 65.364 C 73.742 65.357,73.021 64.908,72.311 64.366 C 71.601 63.824,70.949 63.380,70.863 63.380 C 70.776 63.380,70.088 62.937,69.333 62.394 C 68.578 61.852,67.831 61.408,67.673 61.408 C 67.514 61.408,67.311 61.218,67.222 60.986 C 67.133 60.754,66.875 60.563,66.649 60.563 C 66.422 60.563,66.066 60.405,65.858 60.211 C 65.289 59.684,63.709 58.592,63.516 58.592 C 63.423 58.592,62.765 58.148,62.055 57.606 C 61.345 57.063,60.606 56.620,60.412 56.620 C 60.219 56.620,59.987 56.430,59.898 56.197 C 59.809 55.965,59.542 55.775,59.305 55.775 C 59.067 55.775,58.873 55.667,58.873 55.536 C 58.873 55.246,57.079 54.457,55.915 54.236 C 55.451 54.147,54.310 54.278,53.380 54.527 C 52.451 54.775,51.056 55.081,50.282 55.206 C 49.507 55.330,47.669 55.716,46.197 56.062 C 43.713 56.647,42.332 56.944,38.310 57.758 C 37.458 57.931,36.116 58.252,35.327 58.472 C 34.539 58.693,33.565 58.873,33.163 58.873 C 32.760 58.873,32.074 59.009,31.638 59.175 C 31.202 59.341,29.894 59.663,28.732 59.890 C 24.574 60.703,22.659 61.097,21.549 61.371 C 18.970 62.007,16.450 62.540,16.033 62.538 C 12.507 62.519,2.535 68.634,2.535 70.814 C 2.535 71.414,1.954 71.693,1.663 71.233 C 1.515 71.000,1.415 72.256,1.413 74.380 C 1.410 76.813,1.299 78.034,1.056 78.295 C 0.770 78.603,0.783 78.630,1.127 78.438 C 1.502 78.228,1.502 78.260,1.127 78.724 C 0.805 79.122,0.788 79.275,1.056 79.365 C 1.250 79.430,1.409 79.822,1.410 80.235 C 1.411 80.648,1.591 81.330,1.810 81.750 C 2.030 82.170,2.241 83.057,2.281 83.722 C 2.320 84.386,2.473 85.088,2.619 85.282 C 2.766 85.475,2.775 85.636,2.640 85.638 C 2.505 85.640,2.563 85.750,2.770 85.881 C 2.992 86.021,3.915 85.911,5.024 85.611 C 6.056 85.331,8.169 84.835,9.718 84.508 C 11.268 84.181,13.106 83.778,13.803 83.614 C 15.585 83.193,18.368 82.610,20.845 82.138 C 22.007 81.917,23.315 81.599,23.751 81.431 C 24.187 81.264,24.873 81.127,25.275 81.127 C 25.678 81.127,26.652 80.946,27.440 80.726 C 28.228 80.506,29.570 80.184,30.423 80.012 C 31.275 79.839,32.859 79.505,33.944 79.270 C 35.028 79.035,36.803 78.667,37.887 78.452 C 38.972 78.237,40.366 77.935,40.986 77.781 C 41.606 77.626,43.127 77.290,44.366 77.034 C 45.606 76.778,47.638 76.327,48.882 76.031 C 50.127 75.735,51.371 75.493,51.646 75.493 C 51.922 75.493,52.742 75.318,53.468 75.103 C 54.194 74.889,55.549 74.562,56.479 74.376 C 59.246 73.822,61.709 73.301,63.803 72.827 C 64.887 72.581,66.768 72.194,67.981 71.967 C 69.195 71.740,70.296 71.487,70.428 71.405 C 70.560 71.323,71.596 71.076,72.729 70.857 C 73.862 70.637,75.739 70.258,76.901 70.015 C 79.145 69.546,81.846 69.010,85.440 68.321 C 86.651 68.088,87.752 67.830,87.887 67.746 C 88.023 67.663,89.124 67.405,90.334 67.174 C 91.545 66.943,93.391 66.565,94.437 66.335 C 95.482 66.104,97.194 65.735,98.239 65.513 C 99.285 65.292,101.345 64.841,102.817 64.511 C 104.289 64.181,106.380 63.740,107.465 63.530 C 108.549 63.320,109.944 63.022,110.563 62.866 C 111.183 62.711,112.704 62.375,113.944 62.119 C 115.183 61.864,116.704 61.529,117.324 61.374 C 117.944 61.220,119.338 60.915,120.423 60.697 C 123.671 60.046,128.379 59.033,130.423 58.547 C 131.120 58.381,132.546 58.069,133.592 57.855 C 137.772 56.997,139.409 56.645,141.972 56.050 C 143.444 55.708,145.218 55.339,145.915 55.230 C 147.238 55.022,150.797 54.211,152.254 53.785 C 152.718 53.649,153.950 53.417,154.990 53.270 C 156.031 53.123,157.031 52.911,157.214 52.798 C 157.396 52.685,158.383 52.431,159.406 52.232 C 162.528 51.626,167.608 50.557,169.577 50.093 C 171.589 49.618,174.342 49.025,176.479 48.606 C 177.563 48.393,178.958 48.092,179.577 47.937 C 180.197 47.781,181.718 47.445,182.958 47.190 C 184.197 46.934,185.718 46.599,186.338 46.445 C 186.958 46.290,188.352 45.986,189.437 45.768 C 190.521 45.550,192.296 45.180,193.380 44.946 C 194.465 44.712,196.049 44.379,196.901 44.207 C 197.754 44.035,199.148 43.727,200.000 43.521 C 200.852 43.316,202.183 43.020,202.958 42.863 C 203.732 42.707,205.000 42.441,205.775 42.271 C 206.549 42.102,208.134 41.764,209.296 41.522 C 210.458 41.279,212.053 40.901,212.842 40.681 C 213.630 40.461,214.513 40.282,214.804 40.282 C 215.096 40.282,216.352 40.040,217.597 39.744 C 218.841 39.448,220.873 38.996,222.113 38.740 C 223.352 38.484,224.873 38.150,225.493 37.998 C 226.113 37.846,227.570 37.527,228.732 37.290 C 229.894 37.053,231.669 36.683,232.676 36.468 C 233.683 36.253,235.204 35.936,236.056 35.763 C 236.908 35.591,238.251 35.269,239.039 35.049 C 239.827 34.828,240.801 34.648,241.204 34.648 C 241.606 34.648,242.292 34.511,242.728 34.343 C 243.164 34.175,244.408 33.868,245.493 33.661 C 246.577 33.454,248.669 33.010,250.141 32.674 C 251.613 32.338,253.475 31.959,254.280 31.833 C 255.084 31.706,255.875 31.521,256.036 31.421 C 256.197 31.322,257.313 31.048,258.516 30.813 C 259.720 30.579,261.592 30.214,262.676 30.002 C 263.761 29.791,265.005 29.482,265.441 29.316 C 265.877 29.150,266.563 29.014,266.965 29.014 C 267.368 29.014,268.342 28.834,269.130 28.613 C 269.918 28.393,271.261 28.069,272.113 27.893 C 272.965 27.718,274.486 27.402,275.493 27.191 C 276.500 26.980,278.085 26.660,279.014 26.479 C 279.944 26.298,281.275 25.970,281.972 25.750 C 282.669 25.530,283.548 25.350,283.925 25.351 C 284.302 25.351,285.316 25.171,286.179 24.949 C 287.041 24.727,289.014 24.276,290.563 23.947 C 292.113 23.619,293.951 23.210,294.648 23.039 C 295.345 22.868,296.232 22.745,296.620 22.764 C 297.681 22.819,300.558 21.881,300.561 21.479 C 300.565 20.959,298.797 21.043,298.251 21.588 M172.733 23.057 C 172.439 23.244,172.448 23.356,172.778 23.630 C 173.098 23.896,173.236 23.896,173.399 23.632 C 173.541 23.402,173.489 23.367,173.235 23.524 C 172.964 23.691,172.911 23.626,173.042 23.286 C 173.247 22.751,173.233 22.741,172.733 23.057 M163.328 25.103 C 162.684 25.501,163.336 25.704,164.243 25.388 C 164.734 25.217,165.239 25.141,165.365 25.219 C 165.491 25.297,165.658 25.260,165.735 25.135 C 165.915 24.843,163.795 24.814,163.328 25.103 M151.549 27.904 C 151.549 28.068,151.403 28.112,151.224 28.001 C 151.027 27.880,150.975 27.924,151.092 28.113 C 151.199 28.285,151.472 28.355,151.699 28.267 C 152.166 28.088,152.262 27.606,151.831 27.606 C 151.676 27.606,151.549 27.740,151.549 27.904 M147.465 28.666 C 147.310 28.780,147.150 29.035,147.110 29.234 C 147.047 29.543,147.738 29.241,148.709 28.536 C 148.773 28.489,148.583 28.453,148.286 28.455 C 147.989 28.457,147.620 28.552,147.465 28.666 M121.408 34.383 C 121.408 34.547,121.262 34.591,121.083 34.480 C 120.882 34.356,120.834 34.403,120.959 34.604 C 121.237 35.054,121.599 35.011,121.792 34.507 C 121.881 34.275,121.831 34.085,121.681 34.085 C 121.531 34.085,121.408 34.219,121.408 34.383 M116.509 35.445 C 116.337 35.722,117.366 35.686,117.647 35.405 C 117.753 35.298,117.573 35.211,117.247 35.211 C 116.920 35.211,116.588 35.316,116.509 35.445 M91.479 40.777 C 91.208 40.837,90.986 41.004,90.986 41.147 C 90.986 41.477,91.291 41.474,91.823 41.138 C 92.329 40.818,92.148 40.628,91.479 40.777 M87.183 41.690 C 87.084 41.850,86.906 41.921,86.788 41.848 C 86.670 41.775,86.573 41.899,86.573 42.125 C 86.573 42.635,86.788 42.642,87.454 42.156 C 87.789 41.911,87.865 41.709,87.668 41.588 C 87.500 41.484,87.282 41.530,87.183 41.690 M47.534 51.511 C 47.410 51.984,47.159 52.023,44.966 51.910 C 42.900 51.803,42.559 51.847,42.695 52.201 C 42.879 52.681,42.396 53.079,41.958 52.808 C 41.761 52.686,41.756 52.514,41.944 52.287 C 42.146 52.044,42.066 51.937,41.662 51.906 C 41.240 51.875,41.140 51.991,41.261 52.373 C 41.387 52.772,41.284 52.867,40.782 52.815 C 39.828 52.715,39.813 52.693,40.406 52.245 C 40.883 51.884,40.892 51.831,40.476 51.831 C 40.214 51.831,40.000 51.963,40.000 52.125 C 40.000 52.287,39.793 52.382,39.540 52.336 C 39.239 52.282,39.042 52.491,38.970 52.941 C 38.828 53.833,38.658 53.982,38.249 53.573 C 37.844 53.168,37.363 53.129,37.606 53.521 C 37.714 53.697,37.139 53.803,36.073 53.803 C 34.531 53.803,34.366 53.860,34.366 54.390 C 34.366 55.158,33.691 54.940,33.572 54.133 C 33.517 53.760,33.280 53.521,32.965 53.521 C 32.586 53.521,32.487 53.672,32.594 54.085 C 32.747 54.668,32.622 54.710,30.635 54.734 C 30.209 54.740,29.922 54.805,29.997 54.879 C 30.384 55.266,29.035 55.673,27.569 55.611 C 25.924 55.542,25.728 55.666,25.879 56.680 C 25.895 56.791,25.720 56.809,25.490 56.720 C 25.259 56.632,25.070 56.319,25.070 56.026 C 25.070 55.654,24.879 55.500,24.437 55.515 C 24.088 55.527,23.954 55.599,24.139 55.674 C 24.822 55.952,24.159 56.620,23.200 56.620 C 22.463 56.620,22.175 56.470,21.981 55.986 L 21.726 55.352 21.708 55.986 C 21.681 56.946,21.664 57.016,21.364 57.378 C 20.980 57.840,20.302 57.527,20.415 56.939 C 20.475 56.626,20.326 56.459,19.988 56.459 C 19.605 56.459,19.545 56.551,19.759 56.809 C 19.976 57.071,19.848 57.203,19.250 57.329 C 18.810 57.423,18.216 57.627,17.928 57.784 C 17.562 57.984,17.462 57.979,17.593 57.767 C 17.707 57.582,17.503 57.465,17.068 57.465 C 16.551 57.465,16.400 57.580,16.518 57.887 C 16.674 58.295,15.810 58.481,14.314 58.361 C 14.003 58.336,13.853 58.516,13.881 58.880 C 13.907 59.228,14.138 59.447,14.497 59.465 C 15.820 59.531,17.054 59.363,17.221 59.093 C 17.319 58.935,18.363 58.710,19.541 58.595 C 20.719 58.480,21.868 58.231,22.095 58.043 C 22.322 57.854,23.212 57.639,24.073 57.565 C 24.934 57.490,25.986 57.248,26.411 57.026 C 26.835 56.805,27.898 56.622,28.773 56.621 C 29.925 56.620,30.407 56.503,30.524 56.197 C 30.641 55.894,31.116 55.775,32.212 55.775 C 33.052 55.775,34.101 55.585,34.545 55.354 C 34.989 55.122,35.955 54.932,36.691 54.931 C 37.489 54.930,38.455 54.702,39.081 54.366 C 39.721 54.023,40.686 53.799,41.545 53.794 C 42.338 53.789,43.198 53.603,43.505 53.371 C 43.840 53.117,44.686 52.958,45.696 52.958 C 46.796 52.958,47.389 52.835,47.484 52.587 C 47.569 52.366,48.162 52.194,48.954 52.160 C 51.303 52.058,51.959 51.848,51.356 51.391 C 50.535 50.769,47.705 50.858,47.534 51.511 M22.449 55.673 C 22.224 55.898,22.478 56.338,22.834 56.338 C 22.979 56.338,23.099 56.148,23.099 55.915 C 23.099 55.480,22.766 55.356,22.449 55.673 M18.009 56.631 C 17.775 56.776,17.772 56.884,17.998 57.024 C 18.170 57.130,18.310 57.075,18.310 56.901 C 18.310 56.728,18.428 56.659,18.572 56.749 C 18.716 56.838,18.901 56.803,18.982 56.671 C 19.161 56.382,18.460 56.353,18.009 56.631 M10.938 59.065 C 10.459 59.575,10.394 59.802,10.652 60.060 C 10.910 60.318,10.986 60.317,10.986 60.056 C 10.986 59.870,11.120 59.718,11.284 59.718 C 11.448 59.718,11.504 59.845,11.408 60.000 C 11.307 60.164,11.588 60.282,12.079 60.282 C 12.544 60.282,13.003 60.155,13.099 60.000 C 13.194 59.845,13.075 59.718,12.834 59.718 C 12.592 59.718,12.394 59.584,12.394 59.420 C 12.394 59.256,12.268 59.200,12.113 59.296 C 11.742 59.525,11.749 59.068,12.122 58.695 C 12.322 58.495,12.280 58.404,11.986 58.404 C 11.751 58.404,11.280 58.701,10.938 59.065 M9.859 59.718 C 9.859 60.094,9.671 60.282,9.296 60.282 C 8.986 60.282,8.637 60.289,8.521 60.298 C 8.405 60.308,8.214 60.575,8.097 60.891 C 7.960 61.260,7.727 61.407,7.448 61.300 C 7.209 61.208,7.082 61.244,7.165 61.380 C 7.371 61.712,6.629 62.304,6.338 62.040 C 6.211 61.925,6.188 62.057,6.288 62.333 C 6.417 62.693,6.269 62.925,5.761 63.156 C 5.248 63.390,5.153 63.541,5.415 63.707 C 5.954 64.049,6.197 63.991,6.197 63.521 C 6.197 63.289,6.387 63.099,6.620 63.099 C 6.852 63.099,7.042 62.897,7.042 62.650 C 7.042 62.403,7.287 62.137,7.586 62.059 C 7.885 61.980,8.201 61.731,8.288 61.504 C 8.375 61.277,8.574 61.170,8.730 61.266 C 8.886 61.363,9.014 61.316,9.014 61.162 C 9.014 61.009,9.254 60.807,9.546 60.714 C 10.073 60.547,10.569 59.155,10.102 59.155 C 9.968 59.155,9.859 59.408,9.859 59.718 M4.921 64.170 C 4.771 64.278,4.608 64.556,4.559 64.789 C 4.487 65.127,4.568 65.115,4.965 64.725 C 5.463 64.235,5.430 63.806,4.921 64.170 M308.873 68.653 C 308.099 68.709,306.831 68.990,306.056 69.279 C 305.282 69.567,303.887 69.953,302.958 70.136 C 300.348 70.651,297.746 71.193,296.197 71.545 C 295.423 71.721,293.838 72.061,292.676 72.300 C 291.514 72.538,290.056 72.857,289.437 73.008 C 288.817 73.158,287.699 73.393,286.952 73.528 C 286.206 73.664,284.685 73.981,283.572 74.233 C 280.570 74.913,278.417 75.388,276.056 75.892 C 274.894 76.140,272.849 76.595,271.511 76.904 C 270.173 77.212,268.866 77.465,268.606 77.465 C 268.346 77.465,267.540 77.640,266.813 77.854 C 266.087 78.069,264.732 78.396,263.803 78.582 C 261.539 79.035,258.722 79.627,256.408 80.138 C 255.363 80.368,253.517 80.746,252.306 80.977 C 251.096 81.208,249.994 81.466,249.859 81.549 C 249.627 81.693,247.154 82.202,243.662 82.826 C 242.810 82.978,241.796 83.260,241.408 83.453 C 240.856 83.727,226.788 83.835,176.197 83.953 L 111.690 84.104 109.718 84.696 C 104.583 86.239,100.441 89.517,98.570 93.521 C 96.718 97.484,96.349 99.912,96.343 108.194 L 96.338 114.557 95.563 114.916 C 95.137 115.113,93.901 115.439,92.817 115.641 C 91.732 115.842,89.641 116.283,88.169 116.621 C 86.697 116.958,84.669 117.402,83.662 117.608 C 82.655 117.814,81.197 118.121,80.423 118.291 C 79.648 118.461,78.063 118.801,76.901 119.047 C 75.739 119.293,74.282 119.616,73.662 119.765 C 72.423 120.062,69.669 120.643,66.620 121.248 C 65.535 121.464,64.141 121.765,63.521 121.918 C 62.901 122.071,61.380 122.410,60.141 122.671 C 58.901 122.933,57.380 123.272,56.761 123.425 C 56.141 123.578,54.746 123.873,53.662 124.080 C 52.577 124.287,51.183 124.584,50.563 124.739 C 49.944 124.895,48.423 125.236,47.183 125.498 C 45.944 125.759,44.423 126.094,43.803 126.243 C 43.183 126.391,41.725 126.707,40.563 126.945 C 35.865 127.907,34.740 128.145,33.662 128.404 C 33.042 128.553,31.521 128.890,30.282 129.153 C 29.042 129.417,26.951 129.865,25.634 130.148 C 24.317 130.432,22.225 130.881,20.986 131.145 C 19.746 131.409,18.099 131.789,17.324 131.989 C 15.766 132.392,13.217 132.819,12.887 132.732 C 12.551 132.643,12.640 132.882,13.127 133.368 C 13.492 133.733,13.510 133.899,13.225 134.243 C 12.963 134.558,12.951 134.828,13.177 135.291 C 13.344 135.635,13.560 136.398,13.657 136.987 C 13.754 137.576,13.985 138.117,14.170 138.190 C 14.388 138.276,14.528 139.178,14.567 140.747 C 14.609 142.466,14.753 143.311,15.060 143.650 C 15.298 143.913,15.493 144.503,15.493 144.960 C 15.493 145.416,15.665 146.040,15.876 146.346 C 16.087 146.652,16.333 148.026,16.425 149.411 C 16.516 150.791,16.730 152.007,16.900 152.112 C 17.069 152.216,17.281 153.242,17.370 154.391 C 17.465 155.616,17.687 156.604,17.908 156.782 C 18.115 156.949,18.331 157.543,18.388 158.102 C 18.446 158.661,18.624 159.285,18.786 159.489 C 18.947 159.693,19.154 160.981,19.246 162.351 C 19.338 163.722,19.551 165.009,19.719 165.212 C 19.887 165.414,20.071 166.060,20.128 166.648 C 20.184 167.236,20.410 167.850,20.629 168.013 C 20.896 168.212,21.044 168.959,21.077 170.282 C 21.109 171.548,21.262 172.354,21.503 172.535 C 21.744 172.716,21.948 173.780,22.068 175.493 C 22.172 176.965,22.383 178.211,22.537 178.263 C 22.691 178.315,22.817 178.720,22.817 179.164 C 22.817 179.609,23.001 180.075,23.227 180.201 C 23.513 180.362,23.681 181.139,23.784 182.793 C 23.876 184.250,24.086 185.327,24.334 185.605 C 24.703 186.020,25.050 188.266,25.053 190.260 C 25.054 190.713,25.170 191.157,25.311 191.246 C 25.453 191.335,25.632 191.962,25.709 192.639 C 25.786 193.316,25.992 193.958,26.166 194.065 C 26.340 194.173,26.532 195.077,26.594 196.074 C 26.655 197.071,26.733 197.919,26.768 197.958 C 26.803 197.996,26.847 198.160,26.866 198.320 C 26.886 198.481,27.052 198.705,27.236 198.819 C 27.421 198.933,27.601 199.745,27.636 200.624 C 27.673 201.541,27.825 202.199,27.993 202.167 C 28.421 202.087,28.405 202.886,27.969 203.410 C 27.651 203.791,27.660 203.919,28.021 204.219 C 28.257 204.416,28.451 204.890,28.451 205.274 C 28.451 205.657,28.629 206.371,28.847 206.859 C 29.245 207.752,29.651 210.260,29.602 211.526 C 29.588 211.901,29.775 212.427,30.017 212.695 C 30.260 212.963,30.467 213.608,30.478 214.127 C 30.488 214.646,30.633 215.242,30.799 215.451 C 31.221 215.981,31.273 216.583,30.917 216.803 C 30.728 216.920,30.701 216.853,30.845 216.620 C 30.993 216.381,30.963 216.319,30.760 216.444 C 30.434 216.646,30.607 217.465,30.976 217.465 C 31.092 217.465,31.269 218.250,31.370 219.210 C 31.470 220.169,31.666 221.025,31.805 221.111 C 31.944 221.197,32.141 222.218,32.243 223.380 C 32.359 224.698,32.581 225.611,32.834 225.806 C 33.057 225.978,33.239 226.571,33.239 227.124 C 33.239 227.676,33.430 228.319,33.662 228.551 C 33.951 228.840,34.085 229.553,34.085 230.805 C 34.085 231.967,34.223 232.775,34.465 233.017 C 34.675 233.226,34.919 234.281,35.008 235.361 C 35.097 236.440,35.369 237.717,35.613 238.197 C 35.856 238.678,36.083 239.398,36.116 239.797 C 36.149 240.197,36.307 240.501,36.468 240.473 C 36.629 240.445,36.800 240.905,36.849 241.495 C 36.899 242.099,37.114 242.634,37.342 242.722 C 37.564 242.807,37.746 243.045,37.746 243.250 C 37.746 243.820,38.968 245.608,39.366 245.622 C 39.560 245.628,39.718 245.887,39.718 246.197 C 39.718 246.507,39.813 246.746,39.930 246.727 C 40.413 246.651,40.840 246.775,40.775 246.972 C 40.667 247.296,41.919 248.451,42.378 248.451 C 42.601 248.451,42.874 248.597,42.985 248.776 C 43.109 248.977,43.062 249.025,42.860 248.900 C 42.682 248.790,42.535 248.768,42.535 248.853 C 42.535 248.937,42.979 249.192,43.521 249.418 C 44.063 249.645,44.507 249.964,44.507 250.126 C 44.507 250.289,44.887 250.423,45.352 250.423 C 45.915 250.423,46.197 250.563,46.197 250.845 C 46.197 251.130,46.482 251.268,47.068 251.268 C 47.547 251.268,48.258 251.518,48.647 251.825 C 49.687 252.643,60.508 252.418,60.790 251.573 C 60.846 251.404,61.566 251.268,62.398 251.268 C 63.361 251.268,64.056 251.115,64.326 250.845 C 64.592 250.579,65.285 250.423,66.194 250.423 C 67.275 250.423,67.586 250.334,67.427 250.070 C 67.261 249.793,67.305 249.790,67.637 250.059 C 67.968 250.326,68.214 250.318,68.789 250.020 C 69.192 249.811,70.422 249.550,71.523 249.439 C 72.748 249.316,73.609 249.088,73.742 248.852 C 73.875 248.614,74.520 248.446,75.419 248.414 C 76.307 248.382,76.812 248.252,76.706 248.081 C 76.603 247.914,76.677 247.890,76.889 248.021 C 77.086 248.142,77.330 248.106,77.432 247.941 C 77.534 247.775,78.439 247.617,79.443 247.588 C 80.446 247.560,81.521 247.382,81.831 247.193 C 82.141 247.004,82.961 246.760,83.654 246.651 C 84.346 246.542,84.980 246.344,85.062 246.212 C 85.144 246.079,86.099 245.900,87.183 245.813 C 89.693 245.613,90.072 245.534,90.482 245.124 C 90.666 244.940,91.354 244.789,92.012 244.789 C 92.669 244.789,93.288 244.656,93.389 244.493 C 93.513 244.292,93.700 244.305,93.975 244.533 C 94.308 244.809,94.346 244.774,94.194 244.336 C 94.023 243.843,94.043 243.846,94.460 244.366 C 94.855 244.858,94.913 246.176,94.921 254.803 C 94.926 260.265,95.043 264.796,95.183 264.944 C 95.323 265.091,95.504 265.908,95.585 266.761 C 95.771 268.722,95.869 269.149,96.241 269.619 C 96.407 269.829,96.625 270.349,96.727 270.775 C 96.829 271.201,97.036 271.549,97.188 271.549 C 97.340 271.549,97.466 271.771,97.467 272.042 C 97.468 272.313,97.714 272.908,98.014 273.363 C 98.314 273.818,98.496 274.293,98.418 274.419 C 98.340 274.545,98.538 274.648,98.857 274.648 C 99.229 274.648,99.437 274.831,99.437 275.159 C 99.437 275.745,101.256 277.465,101.875 277.465 C 102.101 277.465,102.203 277.600,102.101 277.765 C 101.999 277.931,102.181 278.136,102.507 278.221 C 102.832 278.306,103.099 278.554,103.099 278.771 C 103.099 278.989,103.415 279.311,103.803 279.488 C 104.190 279.664,104.507 279.888,104.507 279.985 C 104.507 280.082,104.729 280.187,105.000 280.217 C 106.184 280.351,106.596 280.493,106.698 280.799 C 106.758 280.979,107.304 281.127,107.911 281.127 C 108.518 281.127,109.014 281.254,109.014 281.408 C 109.014 281.596,155.540 281.690,248.028 281.690 C 340.516 281.690,387.042 281.596,387.042 281.408 C 387.042 281.254,387.490 281.127,388.037 281.127 C 388.661 281.127,389.092 280.969,389.194 280.704 C 389.286 280.463,389.706 280.282,390.171 280.282 C 390.708 280.282,390.986 280.137,390.986 279.859 C 390.986 279.625,391.236 279.437,391.547 279.437 C 391.855 279.437,392.266 279.183,392.460 278.873 C 392.653 278.563,392.965 278.310,393.152 278.310 C 393.340 278.310,393.595 278.142,393.718 277.937 C 393.842 277.731,394.165 277.482,394.437 277.382 C 394.708 277.282,394.930 276.999,394.930 276.753 C 394.930 276.506,395.047 276.377,395.191 276.466 C 395.335 276.555,395.533 276.373,395.633 276.060 C 395.732 275.748,395.994 275.493,396.216 275.493 C 396.438 275.493,396.620 275.270,396.620 274.997 C 396.620 274.725,396.873 274.343,397.183 274.150 C 397.493 273.956,397.746 273.613,397.746 273.387 C 397.746 272.812,398.876 270.704,399.183 270.704 C 399.323 270.704,399.437 270.070,399.437 269.296 C 399.437 268.521,399.563 267.887,399.718 267.887 C 399.905 267.887,400.000 239.343,400.000 182.817 C 400.000 126.291,399.905 97.746,399.718 97.746 C 399.563 97.746,399.437 97.250,399.437 96.643 C 399.437 95.338,399.195 94.590,398.844 94.807 C 398.705 94.893,398.592 94.571,398.592 94.092 C 398.592 93.578,398.418 93.155,398.169 93.060 C 397.937 92.970,397.746 92.665,397.746 92.381 C 397.746 92.097,397.618 91.785,397.460 91.687 C 397.303 91.590,397.247 91.392,397.336 91.248 C 397.425 91.104,397.300 90.986,397.059 90.986 C 396.817 90.986,396.620 90.796,396.620 90.563 C 396.620 90.331,396.430 90.141,396.197 90.141 C 395.962 90.141,395.775 89.890,395.775 89.577 C 395.775 89.268,395.598 89.014,395.382 89.014 C 395.166 89.014,394.917 88.824,394.828 88.592 C 394.739 88.359,394.471 88.169,394.234 88.169 C 393.997 88.169,393.803 87.979,393.803 87.746 C 393.803 87.514,393.613 87.324,393.380 87.324 C 393.148 87.324,392.958 87.134,392.958 86.901 C 392.958 86.669,392.769 86.479,392.538 86.479 C 392.307 86.479,391.959 86.225,391.766 85.915 C 391.572 85.606,391.127 85.352,390.777 85.352 C 390.399 85.352,390.141 85.180,390.141 84.930 C 390.141 84.697,390.046 84.522,389.930 84.540 C 388.826 84.715,387.324 84.452,387.324 84.085 C 387.324 83.852,387.070 83.643,386.761 83.620 C 386.451 83.596,386.039 83.565,385.845 83.549 C 385.651 83.534,385.342 83.331,385.158 83.099 C 384.876 82.743,384.727 82.735,384.220 83.044 C 383.756 83.328,383.526 83.337,383.219 83.082 C 382.999 82.899,382.566 82.817,382.255 82.898 C 381.945 82.979,381.619 82.930,381.532 82.788 C 381.168 82.200,314.045 82.485,313.890 83.076 C 313.691 83.839,315.053 83.817,277.606 83.657 C 258.859 83.576,244.361 83.481,245.388 83.445 C 246.639 83.402,247.371 83.241,247.606 82.958 C 247.848 82.666,248.493 82.535,249.690 82.535 C 250.700 82.535,251.656 82.374,251.980 82.149 C 252.285 81.937,253.344 81.706,254.334 81.636 C 255.581 81.547,256.238 81.363,256.477 81.036 C 256.739 80.677,257.266 80.563,258.659 80.563 C 259.947 80.563,260.599 80.437,260.845 80.141 C 261.082 79.856,261.717 79.718,262.798 79.718 C 263.770 79.718,264.614 79.556,264.946 79.305 C 265.261 79.067,266.121 78.887,266.972 78.882 C 268.067 78.876,268.597 78.727,269.014 78.310 C 269.469 77.855,269.953 77.746,271.529 77.746 C 272.888 77.746,273.609 77.618,273.903 77.324 C 274.184 77.043,274.888 76.901,276.002 76.901 C 277.148 76.901,277.788 76.768,278.028 76.479 C 278.252 76.210,278.874 76.056,279.744 76.056 C 280.529 76.056,281.562 75.828,282.174 75.518 C 282.864 75.169,283.827 74.978,284.906 74.977 C 286.130 74.976,286.638 74.857,286.821 74.530 C 287.003 74.204,287.507 74.085,288.693 74.085 C 289.683 74.085,290.528 73.923,290.862 73.671 C 291.193 73.420,292.056 73.254,293.054 73.248 C 294.264 73.242,294.890 73.090,295.416 72.676 C 295.959 72.249,296.559 72.113,297.895 72.113 C 299.202 72.113,299.700 72.003,299.820 71.690 C 299.939 71.380,300.429 71.268,301.661 71.268 C 302.778 71.268,303.482 71.126,303.763 70.845 C 304.014 70.594,304.703 70.423,305.463 70.423 C 306.452 70.423,306.809 70.295,307.042 69.859 C 307.296 69.385,307.632 69.296,309.165 69.296 C 310.596 69.296,310.986 69.205,310.986 68.873 C 310.986 68.641,310.827 68.474,310.634 68.501 C 310.440 68.529,309.648 68.598,308.873 68.653 M96.459 132.555 C 97.007 133.104,97.144 178.657,96.602 180.212 C 96.247 181.229,94.575 181.962,92.118 182.178 C 91.268 182.252,90.321 182.490,90.013 182.706 C 89.697 182.927,88.769 183.099,87.887 183.099 C 86.932 183.099,86.081 183.268,85.701 183.534 C 85.359 183.773,84.412 184.038,83.596 184.121 C 82.780 184.205,81.635 184.453,81.051 184.672 C 80.467 184.891,79.412 185.070,78.707 185.070 C 77.943 185.070,77.254 185.241,77.002 185.493 C 76.736 185.759,76.040 185.916,75.121 185.917 C 74.318 185.918,73.331 186.091,72.927 186.302 C 72.523 186.513,71.479 186.775,70.607 186.884 C 69.735 186.993,68.655 187.265,68.207 187.488 C 67.665 187.759,66.425 187.900,64.504 187.911 L 61.615 187.928 60.526 186.865 C 59.742 186.099,59.434 185.561,59.427 184.943 C 59.422 184.471,59.173 183.577,58.873 182.958 C 58.572 182.334,58.321 181.202,58.310 180.423 C 58.300 179.648,58.106 178.768,57.878 178.467 C 57.645 178.159,57.461 177.299,57.456 176.495 C 57.451 175.692,57.267 174.832,57.033 174.524 C 56.784 174.194,56.620 173.351,56.620 172.403 C 56.620 171.533,56.448 170.581,56.235 170.274 C 56.024 169.968,55.757 168.958,55.643 168.028 C 55.528 167.099,55.258 165.996,55.041 165.578 C 54.825 165.159,54.648 164.254,54.648 163.567 C 54.648 162.880,54.459 161.955,54.227 161.511 C 53.988 161.052,53.806 159.958,53.805 158.974 C 53.803 157.775,53.685 157.198,53.419 157.096 C 53.190 157.008,52.960 156.287,52.849 155.306 C 52.746 154.402,52.480 153.155,52.258 152.535 C 52.037 151.915,51.850 150.817,51.843 150.094 C 51.836 149.302,51.691 148.733,51.479 148.662 C 50.676 148.395,50.838 143.496,51.684 142.492 C 52.732 141.245,54.136 140.563,55.653 140.563 C 56.372 140.563,57.113 140.392,57.330 140.175 C 57.543 139.962,58.580 139.696,59.634 139.584 C 60.687 139.472,61.694 139.263,61.872 139.117 C 62.049 138.972,62.873 138.783,63.703 138.696 C 64.532 138.609,65.611 138.360,66.099 138.142 C 66.587 137.925,67.681 137.746,68.529 137.746 C 69.557 137.746,70.189 137.605,70.423 137.324 C 70.650 137.049,71.279 136.901,72.218 136.900 C 73.012 136.899,74.042 136.699,74.507 136.456 C 74.972 136.213,75.986 135.950,76.761 135.870 C 77.535 135.791,78.647 135.547,79.231 135.328 C 79.815 135.109,80.909 134.930,81.661 134.930 C 82.534 134.930,83.157 134.777,83.380 134.507 C 83.608 134.232,84.237 134.084,85.175 134.083 C 85.970 134.082,87.000 133.881,87.465 133.636 C 87.930 133.391,89.007 133.118,89.859 133.029 C 90.711 132.940,91.789 132.703,92.254 132.501 C 93.463 131.977,95.911 132.008,96.459 132.555 M158.742 158.169 C 161.396 159.485,163.566 161.516,164.462 163.521 C 165.566 165.994,165.634 166.982,165.634 180.704 C 165.634 196.965,165.550 197.478,162.359 200.669 C 159.209 203.818,158.563 203.924,142.394 203.924 C 124.629 203.924,123.166 203.498,120.197 197.465 L 119.296 195.634 119.213 181.408 C 119.126 166.670,119.171 165.947,120.317 163.509 C 121.507 160.977,124.679 158.407,127.464 157.720 C 129.658 157.178,157.551 157.578,158.742 158.169 M335.211 232.788 C 336.063 233.059,336.951 233.395,337.183 233.537 C 337.415 233.679,337.986 233.972,338.451 234.189 C 338.915 234.405,339.856 234.965,340.541 235.433 C 341.771 236.272,342.269 236.309,343.099 235.620 C 348.720 230.948,360.416 231.057,366.087 235.833 C 368.360 237.747,368.822 238.211,369.939 239.696 C 379.650 252.615,370.565 270.986,354.465 270.986 C 351.859 270.986,347.181 269.920,346.175 269.096 C 345.930 268.896,345.611 268.732,345.464 268.732 C 345.318 268.732,344.525 268.289,343.701 267.746 C 342.160 266.732,341.567 266.558,341.272 267.035 C 340.654 268.034,335.774 270.143,332.836 270.680 C 330.031 271.193,324.352 270.839,323.535 270.101 C 323.388 269.968,323.063 269.859,322.812 269.859 C 319.612 269.859,313.251 263.647,311.114 258.436 C 309.665 254.902,309.576 247.350,310.954 244.890 C 311.116 244.602,311.520 243.740,311.853 242.974 C 312.896 240.573,314.894 238.096,317.465 236.015 C 319.345 234.494,323.092 232.725,325.352 232.294 C 327.037 231.972,333.688 232.305,335.211 232.788 M178.451 249.466 C 178.761 249.636,179.520 250.017,180.138 250.311 C 189.254 254.645,187.421 268.278,177.383 270.799 C 174.640 271.488,139.584 271.508,136.678 270.822 C 133.527 270.078,130.141 267.625,129.124 265.348 C 127.973 262.774,127.888 262.415,127.897 260.202 C 127.914 255.702,130.545 251.411,134.085 250.107 C 134.472 249.964,135.042 249.730,135.352 249.586 C 136.429 249.086,137.157 249.071,157.465 249.113 C 171.747 249.142,178.057 249.248,178.451 249.466 M248.769 249.612 C 259.447 253.308,258.742 267.881,247.746 270.744 C 244.866 271.495,209.798 271.541,206.842 270.799 C 195.446 267.936,195.281 252.035,206.620 249.277 C 209.016 248.695,246.989 248.997,248.769 249.612 " stroke="none" fill="#0c7dbe" fill-rule="evenodd"></path><path id="path2" d="M127.464 157.725 C 124.002 158.557,120.948 161.421,119.759 164.949 C 119.216 166.562,119.193 167.264,119.243 181.134 L 119.296 195.634 120.197 197.465 C 123.166 203.498,124.629 203.924,142.394 203.924 C 158.563 203.924,159.209 203.818,162.359 200.669 C 165.550 197.478,165.634 196.965,165.634 180.704 C 165.634 163.853,165.417 162.810,161.277 159.762 C 158.175 157.479,159.365 157.621,142.958 157.569 C 134.901 157.543,127.929 157.613,127.464 157.725 M350.845 232.278 C 348.106 232.936,344.482 234.488,343.148 235.575 C 342.942 235.742,342.250 236.141,341.610 236.461 C 339.912 237.309,336.338 241.887,336.338 243.214 C 336.338 243.422,336.148 243.751,335.915 243.944 C 335.683 244.137,335.492 244.627,335.491 245.034 C 335.490 245.442,335.270 246.155,335.001 246.620 C 334.410 247.642,334.268 255.111,334.827 255.802 C 335.002 256.019,335.232 256.641,335.338 257.183 C 335.515 258.096,336.086 259.555,336.662 260.563 C 336.794 260.796,337.037 261.300,337.201 261.684 C 337.366 262.069,337.593 262.449,337.707 262.529 C 337.821 262.610,338.218 263.120,338.590 263.662 C 339.482 264.964,340.986 266.396,341.698 266.622 C 342.013 266.722,342.929 267.238,343.734 267.768 C 344.539 268.298,345.318 268.732,345.464 268.732 C 345.611 268.732,345.930 268.896,346.175 269.096 C 347.181 269.920,351.859 270.986,354.465 270.986 C 370.565 270.986,379.650 252.615,369.939 239.696 C 368.822 238.211,368.360 237.747,366.087 235.833 C 362.858 233.114,355.000 231.281,350.845 232.278 " stroke="none" fill="#f09720" fill-rule="evenodd"></path><path id="path3" d="M1.673 69.329 C 1.418 69.804,1.445 70.016,1.803 70.375 C 2.216 70.787,2.254 70.737,2.254 69.779 C 2.254 68.583,2.125 68.483,1.673 69.329 M93.944 133.094 C 93.324 133.304,92.056 133.624,91.127 133.804 C 88.949 134.226,86.149 134.801,84.366 135.192 C 83.592 135.363,82.007 135.702,80.845 135.946 C 79.683 136.190,78.225 136.523,77.606 136.685 C 76.514 136.972,75.231 137.239,70.629 138.137 C 69.426 138.372,68.309 138.646,68.148 138.745 C 67.987 138.845,67.197 139.029,66.393 139.156 C 65.588 139.282,63.725 139.659,62.254 139.995 C 60.782 140.330,58.690 140.774,57.606 140.982 C 52.373 141.983,51.048 143.267,51.946 146.467 C 52.193 147.346,52.394 148.363,52.394 148.726 C 52.394 149.090,52.576 150.032,52.799 150.820 C 53.391 152.918,53.887 155.207,55.054 161.215 C 55.289 162.426,55.550 163.527,55.634 163.662 C 55.717 163.797,55.979 164.898,56.215 166.109 C 56.451 167.319,56.827 169.134,57.049 170.141 C 57.271 171.148,57.590 172.732,57.757 173.662 C 57.924 174.592,58.201 175.796,58.372 176.338 C 58.672 177.292,59.128 179.470,59.753 182.939 C 60.451 186.811,62.423 188.008,66.313 186.925 C 67.102 186.705,68.697 186.327,69.859 186.084 C 71.021 185.841,72.606 185.503,73.380 185.333 C 74.155 185.163,75.613 184.856,76.620 184.650 C 77.627 184.445,79.655 183.998,81.127 183.657 C 82.599 183.316,84.437 182.936,85.211 182.814 C 85.986 182.691,87.380 182.399,88.310 182.166 C 92.245 181.178,93.795 180.845,94.463 180.845 C 96.150 180.845,96.066 182.188,95.988 156.391 C 95.907 130.186,96.098 132.362,93.944 133.094 " stroke="none" fill="#f8fafb" fill-rule="evenodd"></path><path id="path4" d="M276.020 1.002 C 275.738 1.284,275.051 1.444,274.086 1.452 C 273.053 1.460,272.713 1.546,272.985 1.730 C 273.252 1.909,273.037 1.947,272.324 1.845 C 271.499 1.726,271.268 1.787,271.268 2.123 C 271.268 2.432,271.011 2.536,270.352 2.493 C 269.849 2.461,269.154 2.587,268.809 2.773 C 268.316 3.039,268.057 3.035,267.595 2.753 C 267.097 2.449,266.952 2.469,266.642 2.887 C 266.422 3.184,265.904 3.380,265.343 3.380 C 264.830 3.380,264.210 3.561,263.966 3.782 C 263.691 4.030,262.750 4.214,261.499 4.265 C 260.387 4.310,259.483 4.415,259.490 4.498 C 259.535 5.007,259.384 5.096,259.009 4.784 C 258.661 4.496,258.489 4.509,258.093 4.853 C 257.771 5.132,257.199 5.240,256.408 5.170 C 255.329 5.075,255.208 5.127,255.179 5.701 C 255.153 6.201,255.118 6.229,255.014 5.830 C 254.903 5.401,254.812 5.379,254.429 5.689 C 254.092 5.963,254.030 5.967,254.188 5.704 C 254.306 5.508,254.263 5.352,254.092 5.352 C 253.923 5.352,253.712 5.542,253.623 5.775 C 253.534 6.007,253.199 6.197,252.879 6.197 C 252.560 6.197,252.090 6.385,251.836 6.615 C 251.509 6.911,250.626 7.046,248.795 7.079 C 247.377 7.105,246.282 7.233,246.362 7.363 C 246.442 7.493,246.307 7.522,246.060 7.427 C 245.814 7.333,245.396 7.446,245.130 7.678 C 244.839 7.934,244.229 8.070,243.590 8.023 C 243.009 7.980,242.473 8.042,242.400 8.160 C 242.327 8.278,241.961 8.317,241.587 8.245 C 241.213 8.174,240.605 8.313,240.236 8.555 C 239.866 8.797,239.145 9.027,238.634 9.066 C 238.122 9.105,237.630 9.256,237.541 9.401 C 237.446 9.554,237.544 9.570,237.773 9.439 C 238.043 9.285,238.080 9.306,237.887 9.506 C 237.732 9.666,236.845 9.863,235.915 9.944 C 234.986 10.024,233.908 10.167,233.521 10.262 C 232.900 10.414,232.883 10.400,233.380 10.142 C 233.850 9.899,233.803 9.878,233.101 10.018 C 232.638 10.110,232.195 10.290,232.115 10.417 C 232.036 10.544,231.528 10.685,230.986 10.731 C 230.444 10.777,229.780 10.998,229.511 11.222 C 229.228 11.458,228.370 11.641,227.469 11.658 C 226.615 11.675,225.915 11.805,225.915 11.947 C 225.915 12.090,225.833 12.124,225.732 12.023 C 225.631 11.922,225.409 12.021,225.239 12.242 C 225.035 12.507,224.242 12.674,222.911 12.731 C 221.801 12.778,220.914 12.926,220.939 13.060 C 220.965 13.194,220.162 13.363,219.155 13.436 C 218.148 13.509,217.282 13.685,217.230 13.827 C 217.178 13.968,216.914 14.085,216.643 14.085 C 216.372 14.085,216.066 14.169,215.963 14.272 C 215.860 14.375,215.021 14.457,214.099 14.455 C 213.177 14.453,212.431 14.527,212.442 14.620 C 212.525 15.353,212.358 15.601,212.090 15.141 C 211.740 14.539,211.318 14.515,210.714 15.062 C 210.463 15.289,209.819 15.502,209.283 15.534 C 208.748 15.566,208.151 15.713,207.958 15.859 C 207.721 16.038,207.606 16.008,207.606 15.765 C 207.606 15.512,207.453 15.544,207.090 15.872 C 206.746 16.183,206.069 16.339,205.048 16.342 C 203.903 16.346,203.627 16.420,203.944 16.641 C 204.256 16.859,204.118 16.887,203.416 16.748 C 202.776 16.621,202.393 16.676,202.244 16.917 C 202.122 17.114,201.409 17.301,200.659 17.334 C 198.758 17.417,198.679 17.439,199.155 17.746 C 199.781 18.151,199.243 18.086,198.571 17.676 C 198.086 17.380,197.936 17.402,197.628 17.817 C 197.408 18.113,196.890 18.310,196.329 18.310 C 195.816 18.310,195.192 18.495,194.942 18.721 C 194.655 18.981,193.745 19.163,192.484 19.214 C 191.383 19.259,190.550 19.409,190.635 19.548 C 190.721 19.689,190.457 19.717,190.036 19.612 C 189.520 19.482,189.237 19.544,189.136 19.808 C 189.042 20.051,188.627 20.169,188.015 20.128 C 187.439 20.090,187.040 20.194,187.038 20.384 C 187.036 20.560,186.909 20.514,186.756 20.282 C 186.510 19.906,186.448 19.906,186.201 20.282 C 186.049 20.514,185.922 20.594,185.920 20.458 C 185.917 20.323,185.701 20.387,185.439 20.599 C 185.115 20.862,185.030 20.873,185.174 20.634 C 185.290 20.440,185.257 20.282,185.101 20.282 C 184.945 20.282,184.710 20.473,184.579 20.706 C 184.438 20.958,183.861 21.158,183.157 21.199 C 182.434 21.241,181.972 21.405,181.972 21.620 C 181.972 21.813,181.774 21.972,181.533 21.972 C 181.263 21.972,181.170 21.836,181.292 21.620 C 181.451 21.338,181.415 21.338,181.112 21.620 C 180.903 21.813,180.213 21.972,179.577 21.972 C 178.942 21.972,178.252 22.130,178.043 22.324 C 177.736 22.609,177.707 22.601,177.888 22.283 C 178.205 21.727,176.597 22.130,176.146 22.720 C 175.962 22.959,175.688 23.078,175.535 22.984 C 175.383 22.890,174.939 22.934,174.549 23.082 C 174.057 23.270,173.808 23.255,173.735 23.035 C 173.613 22.670,172.958 22.990,172.958 23.414 C 172.958 23.568,173.104 23.605,173.283 23.494 C 173.491 23.366,173.531 23.417,173.396 23.637 C 173.234 23.898,173.067 23.875,172.696 23.539 C 172.097 22.997,171.549 22.969,171.549 23.481 C 171.549 23.709,171.237 23.864,170.775 23.867 C 169.177 23.874,167.774 24.142,167.668 24.460 C 167.608 24.641,167.196 24.789,166.754 24.789 C 166.311 24.789,165.870 24.916,165.774 25.071 C 165.657 25.260,165.425 25.260,165.072 25.071 C 164.416 24.720,163.938 24.705,164.488 25.052 C 164.915 25.323,163.646 25.666,161.966 25.734 C 161.509 25.753,161.069 25.942,160.987 26.155 C 160.865 26.473,160.760 26.477,160.401 26.179 C 160.041 25.880,159.829 25.893,159.207 26.249 C 158.791 26.487,158.031 26.646,157.518 26.601 C 156.925 26.550,156.532 26.661,156.437 26.909 C 156.318 27.220,156.178 27.230,155.732 26.959 C 155.274 26.679,155.113 26.706,154.811 27.113 C 154.565 27.444,154.062 27.606,153.279 27.606 C 152.637 27.606,152.113 27.719,152.113 27.857 C 152.113 28.256,151.306 28.459,151.092 28.113 C 150.975 27.924,151.027 27.880,151.224 28.001 C 151.403 28.112,151.549 28.068,151.549 27.904 C 151.549 27.448,151.008 27.546,149.963 28.192 C 149.441 28.514,149.014 28.701,149.014 28.607 C 149.014 28.513,148.603 28.649,148.100 28.909 C 147.584 29.176,146.572 29.375,145.776 29.367 C 145.001 29.359,144.183 29.498,143.960 29.676 C 143.647 29.926,143.602 29.920,143.765 29.648 C 143.882 29.454,143.843 29.296,143.679 29.296 C 143.515 29.296,143.376 29.581,143.372 29.930 C 143.364 30.496,143.332 30.511,143.076 30.070 C 142.729 29.474,142.306 29.444,141.712 29.974 C 141.468 30.193,140.777 30.448,140.178 30.542 C 139.579 30.635,138.977 30.781,138.840 30.865 C 138.704 30.950,138.592 30.885,138.592 30.721 C 138.592 30.269,137.564 30.364,137.066 30.861 C 136.825 31.103,136.181 31.324,135.635 31.354 C 135.056 31.386,134.691 31.536,134.759 31.714 C 134.894 32.066,134.901 32.065,132.113 32.207 C 130.711 32.278,130.024 32.424,130.071 32.639 C 130.122 32.870,129.975 32.862,129.561 32.609 C 129.070 32.309,128.923 32.330,128.614 32.746 C 128.401 33.034,127.878 33.239,127.363 33.239 C 126.877 33.239,126.479 33.366,126.479 33.521 C 126.479 33.676,126.345 33.803,126.181 33.803 C 126.016 33.803,125.961 33.676,126.056 33.521 C 126.331 33.077,125.439 33.193,124.970 33.662 C 124.717 33.915,124.028 34.085,123.251 34.085 C 122.358 34.085,121.904 34.216,121.792 34.507 C 121.703 34.739,121.509 34.930,121.362 34.930 C 121.214 34.930,121.189 34.771,121.305 34.577 C 121.458 34.322,121.390 34.328,121.057 34.598 C 120.803 34.803,119.832 34.993,118.897 35.021 C 117.962 35.048,117.322 35.113,117.474 35.165 C 117.626 35.217,117.678 35.376,117.590 35.518 C 117.496 35.670,117.191 35.648,116.850 35.466 C 116.452 35.252,116.328 35.249,116.456 35.457 C 116.655 35.778,116.137 35.938,114.102 36.185 C 113.414 36.268,112.772 36.464,112.676 36.621 C 112.579 36.777,111.494 36.918,110.264 36.935 C 108.828 36.954,107.792 37.113,107.368 37.380 C 107.004 37.608,106.370 37.820,105.958 37.852 C 105.547 37.883,105.032 38.019,104.815 38.153 C 104.545 38.319,104.484 38.294,104.621 38.072 C 104.732 37.893,104.695 37.746,104.540 37.746 C 104.385 37.746,104.179 37.875,104.082 38.033 C 103.984 38.190,103.788 38.247,103.646 38.159 C 103.503 38.071,103.454 38.174,103.536 38.388 C 103.652 38.691,103.386 38.762,102.336 38.710 C 101.508 38.669,100.727 38.808,100.317 39.069 C 99.805 39.396,99.695 39.406,99.845 39.114 C 99.953 38.904,99.863 38.950,99.644 39.217 C 99.364 39.557,98.769 39.717,97.641 39.753 C 96.758 39.782,95.969 39.913,95.888 40.044 C 95.808 40.175,95.615 40.282,95.460 40.282 C 95.305 40.282,95.256 40.155,95.352 40.000 C 95.633 39.546,94.730 39.677,94.247 40.160 C 94.004 40.402,93.425 40.612,92.959 40.625 C 92.494 40.638,92.113 40.743,92.113 40.858 C 92.113 41.258,91.170 41.425,90.938 41.066 C 90.750 40.775,90.656 40.779,90.455 41.090 C 90.311 41.315,89.672 41.489,88.930 41.507 C 88.227 41.524,87.709 41.629,87.778 41.741 C 88.031 42.150,86.828 42.494,84.918 42.558 C 83.840 42.595,82.865 42.763,82.751 42.932 C 82.609 43.143,82.542 43.129,82.540 42.887 C 82.533 42.377,81.869 42.455,81.094 43.058 C 80.725 43.346,80.173 43.543,79.868 43.497 C 79.563 43.450,78.886 43.615,78.362 43.864 C 77.839 44.112,76.736 44.324,75.912 44.335 C 75.081 44.346,74.484 44.470,74.572 44.613 C 74.665 44.762,74.404 44.789,73.953 44.675 C 73.414 44.540,73.020 44.618,72.676 44.930 C 72.336 45.237,71.537 45.401,70.157 45.447 C 68.990 45.486,68.050 45.653,67.932 45.843 C 67.821 46.023,67.266 46.202,66.700 46.241 C 66.133 46.279,65.727 46.402,65.797 46.515 C 65.999 46.842,64.862 47.098,62.931 47.159 C 61.947 47.190,61.043 47.323,60.923 47.455 C 60.803 47.588,60.882 47.593,61.100 47.466 C 61.363 47.314,61.430 47.344,61.298 47.556 C 61.152 47.792,60.952 47.785,60.533 47.529 C 60.059 47.240,59.905 47.265,59.597 47.680 C 59.335 48.033,58.809 48.187,57.789 48.210 C 56.886 48.230,56.416 48.350,56.528 48.531 C 56.636 48.706,56.566 48.733,56.350 48.599 C 56.154 48.478,55.910 48.514,55.808 48.679 C 55.705 48.845,54.908 49.009,54.035 49.044 C 52.753 49.096,52.479 49.190,52.611 49.533 C 52.729 49.841,52.645 49.907,52.302 49.776 C 52.043 49.677,51.831 49.686,51.831 49.798 C 51.831 49.909,50.735 50.011,49.396 50.024 C 47.578 50.042,46.883 50.155,46.650 50.471 C 46.478 50.704,46.191 50.845,46.012 50.785 C 45.832 50.724,45.610 50.796,45.518 50.945 C 45.427 51.093,45.078 51.143,44.744 51.056 C 44.332 50.948,44.201 51.000,44.337 51.220 C 44.466 51.429,44.383 51.484,44.099 51.375 C 43.859 51.283,43.662 51.348,43.662 51.519 C 43.662 51.691,43.884 51.837,44.155 51.844 C 44.426 51.850,45.265 51.901,46.020 51.955 C 47.177 52.038,47.414 51.970,47.532 51.520 C 47.705 50.858,50.527 50.763,51.356 51.391 C 51.959 51.848,51.303 52.058,48.954 52.160 C 48.162 52.194,47.569 52.366,47.484 52.587 C 47.389 52.835,46.796 52.958,45.696 52.958 C 44.686 52.958,43.840 53.117,43.505 53.371 C 43.198 53.603,42.338 53.789,41.545 53.794 C 40.686 53.799,39.721 54.023,39.081 54.366 C 38.455 54.702,37.489 54.930,36.691 54.931 C 35.955 54.932,34.989 55.122,34.545 55.354 C 34.101 55.585,33.052 55.775,32.212 55.775 C 31.116 55.775,30.641 55.894,30.524 56.197 C 30.407 56.503,29.925 56.620,28.773 56.621 C 27.898 56.622,26.835 56.805,26.411 57.026 C 25.986 57.248,24.934 57.490,24.073 57.565 C 23.212 57.639,22.322 57.854,22.095 58.043 C 21.868 58.231,20.719 58.480,19.541 58.595 C 18.363 58.710,17.319 58.935,17.221 59.093 C 17.054 59.363,15.820 59.531,14.497 59.465 C 13.210 59.401,13.777 58.434,15.135 58.374 C 16.559 58.312,16.769 58.215,16.482 57.752 C 16.343 57.526,16.161 57.541,15.836 57.803 C 15.498 58.077,15.438 58.081,15.596 57.817 C 15.829 57.429,14.900 57.306,14.531 57.676 C 14.414 57.792,14.235 57.892,14.131 57.897 C 14.028 57.903,13.690 58.045,13.380 58.213 C 13.070 58.381,12.621 58.486,12.381 58.447 C 12.126 58.406,11.929 58.599,11.905 58.913 C 11.883 59.208,11.984 59.375,12.130 59.285 C 12.275 59.195,12.394 59.256,12.394 59.420 C 12.394 59.584,12.592 59.718,12.834 59.718 C 13.075 59.718,13.194 59.845,13.099 60.000 C 13.003 60.155,12.544 60.282,12.079 60.282 C 11.588 60.282,11.307 60.164,11.408 60.000 C 11.504 59.845,11.448 59.718,11.284 59.718 C 11.120 59.718,10.986 59.853,10.986 60.017 C 10.986 60.181,10.851 60.231,10.685 60.129 C 10.520 60.027,10.455 59.759,10.541 59.534 C 10.629 59.306,10.575 59.202,10.419 59.298 C 10.266 59.392,10.141 59.707,10.141 59.998 C 10.141 60.288,9.887 60.606,9.577 60.704 C 9.268 60.803,9.014 61.009,9.014 61.162 C 9.014 61.316,8.895 61.368,8.750 61.278 C 8.604 61.188,8.382 61.286,8.257 61.494 C 8.131 61.703,7.806 61.955,7.535 62.055 C 7.264 62.154,7.042 62.430,7.042 62.667 C 7.042 62.904,6.852 63.099,6.620 63.099 C 6.387 63.099,6.197 63.297,6.197 63.540 C 6.197 63.847,6.033 63.929,5.658 63.810 C 5.361 63.716,5.024 63.791,4.910 63.976 C 4.778 64.188,4.821 64.238,5.027 64.111 C 5.535 63.798,5.408 64.392,4.876 64.825 C 4.552 65.087,4.467 65.098,4.610 64.859 C 4.727 64.665,4.688 64.507,4.524 64.507 C 4.360 64.507,4.225 64.810,4.225 65.181 C 4.225 65.552,4.035 65.928,3.803 66.017 C 3.553 66.113,3.380 66.536,3.380 67.050 C 3.380 67.529,3.272 67.854,3.140 67.772 C 2.806 67.566,2.254 68.869,2.254 69.864 C 2.254 70.479,2.147 70.646,1.831 70.524 C 1.360 70.344,1.289 70.644,1.663 71.233 C 1.954 71.693,2.535 71.414,2.535 70.814 C 2.535 68.634,12.507 62.519,16.033 62.538 C 16.450 62.540,18.970 62.007,21.549 61.371 C 22.659 61.097,24.574 60.703,28.732 59.890 C 29.894 59.663,31.202 59.341,31.638 59.175 C 32.074 59.009,32.760 58.873,33.163 58.873 C 33.565 58.873,34.539 58.693,35.327 58.472 C 36.116 58.252,37.458 57.931,38.310 57.758 C 42.332 56.944,43.713 56.647,46.197 56.062 C 47.669 55.716,49.507 55.330,50.282 55.206 C 51.056 55.081,52.451 54.775,53.380 54.527 C 54.310 54.278,55.451 54.147,55.915 54.236 C 57.079 54.457,58.873 55.246,58.873 55.536 C 58.873 55.667,59.067 55.775,59.305 55.775 C 59.542 55.775,59.809 55.965,59.898 56.197 C 59.987 56.430,60.219 56.620,60.412 56.620 C 60.606 56.620,61.345 57.063,62.055 57.606 C 62.765 58.148,63.423 58.592,63.516 58.592 C 63.709 58.592,65.289 59.684,65.858 60.211 C 66.066 60.405,66.422 60.563,66.649 60.563 C 66.875 60.563,67.133 60.754,67.222 60.986 C 67.311 61.218,67.514 61.408,67.673 61.408 C 67.831 61.408,68.578 61.852,69.333 62.394 C 70.088 62.937,70.776 63.380,70.863 63.380 C 70.949 63.380,71.601 63.824,72.311 64.366 C 73.021 64.908,73.742 65.357,73.914 65.364 C 74.085 65.370,74.664 65.750,75.201 66.209 C 75.737 66.667,76.289 67.042,76.428 67.042 C 76.566 67.042,77.160 67.423,77.746 67.887 C 78.965 68.852,80.362 69.002,81.186 68.257 C 81.516 67.957,82.360 67.735,83.461 67.657 C 84.424 67.588,85.461 67.359,85.767 67.146 C 86.102 66.914,87.069 66.761,88.202 66.761 C 89.612 66.761,90.121 66.655,90.243 66.338 C 90.362 66.028,90.851 65.915,92.080 65.915 C 93.140 65.915,93.798 65.790,93.869 65.575 C 93.937 65.371,94.838 65.165,96.118 65.060 C 97.553 64.943,98.408 64.731,98.724 64.414 C 99.065 64.074,99.687 63.944,100.972 63.944 C 102.207 63.944,102.855 63.815,103.099 63.521 C 103.338 63.233,103.978 63.099,105.114 63.099 C 106.333 63.099,106.822 62.986,106.940 62.676 C 107.060 62.364,107.555 62.254,108.837 62.254 C 110.034 62.254,110.898 62.079,111.623 61.690 C 112.239 61.360,113.228 61.123,114.013 61.118 C 114.750 61.113,115.598 60.923,115.899 60.695 C 116.237 60.439,117.084 60.282,118.121 60.282 C 119.315 60.282,119.890 60.155,120.119 59.842 C 120.343 59.535,121.061 59.367,122.487 59.286 C 123.815 59.210,124.684 59.018,124.963 58.740 C 125.240 58.462,125.923 58.310,126.887 58.310 C 127.872 58.310,128.501 58.166,128.732 57.887 C 128.981 57.588,129.639 57.465,130.990 57.465 C 132.426 57.465,132.938 57.360,133.060 57.042 C 133.182 56.722,133.702 56.620,135.202 56.620 C 136.808 56.620,137.290 56.513,137.746 56.056 C 138.164 55.639,138.694 55.491,139.789 55.484 C 140.640 55.479,141.500 55.300,141.814 55.061 C 142.162 54.799,143.013 54.648,144.147 54.648 C 145.475 54.648,145.975 54.539,146.095 54.225 C 146.217 53.907,146.730 53.803,148.169 53.803 C 149.608 53.803,150.121 53.698,150.243 53.380 C 150.359 53.078,150.830 52.958,151.897 52.958 C 152.850 52.958,153.768 52.755,154.440 52.394 C 155.177 51.999,156.029 51.831,157.293 51.831 C 158.635 51.831,159.136 51.723,159.257 51.408 C 159.376 51.099,159.864 50.986,161.083 50.986 C 162.147 50.986,162.863 50.847,163.067 50.601 C 163.256 50.374,164.186 50.159,165.337 50.077 C 166.616 49.985,167.445 49.778,167.748 49.476 C 168.085 49.138,168.726 49.014,170.131 49.014 C 171.579 49.014,172.092 48.910,172.215 48.592 C 172.333 48.282,172.821 48.169,174.041 48.169 C 175.177 48.169,175.817 48.035,176.056 47.746 C 176.292 47.462,176.927 47.324,177.996 47.324 C 179.048 47.324,179.942 47.133,180.637 46.761 C 181.292 46.409,182.226 46.197,183.118 46.197 C 184.013 46.197,184.705 46.039,184.970 45.775 C 185.253 45.492,185.958 45.352,187.102 45.352 C 188.286 45.352,188.907 45.224,189.124 44.933 C 189.329 44.658,190.075 44.480,191.298 44.414 C 192.430 44.353,193.421 44.130,193.826 43.847 C 194.225 43.567,195.059 43.377,195.908 43.371 C 196.704 43.366,197.563 43.181,197.871 42.949 C 198.215 42.688,199.065 42.535,200.165 42.535 C 201.458 42.535,201.954 42.425,202.074 42.113 C 202.197 41.793,202.716 41.690,204.217 41.690 C 205.822 41.690,206.304 41.583,206.761 41.127 C 207.178 40.710,207.708 40.561,208.803 40.554 C 209.654 40.549,210.514 40.370,210.828 40.132 C 211.176 39.869,212.027 39.718,213.161 39.718 C 214.489 39.718,214.989 39.610,215.109 39.296 C 215.231 38.978,215.743 38.873,217.179 38.873 C 218.530 38.873,219.188 38.750,219.437 38.451 C 219.656 38.186,220.276 38.028,221.095 38.028 C 221.865 38.028,222.835 37.796,223.454 37.465 C 224.191 37.070,225.043 36.901,226.307 36.901 C 227.649 36.901,228.150 36.794,228.271 36.479 C 228.392 36.164,228.894 36.056,230.243 36.056 C 231.508 36.056,232.097 35.941,232.199 35.673 C 232.296 35.421,233.023 35.242,234.323 35.149 C 235.626 35.056,236.458 34.850,236.762 34.546 C 237.099 34.209,237.740 34.085,239.145 34.085 C 240.593 34.085,241.106 33.980,241.229 33.662 C 241.349 33.347,241.852 33.239,243.200 33.239 C 244.481 33.239,245.054 33.126,245.160 32.850 C 245.261 32.585,245.951 32.424,247.319 32.347 C 248.657 32.271,249.412 32.099,249.577 31.831 C 249.742 31.564,250.493 31.391,251.806 31.317 C 253.032 31.248,253.909 31.056,254.110 30.814 C 254.324 30.556,255.038 30.423,256.202 30.423 C 257.512 30.423,258.010 30.313,258.130 30.000 C 258.253 29.680,258.772 29.577,260.273 29.577 C 261.878 29.577,262.360 29.471,262.817 29.014 C 263.234 28.597,263.764 28.448,264.859 28.442 C 265.710 28.437,266.570 28.257,266.885 28.019 C 267.229 27.759,268.079 27.606,269.179 27.606 C 270.472 27.606,270.968 27.496,271.088 27.183 C 271.213 26.856,271.761 26.761,273.512 26.761 C 275.258 26.761,275.775 26.671,275.775 26.368 C 275.775 25.845,276.395 25.636,277.981 25.625 C 278.704 25.620,279.542 25.430,279.843 25.202 C 280.190 24.940,281.041 24.789,282.175 24.789 C 283.503 24.789,284.003 24.680,284.123 24.366 C 284.247 24.044,284.774 23.944,286.338 23.944 C 287.903 23.944,288.429 23.843,288.553 23.521 C 288.666 23.227,289.125 23.099,290.066 23.099 C 290.887 23.099,291.837 22.874,292.487 22.525 C 293.323 22.077,294.017 21.962,295.658 22.000 C 297.258 22.037,297.879 21.939,298.267 21.588 C 298.548 21.334,299.188 21.127,299.692 21.127 C 300.626 21.127,301.003 19.111,300.174 18.544 C 299.836 18.312,299.755 17.816,299.689 15.565 C 299.649 14.207,299.566 13.903,299.325 14.228 C 299.079 14.562,299.000 14.401,298.949 13.452 C 298.906 12.671,298.694 12.098,298.340 11.806 C 298.042 11.561,297.754 11.054,297.702 10.680 C 297.649 10.306,297.431 9.863,297.218 9.696 C 297.005 9.529,296.831 9.040,296.831 8.610 C 296.831 8.088,296.754 7.952,296.601 8.200 C 296.432 8.472,296.292 8.366,296.079 7.807 C 295.919 7.387,295.588 7.042,295.342 7.042 C 295.097 7.042,294.980 6.907,295.082 6.742 C 295.184 6.576,295.009 6.373,294.692 6.290 C 294.342 6.199,294.045 5.815,293.935 5.311 C 293.797 4.683,293.554 4.443,292.927 4.318 C 292.473 4.227,292.021 4.023,291.922 3.864 C 291.812 3.686,291.885 3.662,292.113 3.803 C 292.357 3.954,292.413 3.921,292.280 3.705 C 292.170 3.527,291.841 3.380,291.549 3.380 C 291.257 3.380,290.821 3.099,290.579 2.754 C 290.338 2.410,290.141 2.234,290.141 2.364 C 290.141 2.494,289.803 2.379,289.390 2.108 C 288.976 1.837,288.188 1.555,287.637 1.481 C 287.086 1.406,286.492 1.149,286.316 0.908 C 286.032 0.519,285.961 0.531,285.682 1.010 C 285.419 1.464,285.368 1.476,285.361 1.082 C 285.353 0.671,284.862 0.611,281.233 0.579 C 277.391 0.544,277.126 0.576,277.290 1.046 C 277.457 1.523,277.446 1.524,277.082 1.056 C 276.614 0.455,276.570 0.453,276.020 1.002 M38.342 52.363 C 38.001 52.703,37.495 52.867,36.933 52.820 C 36.448 52.778,36.056 52.881,36.056 53.049 C 36.056 53.246,35.939 53.234,35.718 53.014 C 35.242 52.538,34.930 52.594,34.930 53.155 C 34.930 53.527,34.854 53.559,34.592 53.296 C 33.947 52.651,33.480 52.906,33.574 53.852 C 33.673 54.852,34.366 55.323,34.366 54.390 C 34.366 53.860,34.531 53.803,36.073 53.803 C 37.139 53.803,37.714 53.697,37.606 53.521 C 37.363 53.129,37.844 53.168,38.249 53.573 C 38.656 53.979,38.822 53.837,38.987 52.941 C 39.056 52.563,39.122 52.217,39.134 52.173 C 39.146 52.129,39.440 52.253,39.789 52.450 C 40.699 52.962,41.475 52.975,41.283 52.474 C 41.197 52.250,41.127 52.009,41.127 51.939 C 41.127 51.869,40.873 51.947,40.563 52.113 C 40.181 52.317,40.000 52.320,40.000 52.123 C 40.000 51.637,38.909 51.795,38.342 52.363 M41.817 52.353 C 41.899 52.917,42.676 52.978,42.676 52.421 C 42.676 52.204,42.467 51.995,42.212 51.957 C 41.922 51.915,41.774 52.062,41.817 52.353 M31.723 53.750 C 31.635 53.893,31.252 53.950,30.872 53.877 C 30.389 53.785,30.075 53.915,29.828 54.312 C 29.539 54.775,29.257 54.854,28.284 54.747 C 27.609 54.673,27.015 54.745,26.911 54.914 C 26.810 55.077,26.513 55.202,26.251 55.191 C 25.863 55.175,25.879 55.127,26.338 54.930 C 27.019 54.637,26.258 54.534,25.516 54.819 C 24.946 55.037,24.926 56.504,25.490 56.720 C 25.720 56.809,25.895 56.791,25.879 56.680 C 25.730 55.683,25.930 55.555,27.535 55.613 C 28.609 55.651,29.388 55.522,29.847 55.230 C 30.227 54.987,30.766 54.773,31.044 54.754 C 31.322 54.734,31.812 54.702,32.133 54.683 C 32.518 54.660,32.686 54.487,32.626 54.178 C 32.521 53.636,31.958 53.369,31.723 53.750 M22.024 55.986 C 22.151 56.655,24.079 56.844,24.322 56.212 C 24.414 55.971,24.398 55.765,24.287 55.753 C 24.176 55.741,23.863 55.689,23.592 55.637 C 23.310 55.583,23.099 55.714,23.099 55.940 C 23.099 56.420,22.647 56.465,22.367 56.013 C 22.234 55.798,22.291 55.765,22.535 55.915 C 22.779 56.066,22.836 56.033,22.703 55.818 C 22.393 55.317,21.919 55.434,22.024 55.986 M20.186 56.199 C 19.901 56.407,19.420 56.530,19.116 56.471 C 18.809 56.412,18.493 56.550,18.404 56.781 C 18.282 57.099,18.153 57.122,17.858 56.877 C 17.431 56.523,16.620 56.718,16.620 57.174 C 16.620 57.334,16.881 57.465,17.200 57.465 C 17.541 57.465,17.703 57.589,17.593 57.767 C 17.462 57.979,17.562 57.984,17.928 57.784 C 18.216 57.627,18.804 57.424,19.237 57.333 C 19.669 57.241,19.955 57.057,19.872 56.923 C 19.789 56.789,19.902 56.609,20.123 56.525 C 20.399 56.419,20.493 56.535,20.424 56.895 C 20.306 57.505,21.007 57.884,21.322 57.382 C 22.081 56.172,21.315 55.374,20.186 56.199 M310.986 68.958 C 310.986 69.186,310.393 69.296,309.165 69.296 C 307.632 69.296,307.296 69.385,307.042 69.859 C 306.809 70.295,306.452 70.423,305.463 70.423 C 304.703 70.423,304.014 70.594,303.763 70.845 C 303.482 71.126,302.778 71.268,301.661 71.268 C 300.429 71.268,299.939 71.380,299.820 71.690 C 299.700 72.003,299.202 72.113,297.895 72.113 C 296.559 72.113,295.959 72.249,295.416 72.676 C 294.890 73.090,294.264 73.242,293.054 73.248 C 292.056 73.254,291.193 73.420,290.862 73.671 C 290.528 73.923,289.683 74.085,288.693 74.085 C 287.507 74.085,287.003 74.204,286.821 74.530 C 286.638 74.857,286.130 74.976,284.906 74.977 C 283.827 74.978,282.864 75.169,282.174 75.518 C 281.562 75.828,280.529 76.056,279.744 76.056 C 278.874 76.056,278.252 76.210,278.028 76.479 C 277.788 76.768,277.148 76.901,276.002 76.901 C 274.888 76.901,274.184 77.043,273.903 77.324 C 273.609 77.618,272.888 77.746,271.529 77.746 C 269.953 77.746,269.469 77.855,269.014 78.310 C 268.597 78.727,268.067 78.876,266.972 78.882 C 266.121 78.887,265.261 79.067,264.946 79.305 C 264.614 79.556,263.770 79.718,262.798 79.718 C 261.717 79.718,261.082 79.856,260.845 80.141 C 260.599 80.437,259.947 80.563,258.659 80.563 C 257.266 80.563,256.739 80.677,256.477 81.036 C 256.238 81.363,255.581 81.547,254.334 81.636 C 253.344 81.706,252.285 81.937,251.980 82.149 C 251.656 82.374,250.700 82.535,249.690 82.535 C 248.493 82.535,247.848 82.666,247.606 82.958 C 247.371 83.241,246.639 83.402,245.388 83.445 C 244.361 83.481,258.859 83.576,277.606 83.657 C 315.261 83.818,313.689 83.845,313.899 83.043 C 313.980 82.733,314.182 82.562,314.347 82.664 C 314.784 82.935,314.715 82.643,314.226 82.154 C 313.983 81.911,313.778 81.118,313.742 80.281 C 313.707 79.483,313.585 78.772,313.471 78.702 C 313.357 78.631,313.336 78.386,313.424 78.156 C 313.512 77.927,313.444 77.571,313.273 77.365 C 313.103 77.159,312.916 76.564,312.859 76.044 C 312.802 75.523,312.606 75.047,312.422 74.986 C 312.182 74.906,312.174 74.773,312.392 74.509 C 312.614 74.242,312.579 74.028,312.263 73.712 C 312.024 73.472,311.831 72.794,311.831 72.189 C 311.831 71.589,311.679 70.946,311.493 70.761 C 311.249 70.517,311.244 70.423,311.477 70.423 C 311.656 70.423,311.746 70.150,311.681 69.809 C 311.545 69.104,310.986 68.419,310.986 68.958 M1.105 71.620 C 0.927 72.202,0.946 72.705,1.152 72.832 C 1.293 72.920,1.408 72.667,1.408 72.270 C 1.408 71.697,1.211 71.274,1.105 71.620 M92.254 132.501 C 91.789 132.703,90.711 132.940,89.859 133.029 C 89.007 133.118,87.930 133.391,87.465 133.636 C 87.000 133.881,85.970 134.082,85.175 134.083 C 84.237 134.084,83.608 134.232,83.380 134.507 C 83.157 134.777,82.534 134.930,81.661 134.930 C 80.909 134.930,79.815 135.109,79.231 135.328 C 78.647 135.547,77.535 135.791,76.761 135.870 C 75.986 135.950,74.972 136.213,74.507 136.456 C 74.042 136.699,73.012 136.899,72.218 136.900 C 71.279 136.901,70.650 137.049,70.423 137.324 C 70.189 137.605,69.557 137.746,68.529 137.746 C 67.681 137.746,66.587 137.925,66.099 138.142 C 65.611 138.360,64.532 138.609,63.703 138.696 C 62.873 138.783,62.049 138.972,61.872 139.117 C 61.694 139.263,60.687 139.472,59.634 139.584 C 58.580 139.696,57.543 139.962,57.330 140.175 C 57.113 140.392,56.372 140.563,55.653 140.563 C 54.136 140.563,52.732 141.245,51.684 142.492 C 50.838 143.496,50.676 148.395,51.479 148.662 C 51.691 148.733,51.836 149.302,51.843 150.094 C 51.850 150.817,52.037 151.915,52.258 152.535 C 52.480 153.155,52.746 154.402,52.849 155.306 C 52.960 156.287,53.190 157.008,53.419 157.096 C 53.685 157.198,53.803 157.775,53.805 158.974 C 53.806 159.958,53.988 161.052,54.227 161.511 C 54.459 161.955,54.648 162.880,54.648 163.567 C 54.648 164.254,54.825 165.159,55.041 165.578 C 55.258 165.996,55.528 167.099,55.643 168.028 C 55.757 168.958,56.024 169.968,56.235 170.274 C 56.448 170.581,56.620 171.533,56.620 172.403 C 56.620 173.351,56.784 174.194,57.033 174.524 C 57.267 174.832,57.451 175.692,57.456 176.495 C 57.461 177.299,57.645 178.159,57.878 178.467 C 58.106 178.768,58.300 179.648,58.310 180.423 C 58.321 181.202,58.572 182.334,58.873 182.958 C 59.173 183.577,59.422 184.471,59.427 184.943 C 59.434 185.561,59.742 186.099,60.526 186.865 L 61.615 187.928 64.504 187.911 C 66.425 187.900,67.665 187.759,68.207 187.488 C 68.655 187.265,69.735 186.993,70.607 186.884 C 71.479 186.775,72.523 186.513,72.927 186.302 C 73.331 186.091,74.318 185.918,75.121 185.917 C 76.040 185.916,76.736 185.759,77.002 185.493 C 77.254 185.241,77.943 185.070,78.707 185.070 C 79.412 185.070,80.467 184.891,81.051 184.672 C 81.635 184.453,82.780 184.205,83.596 184.121 C 84.412 184.038,85.359 183.773,85.701 183.534 C 86.081 183.268,86.932 183.099,87.887 183.099 C 88.769 183.099,89.697 182.927,90.013 182.706 C 90.321 182.490,91.268 182.252,92.118 182.178 C 94.575 181.962,96.247 181.229,96.602 180.212 C 97.144 178.657,97.007 133.104,96.459 132.555 C 95.911 132.008,93.463 131.977,92.254 132.501 M95.988 156.391 C 96.066 182.188,96.150 180.845,94.463 180.845 C 93.795 180.845,92.245 181.178,88.310 182.166 C 87.380 182.399,85.986 182.691,85.211 182.814 C 84.437 182.936,82.599 183.316,81.127 183.657 C 79.655 183.998,77.627 184.445,76.620 184.650 C 75.613 184.856,74.155 185.163,73.380 185.333 C 72.606 185.503,71.021 185.841,69.859 186.084 C 68.697 186.327,67.102 186.705,66.313 186.925 C 62.423 188.008,60.451 186.811,59.753 182.939 C 59.128 179.470,58.672 177.292,58.372 176.338 C 58.201 175.796,57.924 174.592,57.757 173.662 C 57.590 172.732,57.271 171.148,57.049 170.141 C 56.827 169.134,56.451 167.319,56.215 166.109 C 55.979 164.898,55.717 163.797,55.634 163.662 C 55.550 163.527,55.289 162.426,55.054 161.215 C 53.887 155.207,53.391 152.918,52.799 150.820 C 52.576 150.032,52.394 149.090,52.394 148.726 C 52.394 148.363,52.193 147.346,51.946 146.467 C 51.048 143.267,52.373 141.983,57.606 140.982 C 58.690 140.774,60.782 140.330,62.254 139.995 C 63.725 139.659,65.588 139.282,66.393 139.156 C 67.197 139.029,67.987 138.845,68.148 138.745 C 68.309 138.646,69.426 138.372,70.629 138.137 C 75.231 137.239,76.514 136.972,77.606 136.685 C 78.225 136.523,79.683 136.190,80.845 135.946 C 82.007 135.702,83.592 135.363,84.366 135.192 C 86.149 134.801,88.949 134.226,91.127 133.804 C 92.056 133.624,93.324 133.304,93.944 133.094 C 96.098 132.362,95.907 130.186,95.988 156.391 M136.479 249.198 C 136.169 249.268,135.662 249.442,135.352 249.586 C 135.042 249.730,134.472 249.964,134.085 250.107 C 130.545 251.411,127.914 255.702,127.897 260.202 C 127.888 262.415,127.973 262.774,129.124 265.348 C 130.141 267.625,133.527 270.078,136.678 270.822 C 139.584 271.508,174.640 271.488,177.383 270.799 C 187.421 268.278,189.254 254.645,180.138 250.311 C 179.520 250.017,178.761 249.636,178.451 249.466 C 177.896 249.160,137.782 248.904,136.479 249.198 M206.620 249.277 C 195.281 252.035,195.446 267.936,206.842 270.799 C 209.798 271.541,244.866 271.495,247.746 270.744 C 258.742 267.881,259.447 253.308,248.769 249.612 C 246.989 248.997,209.016 248.695,206.620 249.277 M48.322 251.530 C 48.129 251.841,48.574 252.177,48.834 251.917 C 49.102 251.649,49.052 251.268,48.749 251.268 C 48.603 251.268,48.411 251.386,48.322 251.530 " stroke="none" fill="#6dbddb" fill-rule="evenodd"></path></g></svg>