<svg id="svg" version="1.1" xmlns="http://www.w3.org/2000/svg" xmlns:xlink="http://www.w3.org/1999/xlink" width="400" height="461.6666666666667" viewBox="0, 0, 400,461.6666666666667"><g id="svgg"><path id="path0" d="M354.667 118.325 C 354.667 118.504,354.136 121.466,353.488 124.908 C 338.590 204.012,292.471 247.989,215.500 256.484 C 204.704 257.675,201.972 257.767,171.167 257.967 L 139.833 258.171 137.241 259.086 C 130.669 261.406,125.904 266.256,124.028 272.536 C 123.651 273.799,119.211 301.083,114.161 333.167 C 101.485 413.714,101.694 412.401,101.349 413.333 C 101.179 413.792,100.570 417.242,99.995 421.000 C 99.421 424.758,98.052 433.458,96.954 440.333 C 94.555 455.346,94.593 456.719,97.527 460.565 L 98.367 461.667 144.888 461.667 L 191.409 461.667 193.825 459.250 C 198.521 454.552,198.281 455.477,203.671 421.272 C 216.463 340.093,215.079 347.671,217.884 343.446 C 222.301 336.791,225.500 335.796,243.333 335.529 C 319.472 334.391,363.651 305.979,383.841 245.167 C 400.794 194.107,395.586 151.094,369.667 128.100 C 364.664 123.662,354.667 117.147,354.667 118.325 " stroke="none" fill="#0c9bdb" fill-rule="evenodd"></path><path id="path1" d="M75.476 0.500 C 66.356 2.960,61.428 9.045,59.684 20.000 C 59.319 22.292,54.434 53.267,48.830 88.833 C 43.225 124.400,36.176 169.100,33.167 188.167 C 30.157 207.233,22.883 253.358,17.002 290.667 C 11.121 327.975,4.879 367.500,3.130 378.500 C -0.553 401.670,-0.616 402.637,1.314 406.251 C 2.661 408.774,4.737 410.757,7.275 411.947 L 9.167 412.833 55.311 412.833 L 101.455 412.833 111.696 347.833 C 117.328 312.083,122.335 280.583,122.823 277.833 C 123.311 275.083,123.701 272.488,123.691 272.065 C 123.680 271.642,123.806 271.380,123.971 271.482 C 124.136 271.584,124.203 271.405,124.120 271.084 C 124.006 270.645,146.059 129.610,148.045 118.075 C 149.245 111.103,155.243 104.986,162.167 103.672 C 164.996 103.135,293.459 103.391,299.167 103.944 C 315.723 105.550,327.553 107.753,338.167 111.206 C 345.798 113.689,354.320 117.423,354.354 118.298 C 354.410 119.697,354.954 117.143,355.449 113.167 C 358.881 85.577,355.497 65.103,344.601 47.527 C 326.452 18.253,294.702 3.496,243.096 0.350 C 233.679 -0.224,77.643 -0.085,75.476 0.500 M191.583 257.908 C 192.179 257.982,193.154 257.982,193.750 257.908 C 194.346 257.834,193.858 257.773,192.667 257.773 C 191.475 257.773,190.987 257.834,191.583 257.908 " stroke="none" fill="#233b83" fill-rule="evenodd"></path><path id="path2" d="M161.424 103.805 C 154.770 105.445,149.195 111.391,148.045 118.075 C 147.846 119.226,142.354 153.992,135.839 195.333 C 129.324 236.675,123.913 270.950,123.815 271.500 C 123.703 272.123,123.930 271.806,124.417 270.659 C 126.713 265.245,131.095 261.112,136.706 259.067 L 139.167 258.171 168.833 257.961 C 197.642 257.757,202.596 257.593,213.498 256.482 C 285.737 249.115,330.903 211.176,349.356 142.364 C 351.023 136.148,353.801 123.114,354.198 119.649 L 354.410 117.799 351.344 116.375 C 337.007 109.713,322.153 106.175,299.167 103.944 C 293.034 103.349,163.805 103.219,161.424 103.805 " stroke="none" fill="#1c2c64" fill-rule="evenodd"></path><path id="path3" d="" stroke="none" fill="#1a60a2" fill-rule="evenodd"></path><path id="path4" d="M309.826 215.083 L 307.167 217.833 309.917 215.174 C 312.471 212.705,312.819 212.333,312.576 212.333 C 312.525 212.333,311.288 213.571,309.826 215.083 " stroke="none" fill="#1474b4" fill-rule="evenodd"></path></g></svg>