<svg id="svg" version="1.1" xmlns="http://www.w3.org/2000/svg" xmlns:xlink="http://www.w3.org/1999/xlink" width="400" height="400" viewBox="0, 0, 400,400"><g id="svgg"><path id="path0" d="M121.484 1.462 C 114.608 4.603,110.170 11.761,110.161 19.727 L 110.156 23.438 97.070 23.447 C 69.740 23.466,54.079 34.187,48.824 56.474 C 47.001 64.206,47.089 362.648,48.916 368.804 C 53.244 383.384,64.272 394.412,78.853 398.740 C 85.245 400.638,313.194 400.665,320.590 398.770 C 335.167 395.033,347.596 382.152,351.143 367.107 C 352.996 359.244,352.940 60.886,351.084 54.634 C 344.779 33.396,329.674 23.438,303.764 23.438 L 290.625 23.438 290.625 20.454 C 290.625 12.586,285.919 4.757,279.327 1.659 C 274.177 -0.762,126.756 -0.946,121.484 1.462 M266.406 35.156 L 266.406 46.875 200.391 46.875 L 134.375 46.875 134.375 35.156 L 134.375 23.438 200.391 23.438 L 266.406 23.438 266.406 35.156 M110.161 50.586 C 110.170 58.551,114.608 65.710,121.484 68.851 C 125.448 70.661,271.657 71.136,277.644 69.358 C 284.720 67.256,290.625 58.338,290.625 49.752 L 290.625 46.663 302.148 47.072 C 317.553 47.619,322.594 49.957,326.585 58.408 L 328.332 62.109 328.189 210.938 C 328.033 374.276,328.396 363.416,322.878 369.555 C 316.396 376.764,327.461 376.172,199.219 376.172 L 86.328 376.172 82.626 374.332 C 78.405 372.235,74.788 368.454,72.961 364.229 C 71.399 360.618,71.227 65.961,72.783 60.938 C 75.986 50.604,82.918 47.119,100.586 46.961 L 110.156 46.875 110.161 50.586 M157.813 109.827 C 156.250 110.497,149.042 117.019,140.995 125.043 L 126.913 139.088 123.417 135.497 C 114.554 126.392,103.172 128.174,100.687 139.057 C 99.452 144.463,101.019 147.332,110.431 156.903 C 121.633 168.292,126.139 170.309,132.656 166.849 C 135.192 165.502,172.123 128.461,173.355 126.028 C 178.128 116.599,167.605 105.630,157.813 109.827 M195.868 135.881 C 192.596 138.934,192.578 138.980,192.578 144.531 C 192.578 150.082,192.596 150.129,195.868 153.181 L 199.158 156.250 245.087 156.247 C 289.539 156.244,291.098 156.194,293.562 154.692 C 301.108 150.091,301.108 138.972,293.562 134.371 C 291.098 132.868,289.539 132.818,245.087 132.815 L 199.158 132.813 195.868 135.881 M157.813 193.832 C 156.738 194.253,149.460 200.977,141.640 208.776 L 127.420 222.955 123.195 218.959 C 114.543 210.776,103.513 212.446,100.875 222.337 C 99.167 228.744,100.941 232.033,111.842 242.665 C 121.644 252.226,125.409 253.898,131.785 251.525 C 134.287 250.594,171.386 214.007,173.099 210.781 C 178.248 201.082,168.083 189.812,157.813 193.832 M195.868 214.006 C 192.596 217.059,192.578 217.105,192.578 222.656 C 192.578 228.207,192.596 228.254,195.868 231.306 L 199.158 234.375 245.087 234.372 C 289.539 234.369,291.098 234.319,293.562 232.817 C 301.108 228.216,301.108 217.097,293.562 212.496 C 291.098 210.993,289.539 210.943,245.087 210.940 L 199.158 210.938 195.868 214.006 M157.813 271.957 C 156.738 272.378,149.460 279.102,141.640 286.901 L 127.420 301.080 123.195 297.084 C 114.543 288.901,103.513 290.571,100.875 300.462 C 99.167 306.869,100.941 310.158,111.842 320.790 C 121.644 330.351,125.409 332.023,131.785 329.650 C 134.287 328.719,171.386 292.132,173.099 288.906 C 178.248 279.207,168.083 267.937,157.813 271.957 M195.868 292.131 C 192.596 295.184,192.578 295.230,192.578 300.781 C 192.578 306.332,192.596 306.379,195.868 309.431 L 199.158 312.500 245.385 312.500 C 297.087 312.500,294.549 312.770,298.002 306.906 C 301.159 301.544,299.288 293.816,294.048 290.571 C 291.713 289.125,289.699 289.063,245.385 289.063 L 199.158 289.063 195.868 292.131 " stroke="none" fill="#000000" fill-rule="evenodd"></path></g></svg>