<svg id="svg" version="1.1" xmlns="http://www.w3.org/2000/svg" xmlns:xlink="http://www.w3.org/1999/xlink" width="400" height="390.7033639143731" viewBox="0, 0, 400,390.7033639143731"><g id="svgg"><path id="path0" d="M293.402 0.475 C 287.176 2.013,273.429 15.600,268.880 24.709 C 262.549 37.388,263.594 54.946,271.485 68.477 L 272.113 69.554 271.530 69.379 C 271.210 69.283,268.911 69.142,266.422 69.066 C 245.691 68.429,231.245 78.514,227.235 96.421 C 224.113 110.368,232.076 132.616,249.750 159.320 C 258.064 171.882,257.363 171.688,268.991 164.643 C 296.981 147.687,313.635 131.333,317.192 117.311 C 321.324 101.025,313.692 85.271,297.747 77.172 L 295.923 76.245 298.343 75.433 C 315.124 69.808,323.787 56.918,323.720 37.676 C 323.673 24.153,322.132 22.705,310.909 25.644 L 308.302 26.326 308.011 24.845 C 306.694 18.135,301.893 7.102,298.093 2.053 C 297.130 0.774,295.037 0.070,293.402 0.475 M294.864 14.862 C 296.711 18.727,297.921 22.069,298.790 25.708 C 299.868 30.225,300.022 29.626,297.385 31.178 C 286.427 37.627,280.136 49.318,279.868 63.731 C 279.827 65.948,275.895 55.966,274.737 50.703 C 271.610 36.500,276.618 24.634,290.467 13.434 C 293.425 11.042,292.967 10.893,294.864 14.862 M146.694 19.417 C 144.373 20.821,144.247 21.796,145.312 30.061 C 146.456 38.941,147.798 51.492,148.374 58.716 L 148.521 60.550 147.731 59.205 C 146.620 57.313,138.621 40.779,135.066 33.028 C 131.404 25.041,130.570 24.118,127.464 24.615 C 124.584 25.076,123.598 26.983,122.354 34.495 C 119.229 53.358,123.462 68.454,135.133 80.082 C 136.597 81.539,137.699 82.811,137.582 82.908 C 137.465 83.005,136.553 83.739,135.555 84.539 C 125.028 92.978,121.760 108.912,128.047 121.144 C 130.119 125.173,184.038 217.884,184.914 218.922 C 190.191 225.177,200.917 222.367,202.612 214.285 C 202.921 212.814,199.374 103.799,198.883 99.657 C 197.189 85.369,184.340 73.394,170.701 73.394 L 168.880 73.394 169.569 71.015 C 173.967 55.839,170.049 40.471,158.131 26.152 C 152.476 19.358,149.594 17.661,146.694 19.417 M66.535 19.878 C 63.834 21.240,57.195 33.435,53.804 43.265 C 49.184 56.657,48.968 70.527,53.214 81.101 C 58.272 93.698,70.655 106.250,86.277 114.615 L 88.029 115.553 90.139 119.633 C 94.622 128.303,98.505 134.807,105.172 144.817 C 110.088 152.198,110.539 152.729,112.243 153.138 C 115.388 153.892,118.172 151.454,117.861 148.217 C 117.758 147.142,117.295 146.344,113.585 140.845 C 107.431 131.723,104.459 126.860,99.917 118.480 L 97.635 114.269 99.225 111.630 C 121.311 74.981,113.021 43.241,75.941 22.485 C 70.177 19.259,68.618 18.827,66.535 19.878 M73.151 31.551 C 102.640 49.000,109.582 71.301,94.742 100.909 C 92.821 104.741,93.110 104.725,91.491 101.085 C 86.294 89.399,81.548 75.446,78.163 61.896 C 77.114 57.694,76.509 56.518,75.033 55.803 C 72.245 54.453,69.265 55.789,68.475 58.743 C 67.744 61.475,74.312 83.566,79.988 97.472 C 81.135 100.281,81.117 100.400,79.705 99.304 C 58.190 82.599,53.865 63.681,65.727 38.165 C 66.870 35.707,70.001 29.847,70.172 29.847 C 70.227 29.847,71.568 30.614,73.151 31.551 M314.715 36.636 C 315.225 43.427,312.470 53.258,308.839 57.602 C 304.911 62.304,295.245 67.838,290.153 68.301 L 289.297 68.379 289.303 64.098 C 289.325 49.762,296.562 39.876,310.216 35.530 C 314.784 34.076,314.518 34.011,314.715 36.636 M216.024 37.061 C 205.282 39.468,199.595 51.560,204.516 61.529 C 211.294 75.259,231.581 73.694,236.232 59.083 C 240.235 46.507,228.917 34.172,216.024 37.061 M158.432 43.180 C 162.934 52.630,163.370 62.596,159.717 72.538 L 158.908 74.740 158.605 70.581 C 158.057 63.054,157.049 51.854,156.317 45.138 C 155.921 41.505,155.597 38.422,155.597 38.287 C 155.598 37.875,157.324 40.853,158.432 43.180 M137.557 59.835 C 140.220 65.145,146.038 76.187,146.753 77.290 C 147.896 79.052,141.531 73.599,139.173 70.796 C 133.642 64.222,130.819 56.922,130.479 48.318 L 130.353 45.138 132.662 49.908 C 133.932 52.532,136.135 56.999,137.557 59.835 M222.704 46.382 C 225.468 47.324,227.802 50.631,227.848 53.673 C 227.958 60.940,219.473 64.574,214.298 59.477 C 208.143 53.413,214.459 43.573,222.704 46.382 M341.284 66.803 C 330.611 69.576,325.232 81.544,330.296 91.254 C 338.643 107.257,362.661 101.447,362.661 83.425 C 362.661 72.140,352.163 63.977,341.284 66.803 M348.946 76.198 C 352.784 78.013,354.603 82.778,352.904 86.565 C 350.625 91.643,344.211 93.034,340.216 89.317 C 333.550 83.114,340.737 72.314,348.946 76.198 M273.272 78.884 C 294.389 82.503,306.801 91.786,308.763 105.426 C 310.396 116.780,303.776 127.311,286.184 141.342 C 279.483 146.687,263.318 157.673,260.645 158.699 C 259.714 159.056,249.246 141.522,244.277 131.284 C 234.482 111.099,233.238 99.571,239.797 89.764 C 246.035 80.436,258.566 76.363,273.272 78.884 M173.456 83.090 C 181.721 84.900,188.268 91.577,189.856 99.817 C 190.085 101.007,190.620 112.058,190.458 112.244 C 190.423 112.285,186.667 113.365,182.111 114.646 C 177.556 115.926,173.493 117.182,173.082 117.435 C 170.885 118.793,170.576 122.639,172.518 124.453 C 174.371 126.183,175.129 126.132,183.609 123.696 L 190.703 121.658 190.782 122.908 C 191.086 127.766,193.879 212.090,193.748 212.477 C 193.629 212.831,193.365 212.966,192.796 212.966 C 192.010 212.966,191.997 212.944,180.885 193.550 C 174.767 182.870,169.804 174.090,169.857 174.037 C 169.910 173.984,172.640 173.167,175.925 172.222 C 184.373 169.789,185.957 168.274,184.158 164.345 C 182.701 161.160,181.433 161.088,172.477 163.680 C 168.642 164.790,165.370 165.709,165.206 165.724 C 164.946 165.746,155.476 150.728,155.652 150.574 C 155.689 150.543,157.968 149.877,160.718 149.095 C 167.573 147.145,168.931 145.832,167.959 142.088 C 166.991 138.356,165.074 138.070,156.829 140.425 C 153.538 141.366,150.766 142.054,150.669 141.955 C 150.330 141.606,139.477 122.704,139.566 122.616 C 139.615 122.567,141.728 121.925,144.262 121.189 C 150.792 119.294,152.496 117.220,150.574 113.504 C 149.061 110.577,147.257 110.655,135.487 114.152 C 133.417 114.767,133.696 103.684,135.870 98.979 C 139.305 91.544,142.637 89.323,156.247 85.393 C 166.726 82.368,168.858 82.083,173.456 83.090 M255.775 85.610 C 254.586 85.895,253.787 86.550,252.517 88.282 C 244.336 99.442,243.775 111.570,250.633 129.055 C 253.475 136.303,254.230 137.183,257.408 136.953 C 261.408 136.664,262.458 133.586,260.287 128.523 C 253.526 112.761,253.373 102.401,259.777 93.997 C 263.205 89.498,260.778 84.410,255.775 85.610 M384.718 91.041 C 379.916 92.166,379.194 93.063,370.795 108.354 C 367.218 114.866,364.261 120.224,364.224 120.261 C 364.187 120.298,363.223 120.058,362.081 119.727 C 355.331 117.772,348.087 118.007,342.119 120.375 C 335.544 122.983,333.931 124.302,320.399 138.140 C 300.148 158.846,290.488 167.525,275.596 178.392 C 262.342 188.063,254.872 192.609,231.556 205.195 C 224.827 208.828,218.552 212.268,217.612 212.840 C 205.037 220.493,194.305 232.827,188.975 245.749 L 187.966 248.196 151.806 248.258 L 115.645 248.320 116.306 247.707 C 118.463 245.708,118.605 246.376,110.471 220.170 C 106.508 207.402,103.233 196.769,103.193 196.541 C 103.137 196.224,103.435 196.045,104.465 195.782 C 117.090 192.548,123.953 177.630,118.302 165.702 C 113.261 155.061,101.359 150.485,90.211 154.902 C 89.166 155.315,88.246 155.759,88.167 155.888 C 88.088 156.016,87.669 155.308,87.237 154.315 C 81.958 142.172,68.196 135.603,55.060 138.957 C 44.486 141.656,35.822 151.466,34.819 161.874 C 34.618 163.956,34.587 163.986,33.009 163.615 C 30.570 163.041,24.020 163.242,21.266 163.975 C 3.716 168.647,-4.696 187.248,3.427 203.425 L 4.901 206.361 4.033 208.489 C -0.246 218.977,2.494 231.451,10.754 239.086 C 23.330 250.710,43.163 248.421,52.646 234.251 C 53.456 233.040,54.147 232.019,54.181 231.982 C 54.215 231.945,57.011 235.605,60.395 240.116 L 66.547 248.318 55.891 248.318 C 44.329 248.318,44.595 248.289,43.257 249.703 C 41.993 251.039,41.783 253.841,42.328 262.141 C 47.126 335.290,103.769 385.800,186.250 390.479 C 278.260 395.700,347.566 342.999,353.255 263.486 C 354.236 249.769,353.684 248.330,347.436 248.322 C 344.660 248.318,344.426 248.283,344.572 247.890 C 344.660 247.654,353.970 229.292,365.261 207.084 C 380.745 176.630,386.000 166.077,386.642 164.148 C 389.478 155.634,388.840 146.488,384.851 138.439 L 383.683 136.083 391.233 122.292 C 399.647 106.923,399.757 106.687,399.937 103.702 C 400.442 95.332,392.963 89.110,384.718 91.041 M25.810 96.008 C 7.009 100.413,8.219 127.501,27.323 129.885 C 41.450 131.648,51.351 116.375,44.134 103.952 C 40.666 97.983,32.497 94.442,25.810 96.008 M388.913 100.292 C 390.512 101.018,391.232 102.986,390.453 104.496 C 390.288 104.815,386.565 111.627,382.180 119.633 L 374.207 134.190 374.198 136.156 C 374.190 138.058,374.223 138.174,375.218 139.703 C 380.820 148.319,380.817 156.115,375.207 167.462 L 372.425 173.089 371.322 170.739 C 368.267 164.229,363.334 160.113,356.988 158.779 C 352.881 157.915,349.917 155.678,348.328 152.242 C 345.247 145.577,339.938 141.316,333.270 140.154 L 331.687 139.879 335.079 136.476 C 343.904 127.621,352.525 125.479,362.411 129.684 C 364.323 130.498,366.969 130.668,368.147 130.052 C 369.427 129.383,370.161 128.198,377.245 115.352 C 386.696 98.212,386.081 99.006,388.913 100.292 M32.096 105.310 C 37.744 107.256,39.199 114.722,34.716 118.752 C 29.521 123.423,21.387 119.767,21.437 112.783 C 21.477 107.248,26.829 103.495,32.096 105.310 M65.512 147.634 C 73.313 149.275,79.250 155.835,80.201 163.866 C 80.837 169.244,84.903 170.471,89.037 166.533 C 92.685 163.057,96.813 161.768,100.927 162.819 C 115.509 166.542,113.170 186.923,98.123 187.254 C 95.170 187.319,94.366 187.615,93.285 189.033 C 91.843 190.923,91.738 190.491,100.232 217.556 L 107.814 241.717 103.842 243.794 C 101.658 244.937,99.774 245.872,99.657 245.872 C 99.540 245.872,95.775 238.607,91.291 229.728 C 85.519 218.301,82.927 213.408,82.417 212.979 C 79.456 210.488,74.999 212.551,74.989 216.417 C 74.985 217.953,75.015 218.020,82.508 233.021 C 86.645 241.304,90.031 248.135,90.031 248.200 C 90.031 248.265,87.305 248.318,83.973 248.318 L 77.916 248.318 74.465 243.731 C 72.568 241.208,67.581 234.575,63.385 228.991 C 54.950 217.766,54.688 217.492,52.388 217.492 C 49.757 217.492,48.284 218.954,47.707 222.137 C 45.033 236.882,27.158 242.421,16.506 231.804 C 10.520 225.838,9.409 218.059,13.383 209.934 C 15.454 205.699,15.398 204.967,12.719 201.240 C 2.031 186.375,18.511 166.878,35.594 174.176 C 40.904 176.445,44.161 174.722,43.646 169.916 C 43.311 166.799,43.408 163.002,43.867 161.223 C 46.304 151.786,56.078 145.650,65.512 147.634 M328.288 148.629 C 335.107 149.313,337.219 150.736,340.264 156.697 C 343.194 162.434,350.002 167.583,354.661 167.584 C 355.741 167.585,358.283 168.914,359.652 170.195 C 361.219 171.660,361.626 172.362,364.423 178.426 L 366.700 183.364 354.084 208.440 C 347.145 222.232,339.767 236.847,337.688 240.917 L 333.908 248.318 265.914 248.318 C 228.518 248.318,197.920 248.280,197.920 248.232 C 197.920 247.601,202.482 240.021,204.446 237.389 C 211.900 227.400,216.118 224.217,236.820 212.962 C 274.306 192.580,292.436 179.433,316.453 155.214 C 321.789 149.833,323.444 148.301,323.941 148.281 C 324.292 148.268,326.248 148.424,328.288 148.629 M316.311 168.871 C 315.716 169.175,313.688 170.737,311.804 172.343 C 307.239 176.235,302.093 180.331,296.886 184.216 C 294.401 186.070,292.455 187.704,292.244 188.113 C 290.368 191.741,293.668 195.915,297.503 194.766 C 299.337 194.216,316.110 181.293,321.313 176.421 C 325.357 172.634,321.206 166.369,316.311 168.871 M26.544 192.749 C 20.369 196.563,28.461 208.410,39.121 211.161 C 48.145 213.490,59.110 209.165,62.898 201.783 C 65.444 196.823,58.255 192.431,55.108 197.024 C 49.516 205.185,38.029 204.392,33.287 195.516 C 31.655 192.461,28.864 191.316,26.544 192.749 M139.939 197.802 C 130.043 199.824,123.783 210.055,126.694 219.450 C 132.236 237.337,157.888 235.212,160.282 216.667 C 161.754 205.268,151.217 195.498,139.939 197.802 M263.440 205.670 C 262.941 205.802,241.575 217.105,239.144 218.523 C 232.342 222.491,222.237 231.036,219.557 235.086 C 217.579 238.074,219.752 242.202,223.303 242.202 C 225.003 242.202,225.539 241.821,229.966 237.466 C 237.044 230.504,238.993 229.194,255.753 220.138 C 268.928 213.019,267.995 213.588,268.673 212.258 C 270.496 208.686,267.292 204.654,263.440 205.670 M146.171 207.236 C 151.385 209.187,152.861 216.326,148.875 220.312 C 144.311 224.877,136.280 222.301,135.342 215.971 C 134.422 209.764,140.285 205.034,146.171 207.236 M344.465 258.177 C 344.465 260.566,343.381 271.273,342.844 274.190 L 342.698 274.985 197.805 274.985 L 52.912 274.985 52.763 273.823 C 52.681 273.183,52.452 271.450,52.253 269.969 C 51.930 267.565,51.662 264.683,51.245 259.144 L 51.111 257.370 197.788 257.370 L 344.465 257.370 344.465 258.177 M340.030 287.768 C 324.658 346.725,268.249 382.960,194.006 381.571 C 124.217 380.265,72.423 345.987,56.428 290.520 C 55.691 287.963,55.011 285.459,54.917 284.954 L 54.747 284.037 197.875 284.037 L 341.003 284.037 340.030 287.768 M83.585 291.475 C 79.400 293.026,79.693 296.101,84.769 303.878 C 87.536 308.117,91.671 308.566,93.565 304.832 C 94.740 302.515,94.394 301.640,88.923 293.066 C 87.933 291.514,85.465 290.779,83.585 291.475 M98.394 311.612 C 97.438 311.795,95.739 313.636,95.417 314.839 C 94.699 317.524,96.164 319.564,104.137 326.980 C 113.602 335.785,123.147 342.546,135.413 349.134 C 139.967 351.580,143.302 350.425,143.564 346.311 C 143.742 343.503,143.025 342.684,137.982 339.937 C 124.800 332.758,114.854 325.113,103.995 313.815 C 101.834 311.566,100.788 311.155,98.394 311.612 " stroke="none" fill="#000000" fill-rule="evenodd"></path></g></svg>