<svg id="svg" version="1.1" xmlns="http://www.w3.org/2000/svg" xmlns:xlink="http://www.w3.org/1999/xlink" width="400" height="400" viewBox="0, 0, 400,400"><g id="svgg"><path id="path0" d="M193.829 27.829 C 193.483 28.174,193.200 28.620,193.200 28.820 C 193.200 29.021,189.683 29.231,185.300 29.292 C 177.449 29.399,177.399 29.406,177.272 30.300 C 177.149 31.164,176.987 31.200,173.172 31.200 C 169.202 31.200,169.200 31.200,169.200 32.200 L 169.200 33.200 164.200 33.200 L 159.200 33.200 159.200 34.200 C 159.200 35.197,159.189 35.200,155.358 35.200 C 151.735 35.200,151.470 35.257,150.729 36.200 C 149.975 37.158,149.757 37.200,145.571 37.200 L 141.200 37.200 141.200 38.200 L 141.200 39.200 136.981 39.200 C 132.994 39.200,132.711 39.255,131.835 40.200 C 130.970 41.133,130.651 41.200,127.054 41.200 C 123.223 41.200,123.200 41.206,123.200 42.187 L 123.200 43.175 118.500 43.287 C 114.062 43.394,113.778 43.450,113.405 44.300 C 113.034 45.145,112.771 45.200,109.105 45.200 C 105.219 45.200,105.200 45.205,105.200 46.188 L 105.200 47.175 100.300 47.288 C 95.562 47.396,95.396 47.430,95.272 48.300 C 95.150 49.161,94.981 49.200,91.330 49.200 C 87.737 49.200,87.469 49.258,86.729 50.200 C 85.975 51.158,85.757 51.200,81.571 51.200 L 77.200 51.200 77.200 52.187 L 77.200 53.175 72.500 53.287 C 68.062 53.394,67.778 53.450,67.405 54.300 C 67.034 55.145,66.771 55.200,63.105 55.200 C 59.219 55.200,59.200 55.205,59.200 56.188 L 59.200 57.175 54.300 57.288 C 49.562 57.396,49.396 57.430,49.272 58.300 C 49.149 59.168,48.995 59.200,44.953 59.200 C 40.996 59.200,40.710 59.256,39.835 60.200 C 38.970 61.133,38.651 61.200,35.054 61.200 C 31.210 61.200,31.200 61.203,31.200 62.200 C 31.200 63.173,31.123 63.200,28.358 63.200 C 25.802 63.200,25.436 63.301,24.729 64.200 C 24.048 65.066,23.624 65.200,21.571 65.200 C 19.309 65.200,19.200 65.246,19.200 66.200 C 19.200 67.072,19.025 67.200,17.829 67.200 C 16.527 67.200,15.200 68.022,15.200 68.829 C 15.200 69.033,14.750 69.200,14.200 69.200 C 13.400 69.200,13.200 69.400,13.200 70.200 C 13.200 71.000,13.000 71.200,12.200 71.200 C 11.400 71.200,11.200 71.400,11.200 72.200 C 11.200 73.000,11.000 73.200,10.200 73.200 C 9.400 73.200,9.200 73.400,9.200 74.200 C 9.200 75.000,9.000 75.200,8.200 75.200 C 7.400 75.200,7.200 75.400,7.200 76.200 C 7.200 77.000,7.000 77.200,6.200 77.200 C 5.400 77.200,5.200 77.400,5.200 78.200 C 5.200 79.000,5.000 79.200,4.200 79.200 C 3.267 79.200,3.200 79.333,3.200 81.200 C 3.200 83.067,3.133 83.200,2.200 83.200 L 1.200 83.200 1.200 89.200 C 1.200 94.267,1.107 95.200,0.600 95.200 C 0.081 95.200,0.000 96.667,0.000 106.000 C 0.000 115.333,0.081 116.800,0.600 116.800 C 0.973 116.800,1.200 117.178,1.200 117.800 C 1.200 118.600,1.400 118.800,2.200 118.800 C 3.000 118.800,3.200 119.000,3.200 119.800 C 3.200 120.600,3.400 120.800,4.200 120.800 C 5.000 120.800,5.200 121.000,5.200 121.800 C 5.200 122.595,5.401 122.800,6.182 122.800 C 7.125 122.800,7.170 122.919,7.282 125.700 C 7.390 128.361,7.474 128.611,8.300 128.728 C 9.187 128.854,9.200 128.939,9.200 134.828 L 9.200 140.800 10.200 140.800 L 11.200 140.800 11.200 146.642 C 11.200 152.398,11.215 152.497,12.200 153.271 C 13.178 154.041,13.200 154.176,13.200 159.429 L 13.200 164.800 14.189 164.800 L 15.179 164.800 15.289 170.700 C 15.398 176.476,15.419 176.603,16.300 176.728 C 17.178 176.853,17.200 176.976,17.200 181.828 L 17.200 186.800 18.200 186.800 L 19.200 186.800 19.200 191.800 L 19.200 196.800 20.188 196.800 L 21.175 196.800 21.288 201.700 C 21.396 206.438,21.430 206.604,22.300 206.728 C 23.164 206.851,23.200 207.013,23.200 210.828 C 23.200 214.798,23.200 214.800,24.200 214.800 L 25.200 214.800 25.200 218.800 L 25.200 222.800 26.200 222.800 L 27.200 222.800 27.200 226.800 L 27.200 230.800 28.200 230.800 L 29.200 230.800 29.200 234.800 L 29.200 238.800 30.200 238.800 C 31.178 238.800,31.200 238.867,31.200 241.800 C 31.200 244.733,31.222 244.800,32.200 244.800 C 33.178 244.800,33.200 244.867,33.200 247.800 C 33.200 250.719,33.227 250.800,34.182 250.800 C 35.125 250.800,35.170 250.919,35.282 253.700 C 35.390 256.361,35.474 256.611,36.300 256.728 C 37.094 256.841,37.200 257.087,37.200 258.828 C 37.200 260.653,37.273 260.800,38.178 260.800 C 39.061 260.800,39.168 260.985,39.278 262.700 C 39.382 264.321,39.532 264.619,40.300 264.728 C 40.951 264.820,41.200 265.124,41.200 265.828 C 41.200 266.598,41.408 266.800,42.200 266.800 C 43.000 266.800,43.200 267.000,43.200 267.800 C 43.200 268.594,43.401 268.800,44.178 268.800 C 45.061 268.800,45.168 268.985,45.278 270.700 C 45.382 272.321,45.532 272.619,46.300 272.728 C 46.951 272.820,47.200 273.124,47.200 273.828 C 47.200 274.598,47.408 274.800,48.200 274.800 C 49.000 274.800,49.200 275.000,49.200 275.800 C 49.200 276.600,49.400 276.800,50.200 276.800 C 51.000 276.800,51.200 277.000,51.200 277.800 C 51.200 278.600,51.400 278.800,52.200 278.800 C 53.000 278.800,53.200 279.000,53.200 279.800 C 53.200 280.600,53.400 280.800,54.200 280.800 C 55.000 280.800,55.200 281.000,55.200 281.800 C 55.200 282.600,55.400 282.800,56.200 282.800 C 57.000 282.800,57.200 283.000,57.200 283.800 C 57.200 284.600,57.400 284.800,58.200 284.800 C 59.000 284.800,59.200 285.000,59.200 285.800 C 59.200 286.600,59.400 286.800,60.200 286.800 C 61.000 286.800,61.200 287.000,61.200 287.800 C 61.200 288.600,61.400 288.800,62.200 288.800 C 63.000 288.800,63.200 289.000,63.200 289.800 C 63.200 290.600,63.400 290.800,64.200 290.800 C 64.920 290.800,65.200 291.015,65.200 291.569 C 65.200 291.992,65.695 292.883,66.300 293.548 C 66.905 294.214,67.850 295.322,68.400 296.011 C 68.950 296.701,70.345 298.240,71.500 299.432 C 72.655 300.625,73.600 301.768,73.600 301.973 C 73.600 302.178,73.951 302.457,74.380 302.594 C 74.808 302.730,75.267 303.183,75.400 303.600 C 75.533 304.017,75.972 304.464,76.377 304.593 C 76.782 304.721,77.210 305.194,77.327 305.643 C 77.445 306.092,77.908 306.555,78.357 306.673 C 78.806 306.790,79.282 307.227,79.414 307.643 C 79.546 308.059,79.816 308.400,80.013 308.400 C 80.211 308.400,80.964 308.948,81.686 309.617 C 82.409 310.286,83.951 311.681,85.113 312.717 C 86.275 313.753,87.774 315.095,88.444 315.700 C 89.113 316.305,90.008 316.800,90.431 316.800 C 90.985 316.800,91.200 317.080,91.200 317.800 C 91.200 318.600,91.400 318.800,92.200 318.800 C 93.000 318.800,93.200 319.000,93.200 319.800 C 93.200 320.600,93.400 320.800,94.200 320.800 C 95.000 320.800,95.200 321.000,95.200 321.800 C 95.200 322.600,95.400 322.800,96.200 322.800 C 97.000 322.800,97.200 323.000,97.200 323.800 C 97.200 324.600,97.400 324.800,98.200 324.800 C 99.000 324.800,99.200 325.000,99.200 325.800 C 99.200 326.600,99.400 326.800,100.200 326.800 C 101.000 326.800,101.200 327.000,101.200 327.800 C 101.200 328.600,101.400 328.800,102.200 328.800 C 103.000 328.800,103.200 329.000,103.200 329.800 C 103.200 330.600,103.400 330.800,104.200 330.800 C 105.000 330.800,105.200 331.000,105.200 331.800 C 105.200 332.600,105.400 332.800,106.200 332.800 C 107.000 332.800,107.200 333.000,107.200 333.800 C 107.200 334.600,107.400 334.800,108.200 334.800 C 109.000 334.800,109.200 335.000,109.200 335.800 C 109.200 336.592,109.402 336.800,110.172 336.800 C 110.876 336.800,111.180 337.049,111.272 337.700 C 111.355 338.282,111.722 338.646,112.311 338.729 C 112.812 338.800,113.659 339.295,114.193 339.829 C 114.727 340.363,115.622 340.800,116.182 340.800 C 117.001 340.800,117.200 340.995,117.200 341.800 C 117.200 342.600,117.400 342.800,118.200 342.800 C 119.000 342.800,119.200 343.000,119.200 343.800 C 119.200 344.600,119.400 344.800,120.200 344.800 C 121.000 344.800,121.200 345.000,121.200 345.800 C 121.200 346.600,121.400 346.800,122.200 346.800 C 123.000 346.800,123.200 347.000,123.200 347.800 C 123.200 348.592,123.402 348.800,124.172 348.800 C 124.876 348.800,125.180 349.049,125.272 349.700 C 125.381 350.468,125.679 350.618,127.300 350.722 C 129.015 350.832,129.200 350.939,129.200 351.822 C 129.200 352.599,129.406 352.800,130.200 352.800 C 131.000 352.800,131.200 353.000,131.200 353.800 C 131.200 354.600,131.400 354.800,132.200 354.800 C 133.000 354.800,133.200 355.000,133.200 355.800 C 133.200 356.554,133.410 356.800,134.054 356.800 C 134.524 356.800,135.325 357.250,135.835 357.800 C 136.433 358.445,137.194 358.800,137.981 358.800 C 139.015 358.800,139.200 358.952,139.200 359.800 C 139.200 360.600,139.400 360.800,140.200 360.800 C 141.000 360.800,141.200 361.000,141.200 361.800 C 141.200 362.733,141.333 362.800,143.200 362.800 C 145.067 362.800,145.200 362.867,145.200 363.800 C 145.200 364.592,145.402 364.800,146.172 364.800 C 146.876 364.800,147.180 365.049,147.272 365.700 C 147.381 366.468,147.679 366.618,149.300 366.722 C 151.015 366.832,151.200 366.939,151.200 367.822 C 151.200 368.772,151.285 368.800,154.200 368.800 C 157.133 368.800,157.200 368.822,157.200 369.800 L 157.200 370.800 162.200 370.800 L 167.200 370.800 167.200 371.800 L 167.200 372.800 174.371 372.800 C 181.594 372.800,182.800 372.569,182.800 371.186 C 182.800 370.990,184.555 370.777,186.700 370.714 C 190.400 370.606,190.607 370.554,190.728 369.700 C 190.843 368.892,191.079 368.800,193.047 368.800 C 194.870 368.800,195.394 368.632,196.165 367.800 C 196.897 367.010,197.482 366.800,198.946 366.800 C 200.657 366.800,200.800 366.723,200.800 365.800 C 200.800 364.822,200.867 364.800,203.800 364.800 C 206.718 364.800,206.800 364.773,206.800 363.818 C 206.800 362.885,206.932 362.831,209.500 362.718 C 211.857 362.615,212.250 362.486,212.595 361.700 C 212.925 360.948,213.303 360.800,214.895 360.800 C 216.660 360.800,216.800 360.727,216.800 359.800 C 216.800 358.846,216.909 358.800,219.171 358.800 C 221.449 358.800,222.800 358.194,222.800 357.171 C 222.800 356.967,223.700 356.800,224.800 356.800 C 226.667 356.800,226.800 356.733,226.800 355.800 C 226.800 354.867,226.933 354.800,228.800 354.800 C 230.667 354.800,230.800 354.733,230.800 353.800 C 230.800 352.846,230.909 352.800,233.171 352.800 C 235.449 352.800,236.800 352.194,236.800 351.171 C 236.800 350.967,237.700 350.800,238.800 350.800 C 240.667 350.800,240.800 350.733,240.800 349.800 C 240.800 348.867,240.933 348.800,242.800 348.800 C 244.667 348.800,244.800 348.733,244.800 347.800 C 244.800 346.867,244.933 346.800,246.800 346.800 C 248.667 346.800,248.800 346.733,248.800 345.800 C 248.800 344.865,248.932 344.800,250.818 344.800 C 252.425 344.800,253.036 344.601,253.813 343.823 C 254.478 343.158,255.334 342.807,256.495 342.723 C 257.801 342.629,258.291 342.394,258.587 341.718 C 258.890 341.027,259.366 340.811,260.787 340.718 C 262.319 340.618,262.620 340.461,262.728 339.700 C 262.840 338.908,263.088 338.800,264.800 338.800 C 266.512 338.800,266.760 338.692,266.872 337.900 C 266.981 337.135,267.280 336.982,268.862 336.880 C 270.457 336.777,270.759 336.619,270.969 335.780 C 271.184 334.923,271.440 334.800,273.000 334.800 C 274.570 334.800,274.815 334.680,275.036 333.800 C 275.256 332.924,275.504 332.800,277.036 332.800 C 278.568 332.800,278.816 332.676,279.036 331.800 C 279.256 330.924,279.504 330.800,281.036 330.800 C 282.568 330.800,282.816 330.676,283.036 329.800 C 283.255 328.928,283.506 328.800,285.000 328.800 C 286.494 328.800,286.745 328.672,286.964 327.800 C 287.185 326.922,287.431 326.800,288.980 326.800 C 290.505 326.800,290.762 326.678,290.872 325.900 C 290.978 325.156,291.312 324.965,292.800 324.800 C 294.273 324.636,294.623 324.441,294.725 323.722 C 294.827 323.001,295.151 322.822,296.525 322.722 C 297.812 322.628,298.291 322.392,298.595 321.700 C 298.854 321.108,299.336 320.800,300.000 320.800 C 300.664 320.800,301.146 320.492,301.405 319.900 C 301.695 319.238,302.197 318.967,303.300 318.876 C 304.590 318.769,304.800 318.615,304.800 317.776 C 304.800 316.871,304.947 316.800,306.800 316.800 C 308.655 316.800,308.800 316.729,308.800 315.822 C 308.800 314.939,308.985 314.832,310.700 314.722 C 312.321 314.618,312.619 314.468,312.728 313.700 C 312.820 313.049,313.124 312.800,313.828 312.800 C 314.598 312.800,314.800 312.592,314.800 311.800 C 314.800 310.867,314.933 310.800,316.800 310.800 C 318.655 310.800,318.800 310.729,318.800 309.822 C 318.800 308.939,318.985 308.832,320.700 308.722 C 322.321 308.618,322.619 308.468,322.728 307.700 C 322.820 307.049,323.124 306.800,323.828 306.800 C 324.598 306.800,324.800 306.592,324.800 305.800 C 324.800 304.867,324.933 304.800,326.800 304.800 C 328.667 304.800,328.800 304.733,328.800 303.800 C 328.800 303.000,329.000 302.800,329.800 302.800 C 330.594 302.800,330.800 302.599,330.800 301.822 C 330.800 300.939,330.985 300.832,332.700 300.722 C 334.321 300.618,334.619 300.468,334.728 299.700 C 334.820 299.049,335.124 298.800,335.828 298.800 C 336.598 298.800,336.800 298.592,336.800 297.800 C 336.800 297.000,337.000 296.800,337.800 296.800 C 338.594 296.800,338.800 296.599,338.800 295.822 C 338.800 294.939,338.985 294.832,340.700 294.722 C 342.321 294.618,342.619 294.468,342.728 293.700 C 342.820 293.049,343.124 292.800,343.828 292.800 C 344.598 292.800,344.800 292.592,344.800 291.800 C 344.800 291.000,345.000 290.800,345.800 290.800 C 346.600 290.800,346.800 290.600,346.800 289.800 C 346.800 289.000,347.000 288.800,347.800 288.800 C 348.600 288.800,348.800 288.600,348.800 287.800 C 348.800 287.000,349.000 286.800,349.800 286.800 C 350.600 286.800,350.800 286.600,350.800 285.800 C 350.800 285.000,351.000 284.800,351.800 284.800 C 352.592 284.800,352.800 284.598,352.800 283.828 C 352.800 283.124,353.049 282.820,353.700 282.728 C 354.468 282.619,354.618 282.321,354.722 280.700 C 354.832 278.985,354.939 278.800,355.822 278.800 C 356.729 278.800,356.800 278.655,356.800 276.800 C 356.800 274.933,356.867 274.800,357.800 274.800 C 358.777 274.800,358.800 274.731,358.800 271.828 C 358.800 269.050,358.859 268.847,359.700 268.728 C 360.554 268.607,360.606 268.400,360.714 264.700 C 360.827 260.853,360.842 260.800,361.814 260.800 C 362.796 260.800,362.800 260.784,362.800 256.800 L 362.800 252.800 363.800 252.800 C 364.798 252.800,364.800 252.794,364.800 248.895 C 364.800 245.229,364.855 244.966,365.700 244.595 C 366.549 244.222,366.606 243.937,366.712 239.526 C 366.820 235.043,366.861 234.847,367.712 234.726 C 368.567 234.605,368.604 234.417,368.712 229.700 C 368.774 227.005,368.986 224.800,369.184 224.800 C 370.487 224.800,370.800 223.516,370.800 218.171 L 370.800 212.800 371.800 212.800 L 372.800 212.800 372.800 206.800 L 372.800 200.800 373.800 200.800 L 374.800 200.800 374.800 194.800 L 374.800 188.800 375.800 188.800 L 376.800 188.800 376.800 182.828 C 376.800 176.939,376.813 176.854,377.700 176.728 C 378.589 176.602,378.601 176.513,378.709 169.700 L 378.819 162.800 379.809 162.800 L 380.800 162.800 380.800 155.822 L 380.800 148.844 382.700 148.722 C 384.321 148.618,384.619 148.468,384.728 147.700 C 384.841 146.906,385.087 146.800,386.828 146.800 C 388.665 146.800,388.800 146.731,388.800 145.800 C 388.800 145.000,389.000 144.800,389.800 144.800 C 390.600 144.800,390.800 144.600,390.800 143.800 C 390.800 143.000,391.000 142.800,391.800 142.800 C 392.600 142.800,392.800 142.600,392.800 141.800 C 392.800 141.000,393.000 140.800,393.800 140.800 C 394.600 140.800,394.800 140.600,394.800 139.800 C 394.800 139.000,395.000 138.800,395.800 138.800 C 396.733 138.800,396.800 138.667,396.800 136.800 C 396.800 134.933,396.867 134.800,397.800 134.800 C 398.733 134.800,398.800 134.667,398.800 132.800 C 398.800 131.289,398.947 130.800,399.400 130.800 C 399.910 130.800,400.000 129.778,400.000 124.000 C 400.000 118.277,399.907 117.200,399.411 117.200 C 398.923 117.200,398.802 116.180,398.711 111.300 C 398.602 105.524,398.581 105.397,397.700 105.272 C 396.836 105.149,396.800 104.987,396.800 101.172 C 396.800 97.202,396.800 97.200,395.800 97.200 C 394.867 97.200,394.800 97.067,394.800 95.200 C 394.800 93.333,394.733 93.200,393.800 93.200 C 393.000 93.200,392.800 93.000,392.800 92.200 C 392.800 91.428,392.594 91.200,391.895 91.200 C 391.340 91.200,390.837 90.852,390.595 90.300 C 390.290 89.605,389.813 89.372,388.500 89.277 C 386.998 89.168,386.800 89.040,386.800 88.177 C 386.800 87.271,386.654 87.200,384.800 87.200 C 382.933 87.200,382.800 87.133,382.800 86.200 C 382.800 85.267,382.667 85.200,380.800 85.200 C 378.933 85.200,378.800 85.133,378.800 84.200 C 378.800 83.267,378.667 83.200,376.800 83.200 C 374.933 83.200,374.800 83.133,374.800 82.200 C 374.800 81.267,374.667 81.200,372.800 81.200 C 370.933 81.200,370.800 81.133,370.800 80.200 C 370.800 79.267,370.667 79.200,368.800 79.200 C 366.933 79.200,366.800 79.133,366.800 78.200 C 366.800 77.269,366.665 77.200,364.828 77.200 C 363.087 77.200,362.841 77.094,362.728 76.300 C 362.615 75.503,362.337 75.386,360.314 75.280 C 358.444 75.183,357.887 74.982,357.256 74.180 C 356.637 73.393,356.121 73.200,354.642 73.200 C 352.944 73.200,352.800 73.122,352.800 72.200 C 352.800 71.269,352.665 71.200,350.828 71.200 C 349.087 71.200,348.841 71.094,348.728 70.300 C 348.611 69.474,348.361 69.390,345.700 69.282 C 342.919 69.170,342.800 69.125,342.800 68.182 C 342.800 67.272,342.655 67.200,340.828 67.200 C 339.087 67.200,338.841 67.094,338.728 66.300 C 338.611 65.474,338.361 65.390,335.700 65.282 C 332.919 65.170,332.800 65.125,332.800 64.182 C 332.800 63.280,332.648 63.200,330.946 63.200 C 329.482 63.200,328.897 62.990,328.165 62.200 C 327.391 61.365,326.872 61.200,325.019 61.200 C 322.919 61.200,322.800 61.146,322.800 60.200 C 322.800 59.222,322.733 59.200,319.800 59.200 C 316.867 59.200,316.800 59.178,316.800 58.200 C 316.800 57.273,316.660 57.200,314.895 57.200 C 313.303 57.200,312.925 57.052,312.595 56.300 C 312.250 55.514,311.857 55.385,309.500 55.282 C 306.932 55.169,306.800 55.115,306.800 54.182 C 306.800 53.234,306.704 53.200,304.028 53.200 C 301.458 53.200,301.246 53.134,301.128 52.300 C 301.018 51.526,300.723 51.382,299.023 51.275 C 297.543 51.181,296.818 50.905,296.142 50.175 C 295.396 49.370,294.855 49.200,293.047 49.200 C 291.079 49.200,290.843 49.108,290.728 48.300 C 290.612 47.482,290.353 47.389,287.903 47.282 C 285.418 47.173,285.187 47.087,284.960 46.182 C 284.728 45.260,284.547 45.200,282.000 45.200 C 279.439 45.200,279.273 45.144,279.036 44.200 C 278.803 43.273,278.610 43.200,276.402 43.200 C 274.301 43.200,273.941 43.081,273.363 42.200 C 272.812 41.359,272.397 41.200,270.754 41.200 C 269.679 41.200,268.800 41.033,268.800 40.829 C 268.800 39.811,267.449 39.200,265.199 39.200 C 263.073 39.200,262.844 39.116,262.728 38.300 C 262.612 37.488,262.328 37.381,259.800 37.200 C 257.272 37.019,256.988 36.912,256.872 36.100 C 256.753 35.259,256.550 35.200,253.772 35.200 C 250.869 35.200,250.800 35.177,250.800 34.200 C 250.800 33.222,250.733 33.200,247.800 33.200 C 244.867 33.200,244.800 33.178,244.800 32.200 L 244.800 31.200 240.800 31.200 L 236.800 31.200 236.800 30.200 L 236.800 29.200 228.800 29.200 L 220.800 29.200 220.800 28.200 L 220.800 27.200 207.629 27.200 C 196.188 27.200,194.375 27.283,193.829 27.829 M213.200 55.800 L 213.200 56.800 218.054 56.800 C 222.718 56.800,222.945 56.839,223.835 57.800 C 224.609 58.635,225.128 58.800,226.981 58.800 C 228.201 58.800,229.200 58.967,229.200 59.171 C 229.200 60.194,230.551 60.800,232.829 60.800 C 235.091 60.800,235.200 60.846,235.200 61.800 C 235.200 62.778,235.267 62.800,238.200 62.800 C 241.133 62.800,241.200 62.822,241.200 63.800 C 241.200 64.732,241.335 64.800,243.182 64.800 C 244.762 64.800,245.366 65.002,246.164 65.800 C 246.962 66.599,247.564 66.800,249.154 66.800 C 250.914 66.800,251.159 66.904,251.272 67.700 C 251.389 68.526,251.639 68.610,254.300 68.718 C 257.081 68.830,257.200 68.875,257.200 69.818 C 257.200 70.773,257.281 70.800,260.200 70.800 C 263.133 70.800,263.200 70.822,263.200 71.800 C 263.200 72.727,263.340 72.800,265.105 72.800 C 266.697 72.800,267.075 72.948,267.405 73.700 C 267.750 74.486,268.143 74.615,270.500 74.718 C 273.068 74.831,273.200 74.885,273.200 75.818 C 273.200 76.773,273.282 76.800,276.200 76.800 C 279.133 76.800,279.200 76.822,279.200 77.800 C 279.200 78.754,279.309 78.800,281.571 78.800 C 283.624 78.800,284.048 78.934,284.729 79.800 C 285.361 80.604,285.871 80.800,287.330 80.800 C 288.907 80.800,289.161 80.918,289.272 81.700 C 289.389 82.526,289.639 82.610,292.300 82.718 C 295.081 82.830,295.200 82.875,295.200 83.818 C 295.200 84.773,295.281 84.800,298.200 84.800 C 301.133 84.800,301.200 84.822,301.200 85.800 C 301.200 86.727,301.340 86.800,303.105 86.800 C 304.697 86.800,305.075 86.948,305.405 87.700 C 305.750 88.486,306.143 88.615,308.500 88.718 C 311.068 88.831,311.200 88.885,311.200 89.818 C 311.200 90.773,311.282 90.800,314.200 90.800 C 317.133 90.800,317.200 90.822,317.200 91.800 C 317.200 92.733,317.333 92.800,319.200 92.800 C 320.300 92.800,321.200 92.967,321.200 93.171 C 321.200 94.194,322.551 94.800,324.829 94.800 C 327.091 94.800,327.200 94.846,327.200 95.800 C 327.200 96.778,327.267 96.800,330.200 96.800 C 333.133 96.800,333.200 96.822,333.200 97.800 C 333.200 98.733,333.333 98.800,335.200 98.800 C 336.300 98.800,337.200 98.967,337.200 99.171 C 337.200 100.194,338.551 100.800,340.829 100.800 C 343.091 100.800,343.200 100.846,343.200 101.800 C 343.200 102.778,343.267 102.800,346.200 102.800 C 349.133 102.800,349.200 102.822,349.200 103.800 C 349.200 104.733,349.333 104.800,351.200 104.800 C 353.067 104.800,353.200 104.867,353.200 105.800 C 353.200 106.754,353.309 106.800,355.571 106.800 C 357.624 106.800,358.048 106.934,358.729 107.800 C 359.161 108.350,359.894 108.800,360.358 108.800 C 360.989 108.800,361.200 109.050,361.200 109.800 C 361.200 110.733,361.333 110.800,363.200 110.800 C 365.156 110.800,365.200 110.827,365.200 112.000 C 365.200 113.013,365.044 113.200,364.200 113.200 C 363.400 113.200,363.200 113.400,363.200 114.200 C 363.200 115.133,363.067 115.200,361.200 115.200 C 359.343 115.200,359.200 115.270,359.200 116.182 C 359.200 117.125,359.081 117.170,356.300 117.282 C 353.639 117.390,353.389 117.474,353.272 118.300 C 353.159 119.094,352.913 119.200,351.172 119.200 C 349.335 119.200,349.200 119.269,349.200 120.200 C 349.200 121.146,349.081 121.200,346.981 121.200 C 345.128 121.200,344.609 121.365,343.835 122.200 C 343.103 122.990,342.518 123.200,341.054 123.200 C 339.352 123.200,339.200 123.280,339.200 124.182 C 339.200 125.125,339.081 125.170,336.300 125.282 C 333.639 125.390,333.389 125.474,333.272 126.300 C 333.159 127.094,332.913 127.200,331.172 127.200 C 329.335 127.200,329.200 127.269,329.200 128.200 C 329.200 129.178,329.133 129.200,326.200 129.200 C 323.281 129.200,323.200 129.227,323.200 130.182 C 323.200 131.125,323.081 131.170,320.300 131.282 C 317.639 131.390,317.389 131.474,317.272 132.300 C 317.157 133.108,316.921 133.200,314.953 133.200 C 313.130 133.200,312.606 133.368,311.835 134.200 C 311.103 134.990,310.518 135.200,309.054 135.200 C 307.343 135.200,307.200 135.277,307.200 136.200 C 307.200 137.178,307.133 137.200,304.200 137.200 C 301.267 137.200,301.200 137.222,301.200 138.200 C 301.200 139.178,301.133 139.200,298.200 139.200 C 295.267 139.200,295.200 139.222,295.200 140.200 C 295.200 141.178,295.133 141.200,292.200 141.200 C 289.281 141.200,289.200 141.227,289.200 142.182 C 289.200 143.125,289.081 143.170,286.300 143.282 C 283.639 143.390,283.389 143.474,283.272 144.300 C 283.156 145.116,282.927 145.200,280.801 145.200 C 278.551 145.200,277.200 145.811,277.200 146.829 C 277.200 147.033,276.292 147.200,275.182 147.200 C 273.562 147.200,272.966 147.398,272.164 148.200 C 271.389 148.974,270.752 149.200,269.339 149.200 C 267.870 149.200,267.362 149.394,266.729 150.200 C 266.048 151.066,265.624 151.200,263.571 151.200 C 261.309 151.200,261.200 151.246,261.200 152.200 C 261.200 153.178,261.133 153.200,258.200 153.200 C 255.267 153.200,255.200 153.222,255.200 154.200 C 255.200 155.178,255.133 155.200,252.200 155.200 C 249.267 155.200,249.200 155.222,249.200 156.200 C 249.200 157.178,249.133 157.200,246.200 157.200 C 243.267 157.200,243.200 157.222,243.200 158.200 C 243.200 159.178,243.133 159.200,240.200 159.200 C 237.267 159.200,237.200 159.222,237.200 160.200 C 237.200 161.178,237.133 161.200,234.200 161.200 C 231.267 161.200,231.200 161.222,231.200 162.200 C 231.200 163.178,231.135 163.200,228.182 163.200 C 225.511 163.200,225.051 163.313,224.182 164.182 C 223.367 164.997,222.742 165.184,220.500 165.282 C 218.158 165.384,217.749 165.517,217.412 166.284 C 217.073 167.058,216.671 167.183,214.212 167.284 C 211.642 167.390,211.389 167.477,211.272 168.300 C 211.153 169.141,210.950 169.200,208.172 169.200 C 205.269 169.200,205.200 169.223,205.200 170.200 L 205.200 171.200 178.629 171.200 L 152.058 171.200 151.271 170.200 C 150.510 169.232,150.331 169.200,145.642 169.200 L 140.800 169.200 140.800 168.200 C 140.800 167.222,140.733 167.200,137.800 167.200 C 134.867 167.200,134.800 167.178,134.800 166.200 C 134.800 165.222,134.733 165.200,131.800 165.200 C 128.867 165.200,128.800 165.178,128.800 164.200 C 128.800 163.222,128.733 163.200,125.800 163.200 C 122.867 163.200,122.800 163.178,122.800 162.200 C 122.800 161.267,122.667 161.200,120.800 161.200 C 118.933 161.200,118.800 161.133,118.800 160.200 C 118.800 159.269,118.665 159.200,116.828 159.200 C 115.087 159.200,114.841 159.094,114.728 158.300 C 114.620 157.539,114.319 157.382,112.787 157.282 C 111.366 157.189,110.890 156.973,110.587 156.282 C 110.291 155.607,109.801 155.371,108.500 155.277 C 106.998 155.168,106.800 155.040,106.800 154.177 C 106.800 153.402,106.594 153.200,105.800 153.200 C 105.000 153.200,104.800 153.000,104.800 152.200 C 104.800 151.446,104.590 151.200,103.946 151.200 C 103.476 151.200,102.675 150.750,102.165 150.200 C 101.567 149.555,100.806 149.200,100.019 149.200 C 98.985 149.200,98.800 149.048,98.800 148.200 C 98.800 147.400,98.600 147.200,97.800 147.200 C 97.000 147.200,96.800 147.000,96.800 146.200 C 96.800 145.400,96.600 145.200,95.800 145.200 C 95.000 145.200,94.800 145.000,94.800 144.200 C 94.800 143.408,94.598 143.200,93.828 143.200 C 93.124 143.200,92.820 142.951,92.728 142.300 C 92.645 141.718,92.278 141.354,91.689 141.271 C 91.188 141.200,90.341 140.705,89.807 140.171 C 89.273 139.637,88.378 139.200,87.818 139.200 C 86.999 139.200,86.800 139.005,86.800 138.200 C 86.800 137.400,86.600 137.200,85.800 137.200 C 85.000 137.200,84.800 137.000,84.800 136.200 C 84.800 135.400,84.600 135.200,83.800 135.200 C 83.000 135.200,82.800 135.000,82.800 134.200 C 82.800 133.408,82.598 133.200,81.828 133.200 C 81.124 133.200,80.820 132.951,80.728 132.300 C 80.619 131.532,80.321 131.382,78.700 131.278 C 76.985 131.168,76.800 131.061,76.800 130.178 C 76.800 129.401,76.594 129.200,75.800 129.200 C 75.000 129.200,74.800 129.000,74.800 128.200 C 74.800 127.400,74.600 127.200,73.800 127.200 C 73.000 127.200,72.800 127.000,72.800 126.200 C 72.800 125.400,72.600 125.200,71.800 125.200 C 71.000 125.200,70.800 125.000,70.800 124.200 C 70.800 123.428,70.594 123.200,69.895 123.200 C 69.340 123.200,68.837 122.852,68.595 122.300 C 68.290 121.605,67.813 121.372,66.500 121.277 C 64.998 121.168,64.800 121.040,64.800 120.177 C 64.800 119.402,64.594 119.200,63.800 119.200 C 63.000 119.200,62.800 119.000,62.800 118.200 C 62.800 117.400,62.600 117.200,61.800 117.200 C 61.000 117.200,60.800 117.000,60.800 116.200 C 60.800 115.400,60.600 115.200,59.800 115.200 C 59.000 115.200,58.800 115.000,58.800 114.200 C 58.800 113.400,58.600 113.200,57.800 113.200 C 57.250 113.200,56.800 113.033,56.800 112.829 C 56.800 112.022,55.473 111.200,54.171 111.200 C 52.975 111.200,52.800 111.072,52.800 110.200 C 52.800 109.400,52.600 109.200,51.800 109.200 C 51.000 109.200,50.800 109.000,50.800 108.200 C 50.800 107.400,50.600 107.200,49.800 107.200 C 49.000 107.200,48.800 107.000,48.800 106.200 C 48.800 105.400,48.600 105.200,47.800 105.200 C 47.000 105.200,46.800 105.000,46.800 104.200 C 46.800 103.446,46.590 103.200,45.946 103.200 C 45.476 103.200,44.675 102.750,44.165 102.200 C 43.567 101.555,42.806 101.200,42.019 101.200 C 40.985 101.200,40.800 101.048,40.800 100.200 C 40.800 99.400,40.600 99.200,39.800 99.200 C 39.000 99.200,38.800 99.000,38.800 98.200 C 38.800 97.400,38.600 97.200,37.800 97.200 C 37.000 97.200,36.800 97.000,36.800 96.200 C 36.800 95.400,36.600 95.200,35.800 95.200 C 35.000 95.200,34.800 95.000,34.800 94.200 C 34.800 93.390,34.591 93.189,33.700 93.140 L 32.600 93.080 33.700 92.913 C 34.547 92.785,34.800 92.527,34.800 91.791 C 34.800 90.882,34.942 90.829,37.700 90.718 C 40.361 90.610,40.611 90.526,40.728 89.700 C 40.843 88.892,41.079 88.800,43.047 88.800 C 44.870 88.800,45.394 88.632,46.165 87.800 C 46.987 86.913,47.415 86.800,49.946 86.800 C 52.724 86.800,52.800 86.773,52.800 85.800 L 52.800 84.800 56.800 84.800 C 60.787 84.800,60.800 84.797,60.800 83.812 L 60.800 82.825 65.700 82.712 C 70.438 82.604,70.604 82.570,70.728 81.700 C 70.850 80.839,71.019 80.800,74.670 80.800 C 78.263 80.800,78.531 80.742,79.271 79.800 C 80.025 78.842,80.243 78.800,84.429 78.800 L 88.800 78.800 88.800 77.800 L 88.800 76.800 93.800 76.800 L 98.800 76.800 98.800 75.812 L 98.800 74.825 103.700 74.712 C 108.417 74.604,108.605 74.567,108.726 73.712 C 108.848 72.858,109.036 72.820,113.726 72.712 C 118.437 72.604,118.604 72.570,118.728 71.700 C 118.851 70.832,119.005 70.800,123.047 70.800 C 127.004 70.800,127.290 70.744,128.165 69.800 C 129.025 68.872,129.359 68.800,132.788 68.800 C 136.255 68.800,136.534 68.738,137.271 67.800 C 138.025 66.842,138.243 66.800,142.429 66.800 L 146.800 66.800 146.800 65.800 L 146.800 64.800 151.800 64.800 L 156.800 64.800 156.800 63.800 L 156.800 62.800 161.800 62.800 L 166.800 62.800 166.800 61.800 L 166.800 60.800 171.800 60.800 L 176.800 60.800 176.800 59.800 L 176.800 58.800 181.800 58.800 L 186.800 58.800 186.800 57.811 L 186.800 56.821 192.700 56.711 C 198.476 56.602,198.603 56.581,198.728 55.700 C 198.855 54.805,198.895 54.800,206.028 54.800 L 213.200 54.800 213.200 55.800 M191.838 93.819 C 191.487 94.170,191.200 94.624,191.200 94.829 C 191.200 95.037,189.010 95.200,186.200 95.200 L 181.200 95.200 181.200 96.200 C 181.200 97.122,181.056 97.200,179.358 97.200 C 177.869 97.200,177.364 97.392,176.729 98.200 C 176.296 98.750,175.685 99.200,175.371 99.200 C 173.849 99.200,173.200 100.685,173.200 104.171 C 173.200 107.735,173.660 108.800,175.200 108.800 C 175.608 108.800,176.296 109.250,176.729 109.800 C 177.364 110.608,177.869 110.800,179.358 110.800 C 181.056 110.800,181.200 110.878,181.200 111.800 L 181.200 112.800 186.172 112.800 C 191.024 112.800,191.147 112.822,191.272 113.700 C 191.400 114.597,191.423 114.600,199.000 114.600 C 206.577 114.600,206.600 114.597,206.728 113.700 C 206.853 112.822,206.976 112.800,211.828 112.800 L 216.800 112.800 216.800 111.800 C 216.800 110.878,216.944 110.800,218.642 110.800 C 220.119 110.800,220.637 110.606,221.252 109.825 C 221.720 109.230,222.523 108.801,223.310 108.725 L 224.600 108.600 224.600 104.000 L 224.600 99.400 223.310 99.275 C 222.523 99.199,221.720 98.770,221.252 98.175 C 220.637 97.394,220.119 97.200,218.642 97.200 C 216.944 97.200,216.800 97.122,216.800 96.200 L 216.800 95.200 211.895 95.200 C 207.192 95.200,206.973 95.163,206.595 94.300 C 206.067 93.097,192.986 92.671,191.838 93.819 M32.227 146.800 C 32.998 146.800,33.200 147.007,33.200 147.800 C 33.200 148.600,33.400 148.800,34.200 148.800 C 35.000 148.800,35.200 149.000,35.200 149.800 C 35.200 150.600,35.400 150.800,36.200 150.800 C 37.000 150.800,37.200 151.000,37.200 151.800 C 37.200 152.572,37.406 152.800,38.105 152.800 C 38.660 152.800,39.163 153.148,39.405 153.700 C 39.710 154.395,40.187 154.628,41.500 154.723 C 43.002 154.832,43.200 154.960,43.200 155.823 C 43.200 156.598,43.406 156.800,44.200 156.800 C 45.000 156.800,45.200 157.000,45.200 157.800 C 45.200 158.600,45.400 158.800,46.200 158.800 C 47.000 158.800,47.200 159.000,47.200 159.800 C 47.200 160.592,47.402 160.800,48.172 160.800 C 48.876 160.800,49.180 161.049,49.272 161.700 C 49.381 162.468,49.679 162.618,51.300 162.722 C 53.015 162.832,53.200 162.939,53.200 163.822 C 53.200 164.599,53.406 164.800,54.200 164.800 C 55.000 164.800,55.200 165.000,55.200 165.800 C 55.200 166.600,55.400 166.800,56.200 166.800 C 57.000 166.800,57.200 167.000,57.200 167.800 C 57.200 168.672,57.375 168.800,58.571 168.800 C 59.557 168.800,60.163 169.081,60.729 169.800 C 61.161 170.350,61.894 170.800,62.358 170.800 C 62.989 170.800,63.200 171.050,63.200 171.800 C 63.200 172.600,63.400 172.800,64.200 172.800 C 65.000 172.800,65.200 173.000,65.200 173.800 C 65.200 174.672,65.375 174.800,66.571 174.800 C 67.557 174.800,68.163 175.081,68.729 175.800 C 69.161 176.350,69.894 176.800,70.358 176.800 C 70.989 176.800,71.200 177.050,71.200 177.800 C 71.200 178.600,71.400 178.800,72.200 178.800 C 73.000 178.800,73.200 179.000,73.200 179.800 C 73.200 180.733,73.333 180.800,75.200 180.800 C 77.067 180.800,77.200 180.867,77.200 181.800 C 77.200 182.600,77.400 182.800,78.200 182.800 C 79.000 182.800,79.200 183.000,79.200 183.800 C 79.200 184.554,79.410 184.800,80.054 184.800 C 80.524 184.800,81.325 185.250,81.835 185.800 C 82.433 186.445,83.194 186.800,83.981 186.800 C 85.015 186.800,85.200 186.952,85.200 187.800 C 85.200 188.592,85.402 188.800,86.172 188.800 C 86.876 188.800,87.180 189.049,87.272 189.700 C 87.381 190.468,87.679 190.618,89.300 190.722 C 91.015 190.832,91.200 190.939,91.200 191.822 C 91.200 192.599,91.406 192.800,92.200 192.800 C 93.000 192.800,93.200 193.000,93.200 193.800 C 93.200 194.733,93.333 194.800,95.200 194.800 C 97.067 194.800,97.200 194.867,97.200 195.800 C 97.200 196.600,97.400 196.800,98.200 196.800 C 99.000 196.800,99.200 197.000,99.200 197.800 C 99.200 198.733,99.333 198.800,101.200 198.800 C 103.067 198.800,103.200 198.867,103.200 199.800 C 103.200 200.600,103.400 200.800,104.200 200.800 C 105.000 200.800,105.200 201.000,105.200 201.800 C 105.200 202.600,105.400 202.800,106.200 202.800 L 107.200 202.800 107.200 209.800 L 107.200 216.800 109.172 216.800 C 110.913 216.800,111.159 216.906,111.272 217.700 C 111.385 218.497,111.663 218.614,113.686 218.720 C 115.556 218.817,116.113 219.018,116.744 219.820 C 117.363 220.607,117.879 220.800,119.358 220.800 C 121.056 220.800,121.200 220.878,121.200 221.800 C 121.200 222.778,121.267 222.800,124.200 222.800 C 127.133 222.800,127.200 222.822,127.200 223.800 C 127.200 224.778,127.267 224.800,130.200 224.800 C 133.133 224.800,133.200 224.822,133.200 225.800 L 133.200 226.800 137.200 226.800 L 141.200 226.800 141.200 227.800 L 141.200 228.800 168.000 228.800 L 194.800 228.800 194.800 227.800 L 194.800 226.800 203.800 226.800 L 212.800 226.800 212.800 225.828 C 212.800 225.124,213.049 224.820,213.700 224.728 C 214.589 224.602,214.601 224.513,214.709 217.700 L 214.819 210.800 218.809 210.800 C 222.799 210.800,222.800 210.800,222.800 209.800 L 222.800 208.800 226.800 208.800 L 230.800 208.800 230.800 207.800 C 230.800 206.816,230.852 206.800,234.019 206.800 C 236.939 206.800,237.324 206.707,238.165 205.800 C 238.987 204.913,239.415 204.800,241.946 204.800 C 244.724 204.800,244.800 204.773,244.800 203.800 C 244.800 202.822,244.867 202.800,247.800 202.800 C 250.733 202.800,250.800 202.778,250.800 201.800 C 250.800 200.822,250.867 200.800,253.792 200.800 C 256.651 200.800,256.796 200.755,257.036 199.800 C 257.273 198.855,257.437 198.800,260.036 198.800 C 262.634 198.800,262.798 198.745,263.036 197.800 C 263.273 196.855,263.437 196.800,266.036 196.800 C 268.634 196.800,268.798 196.745,269.036 195.800 C 269.273 194.854,269.437 194.800,272.043 194.800 C 274.717 194.800,274.800 194.770,274.800 193.800 C 274.800 192.846,274.909 192.800,277.171 192.800 C 279.432 192.800,280.800 192.194,280.800 191.192 C 280.800 191.000,281.745 190.787,282.900 190.721 C 284.729 190.616,285.016 190.484,285.128 189.700 C 285.246 188.867,285.459 188.800,288.000 188.800 C 290.541 188.800,290.754 188.733,290.872 187.900 C 290.983 187.117,291.271 186.984,293.087 186.880 C 294.741 186.784,295.334 186.556,295.945 185.780 C 296.582 184.970,297.067 184.800,298.750 184.800 C 300.587 184.800,300.809 184.703,301.036 183.800 C 301.264 182.890,301.478 182.800,303.415 182.800 C 305.448 182.800,306.800 182.150,306.800 181.171 C 306.800 180.967,307.700 180.800,308.800 180.800 C 310.667 180.800,310.800 180.733,310.800 179.800 C 310.800 178.865,310.932 178.800,312.818 178.800 C 314.438 178.800,315.034 178.602,315.836 177.800 C 316.634 177.002,317.238 176.800,318.818 176.800 C 320.665 176.800,320.800 176.732,320.800 175.800 C 320.800 174.867,320.933 174.800,322.800 174.800 C 324.657 174.800,324.800 174.730,324.800 173.818 C 324.800 172.875,324.919 172.830,327.700 172.718 C 330.361 172.610,330.611 172.526,330.728 171.700 C 330.841 170.906,331.087 170.800,332.828 170.800 C 334.665 170.800,334.800 170.731,334.800 169.800 C 334.800 168.867,334.933 168.800,336.800 168.800 C 338.657 168.800,338.800 168.730,338.800 167.818 C 338.800 166.875,338.919 166.830,341.700 166.718 C 344.361 166.610,344.611 166.526,344.728 165.700 C 344.841 164.906,345.087 164.800,346.828 164.800 C 348.665 164.800,348.800 164.731,348.800 163.800 C 348.800 162.867,348.933 162.800,350.800 162.800 C 352.667 162.800,352.800 162.733,352.800 161.800 C 352.800 160.865,352.932 160.800,354.818 160.800 C 356.438 160.800,357.034 160.602,357.836 159.800 C 358.452 159.185,359.291 158.800,360.018 158.800 C 361.690 158.800,361.817 162.546,360.200 164.164 C 359.222 165.142,359.200 165.296,359.200 171.182 L 359.200 177.200 358.200 177.200 L 357.200 177.200 357.200 183.172 C 357.200 189.061,357.187 189.146,356.300 189.272 C 355.419 189.397,355.398 189.525,355.289 195.274 C 355.182 201.001,355.157 201.150,354.289 201.274 C 353.422 201.397,353.397 201.546,353.289 207.300 L 353.179 213.200 352.189 213.200 L 351.200 213.200 351.200 218.172 C 351.200 223.024,351.178 223.147,350.300 223.272 C 349.431 223.396,349.396 223.565,349.288 228.210 C 349.183 232.744,349.126 233.043,348.288 233.410 C 347.453 233.777,347.393 234.081,347.287 238.500 L 347.175 243.200 346.187 243.200 C 345.206 243.200,345.200 243.223,345.200 247.054 C 345.200 250.651,345.133 250.970,344.200 251.835 C 343.294 252.674,343.200 253.063,343.200 255.953 C 343.200 258.958,343.147 259.152,342.300 259.272 C 341.475 259.389,341.390 259.640,341.283 262.274 C 341.176 264.892,341.087 265.160,340.283 265.274 C 339.535 265.381,339.381 265.690,339.278 267.300 C 339.168 269.015,339.061 269.200,338.178 269.200 C 337.429 269.200,337.200 269.412,337.200 270.105 C 337.200 270.660,336.852 271.163,336.300 271.405 C 335.790 271.629,335.341 272.233,335.264 272.800 C 335.078 274.157,334.134 275.130,332.858 275.277 C 332.220 275.351,331.643 275.757,331.405 276.300 C 331.163 276.852,330.660 277.200,330.105 277.200 C 329.406 277.200,329.200 277.428,329.200 278.200 C 329.200 279.000,329.000 279.200,328.200 279.200 C 327.400 279.200,327.200 279.400,327.200 280.200 C 327.200 281.000,327.000 281.200,326.200 281.200 C 325.406 281.200,325.200 281.401,325.200 282.178 C 325.200 283.061,325.015 283.168,323.300 283.278 C 321.679 283.382,321.381 283.532,321.272 284.300 C 321.180 284.951,320.876 285.200,320.172 285.200 C 319.408 285.200,319.200 285.409,319.200 286.178 C 319.200 287.061,319.015 287.168,317.300 287.278 C 315.679 287.382,315.381 287.532,315.272 288.300 C 315.180 288.951,314.876 289.200,314.172 289.200 C 313.402 289.200,313.200 289.408,313.200 290.200 C 313.200 291.133,313.067 291.200,311.200 291.200 C 309.333 291.200,309.200 291.267,309.200 292.200 C 309.200 293.000,309.000 293.200,308.200 293.200 C 307.400 293.200,307.200 293.400,307.200 294.200 C 307.200 295.133,307.067 295.200,305.200 295.200 C 303.333 295.200,303.200 295.267,303.200 296.200 C 303.200 297.133,303.067 297.200,301.200 297.200 C 299.333 297.200,299.200 297.267,299.200 298.200 C 299.200 299.072,299.025 299.200,297.829 299.200 C 296.527 299.200,295.200 300.022,295.200 300.829 C 295.200 301.033,294.750 301.200,294.200 301.200 C 293.400 301.200,293.200 301.400,293.200 302.200 C 293.200 303.133,293.067 303.200,291.200 303.200 C 289.333 303.200,289.200 303.267,289.200 304.200 C 289.200 305.133,289.067 305.200,287.200 305.200 C 285.333 305.200,285.200 305.267,285.200 306.200 C 285.200 307.133,285.067 307.200,283.200 307.200 C 281.333 307.200,281.200 307.267,281.200 308.200 C 281.200 309.133,281.067 309.200,279.200 309.200 C 277.333 309.200,277.200 309.267,277.200 310.200 C 277.200 311.133,277.067 311.200,275.200 311.200 C 273.345 311.200,273.200 311.271,273.200 312.178 C 273.200 313.061,273.015 313.168,271.300 313.278 C 269.679 313.382,269.381 313.532,269.272 314.300 C 269.159 315.094,268.913 315.200,267.172 315.200 C 265.335 315.200,265.200 315.269,265.200 316.200 C 265.200 317.133,265.067 317.200,263.200 317.200 C 261.333 317.200,261.200 317.267,261.200 318.200 C 261.200 319.133,261.067 319.200,259.200 319.200 C 257.333 319.200,257.200 319.267,257.200 320.200 C 257.200 321.133,257.067 321.200,255.200 321.200 C 253.333 321.200,253.200 321.267,253.200 322.200 C 253.200 323.133,253.067 323.200,251.200 323.200 C 249.333 323.200,249.200 323.267,249.200 324.200 C 249.200 325.133,249.067 325.200,247.200 325.200 C 245.333 325.200,245.200 325.267,245.200 326.200 C 245.200 327.133,245.067 327.200,243.200 327.200 C 241.333 327.200,241.200 327.267,241.200 328.200 C 241.200 329.135,241.068 329.200,239.182 329.200 C 237.575 329.200,236.965 329.399,236.186 330.178 C 235.478 330.886,234.682 331.190,233.304 331.278 C 231.679 331.382,231.381 331.532,231.272 332.300 C 231.159 333.094,230.913 333.200,229.172 333.200 C 227.335 333.200,227.200 333.269,227.200 334.200 C 227.200 335.133,227.067 335.200,225.200 335.200 C 223.343 335.200,223.200 335.270,223.200 336.182 C 223.200 337.115,223.068 337.169,220.500 337.282 C 218.143 337.385,217.750 337.514,217.405 338.300 C 217.075 339.052,216.697 339.200,215.105 339.200 C 213.340 339.200,213.200 339.273,213.200 340.200 C 213.200 341.122,213.056 341.200,211.358 341.200 C 209.869 341.200,209.364 341.392,208.729 342.200 C 208.048 343.066,207.624 343.200,205.571 343.200 C 203.320 343.200,203.200 343.250,203.200 344.182 C 203.200 345.125,203.081 345.170,200.300 345.282 C 197.639 345.390,197.389 345.474,197.272 346.300 C 197.159 347.096,196.914 347.200,195.154 347.200 C 193.564 347.200,192.962 347.401,192.164 348.200 C 191.366 348.998,190.762 349.200,189.182 349.200 C 187.335 349.200,187.200 349.268,187.200 350.200 C 187.200 351.178,187.133 351.200,184.200 351.200 C 181.267 351.200,181.200 351.222,181.200 352.200 L 181.200 353.200 174.028 353.200 C 166.895 353.200,166.855 353.195,166.728 352.300 C 166.611 351.475,166.360 351.390,163.726 351.283 C 161.108 351.176,160.840 351.087,160.726 350.283 C 160.619 349.535,160.310 349.381,158.700 349.278 C 156.985 349.168,156.800 349.061,156.800 348.178 C 156.800 347.331,156.617 347.200,155.429 347.200 C 154.443 347.200,153.837 346.919,153.271 346.200 C 152.839 345.650,152.106 345.200,151.642 345.200 C 151.011 345.200,150.800 344.950,150.800 344.200 C 150.800 343.408,150.598 343.200,149.828 343.200 C 149.124 343.200,148.820 342.951,148.728 342.300 C 148.619 341.532,148.321 341.382,146.700 341.278 C 144.985 341.168,144.800 341.061,144.800 340.178 C 144.800 339.401,144.594 339.200,143.800 339.200 C 143.000 339.200,142.800 339.000,142.800 338.200 C 142.800 337.400,142.600 337.200,141.800 337.200 C 141.000 337.200,140.800 337.000,140.800 336.200 C 140.800 335.400,140.600 335.200,139.800 335.200 C 139.000 335.200,138.800 335.000,138.800 334.200 C 138.800 333.446,138.590 333.200,137.946 333.200 C 137.476 333.200,136.675 332.750,136.165 332.200 C 135.567 331.555,134.806 331.200,134.019 331.200 C 132.985 331.200,132.800 331.048,132.800 330.200 C 132.800 329.400,132.600 329.200,131.800 329.200 C 131.000 329.200,130.800 329.000,130.800 328.200 C 130.800 327.400,130.600 327.200,129.800 327.200 C 129.000 327.200,128.800 327.000,128.800 326.200 C 128.800 325.400,128.600 325.200,127.800 325.200 C 127.000 325.200,126.800 325.000,126.800 324.200 C 126.800 323.400,126.600 323.200,125.800 323.200 C 125.000 323.200,124.800 323.000,124.800 322.200 C 124.800 321.400,124.600 321.200,123.800 321.200 C 123.000 321.200,122.800 321.000,122.800 320.200 C 122.800 319.428,122.594 319.200,121.895 319.200 C 121.341 319.200,120.837 318.852,120.595 318.302 C 120.378 317.809,119.879 317.344,119.486 317.270 C 119.094 317.196,118.337 316.700,117.804 316.168 C 117.272 315.636,116.378 315.200,115.818 315.200 C 114.999 315.200,114.800 315.005,114.800 314.200 C 114.800 313.400,114.600 313.200,113.800 313.200 C 113.000 313.200,112.800 313.000,112.800 312.200 C 112.800 311.400,112.600 311.200,111.800 311.200 C 111.000 311.200,110.800 311.000,110.800 310.200 C 110.800 309.400,110.600 309.200,109.800 309.200 C 109.000 309.200,108.800 309.000,108.800 308.200 C 108.800 307.400,108.600 307.200,107.800 307.200 C 107.000 307.200,106.800 307.000,106.800 306.200 C 106.800 305.400,106.600 305.200,105.800 305.200 C 105.000 305.200,104.800 305.000,104.800 304.200 C 104.800 303.400,104.600 303.200,103.800 303.200 C 103.000 303.200,102.800 303.000,102.800 302.200 C 102.800 301.400,102.600 301.200,101.800 301.200 C 101.000 301.200,100.800 301.000,100.800 300.200 C 100.800 299.400,100.600 299.200,99.800 299.200 C 99.000 299.200,98.800 299.000,98.800 298.200 C 98.800 297.400,98.600 297.200,97.800 297.200 C 97.000 297.200,96.800 297.000,96.800 296.200 C 96.800 295.400,96.600 295.200,95.800 295.200 C 95.000 295.200,94.800 295.000,94.800 294.200 C 94.800 293.400,94.600 293.200,93.800 293.200 C 93.000 293.200,92.800 293.000,92.800 292.200 C 92.800 291.400,92.600 291.200,91.800 291.200 C 91.000 291.200,90.800 291.000,90.800 290.200 C 90.800 289.400,90.600 289.200,89.800 289.200 C 89.000 289.200,88.800 289.000,88.800 288.200 C 88.800 287.400,88.600 287.200,87.800 287.200 C 87.000 287.200,86.800 287.000,86.800 286.200 C 86.800 285.400,86.600 285.200,85.800 285.200 C 85.000 285.200,84.800 285.000,84.800 284.200 C 84.800 283.400,84.600 283.200,83.800 283.200 C 83.000 283.200,82.800 283.000,82.800 282.200 C 82.800 281.400,82.600 281.200,81.800 281.200 C 81.000 281.200,80.800 281.000,80.800 280.200 C 80.800 279.400,80.600 279.200,79.800 279.200 C 79.000 279.200,78.800 279.000,78.800 278.200 C 78.800 277.400,78.600 277.200,77.800 277.200 C 77.000 277.200,76.800 277.000,76.800 276.200 C 76.800 275.400,76.600 275.200,75.800 275.200 C 75.000 275.200,74.800 275.000,74.800 274.200 C 74.800 273.400,74.600 273.200,73.800 273.200 C 73.000 273.200,72.800 273.000,72.800 272.200 C 72.800 271.400,72.600 271.200,71.800 271.200 C 71.000 271.200,70.800 271.000,70.800 270.200 C 70.800 269.400,70.600 269.200,69.800 269.200 C 69.000 269.200,68.800 269.000,68.800 268.200 C 68.800 267.400,68.600 267.200,67.800 267.200 C 66.952 267.200,66.800 267.015,66.800 265.981 C 66.800 265.211,66.449 264.437,65.848 263.880 C 65.325 263.395,64.828 262.638,64.744 262.199 C 64.656 261.738,64.213 261.346,63.696 261.272 C 63.049 261.180,62.800 260.874,62.800 260.172 C 62.800 259.402,62.592 259.200,61.800 259.200 C 61.000 259.200,60.800 259.000,60.800 258.200 C 60.800 257.400,60.600 257.200,59.800 257.200 C 59.000 257.200,58.800 257.000,58.800 256.200 C 58.800 255.406,58.599 255.200,57.822 255.200 C 56.939 255.200,56.832 255.015,56.722 253.300 C 56.619 251.693,56.464 251.381,55.721 251.275 C 54.979 251.169,54.823 250.856,54.721 249.275 C 54.618 247.679,54.466 247.381,53.700 247.272 C 52.906 247.159,52.800 246.913,52.800 245.172 C 52.800 243.335,52.731 243.200,51.800 243.200 C 50.822 243.200,50.800 243.133,50.800 240.200 C 50.800 237.278,50.774 237.200,49.814 237.200 C 48.842 237.200,48.827 237.147,48.714 233.300 C 48.606 229.600,48.554 229.393,47.700 229.272 C 46.853 229.152,46.800 228.958,46.800 225.953 C 46.800 223.077,46.703 222.672,45.817 221.850 C 44.935 221.034,44.821 220.568,44.717 217.370 C 44.610 214.107,44.522 213.766,43.700 213.405 C 42.855 213.034,42.800 212.771,42.800 209.105 C 42.800 205.220,42.795 205.200,41.813 205.200 L 40.825 205.200 40.713 200.500 C 40.606 196.062,40.550 195.778,39.700 195.405 C 38.855 195.034,38.800 194.772,38.800 191.087 C 38.800 187.449,38.728 187.092,37.813 186.176 C 36.891 185.255,36.818 184.877,36.713 180.494 C 36.606 176.062,36.550 175.778,35.700 175.405 C 34.837 175.027,34.800 174.808,34.800 170.105 L 34.800 165.200 33.811 165.200 L 32.822 165.200 32.711 159.500 C 32.604 154.024,32.565 153.785,31.700 153.405 C 30.843 153.029,30.803 152.810,30.860 148.805 C 30.893 146.492,30.995 145.095,31.087 145.700 C 31.216 146.553,31.472 146.800,32.227 146.800 " stroke="none" fill="#040404" fill-rule="evenodd"></path><path id="path1" d="" stroke="none" fill="#080404" fill-rule="evenodd"></path><path id="path2" d="" stroke="none" fill="#080404" fill-rule="evenodd"></path><path id="path3" d="" stroke="none" fill="#080404" fill-rule="evenodd"></path><path id="path4" d="" stroke="none" fill="#080404" fill-rule="evenodd"></path></g></svg>